<svg width="28" height="53" viewBox="0 0 28 53" fill="none" xmlns="http://www.w3.org/2000/svg">
<mask id="path-1-outside-1_2120_740" maskUnits="userSpaceOnUse" x="-0.757812" y="-0.585938" width="29" height="54" fill="black">
<rect fill="white" x="-0.757812" y="-0.585938" width="29" height="54"/>
<path d="M17.418 51.4844C16.082 51.4844 14.7812 51.2266 13.5156 50.7109C12.2734 50.1719 11.2422 49.3047 10.4219 48.1094C9.60156 46.8906 9.14453 45.2617 9.05078 43.2227C9.02734 42.1914 9.01562 41.1367 9.01562 40.0586C9.01562 35.8633 9.15625 31.8789 9.4375 28.1055C9.67188 24.543 9.78906 20.9922 9.78906 17.4531C9.78906 16.75 9.70703 16.2227 9.54297 15.8711C9.37891 15.5195 9.07422 15.3438 8.62891 15.3438C8.41797 15.3438 8.06641 15.4609 7.57422 15.6953C6.73047 16.0469 6.12109 16.2227 5.74609 16.2227C5.04297 16.2227 4.32812 15.7539 3.60156 14.8164C2.875 13.8555 2.25391 12.707 1.73828 11.3711C1.24609 10.0352 1 8.79297 1 7.64453C1 6.00391 1.55078 5.00781 2.65234 4.65625C3.75391 4.30469 4.82031 3.97656 5.85156 3.67188C6.88281 3.36719 7.91406 3.05078 8.94531 2.72266C10.2812 2.27734 11.6289 1.87891 12.9883 1.52734C14.3477 1.17578 15.6484 1 16.8906 1C18.2734 1 19.5273 1.33984 20.6523 2.01953C21.7773 2.69922 22.7031 3.91797 23.4297 5.67578C24.5312 8.48828 25.3281 11.957 25.8203 16.082C26.3359 20.207 26.5938 24.4375 26.5938 28.7734C26.5938 32.4766 26.4297 36.0156 26.1016 39.3906C25.7734 42.7656 25.3047 45.6367 24.6953 48.0039C24.3906 48.9883 23.5352 49.8203 22.1289 50.5C20.7227 51.1562 19.1523 51.4844 17.418 51.4844Z"/>
</mask>
<path d="M17.418 51.4844C16.082 51.4844 14.7812 51.2266 13.5156 50.7109C12.2734 50.1719 11.2422 49.3047 10.4219 48.1094C9.60156 46.8906 9.14453 45.2617 9.05078 43.2227C9.02734 42.1914 9.01562 41.1367 9.01562 40.0586C9.01562 35.8633 9.15625 31.8789 9.4375 28.1055C9.67188 24.543 9.78906 20.9922 9.78906 17.4531C9.78906 16.75 9.70703 16.2227 9.54297 15.8711C9.37891 15.5195 9.07422 15.3438 8.62891 15.3438C8.41797 15.3438 8.06641 15.4609 7.57422 15.6953C6.73047 16.0469 6.12109 16.2227 5.74609 16.2227C5.04297 16.2227 4.32812 15.7539 3.60156 14.8164C2.875 13.8555 2.25391 12.707 1.73828 11.3711C1.24609 10.0352 1 8.79297 1 7.64453C1 6.00391 1.55078 5.00781 2.65234 4.65625C3.75391 4.30469 4.82031 3.97656 5.85156 3.67188C6.88281 3.36719 7.91406 3.05078 8.94531 2.72266C10.2812 2.27734 11.6289 1.87891 12.9883 1.52734C14.3477 1.17578 15.6484 1 16.8906 1C18.2734 1 19.5273 1.33984 20.6523 2.01953C21.7773 2.69922 22.7031 3.91797 23.4297 5.67578C24.5312 8.48828 25.3281 11.957 25.8203 16.082C26.3359 20.207 26.5938 24.4375 26.5938 28.7734C26.5938 32.4766 26.4297 36.0156 26.1016 39.3906C25.7734 42.7656 25.3047 45.6367 24.6953 48.0039C24.3906 48.9883 23.5352 49.8203 22.1289 50.5C20.7227 51.1562 19.1523 51.4844 17.418 51.4844Z" fill="#F33F3F"/>
<path d="M13.5156 50.7109L13.1175 51.6283L13.1279 51.6328L13.1383 51.637L13.5156 50.7109ZM10.4219 48.1094L9.59225 48.6678L9.59736 48.6752L10.4219 48.1094ZM9.05078 43.2227L8.05104 43.2454L8.0513 43.257L8.05184 43.2686L9.05078 43.2227ZM9.4375 28.1055L10.4348 28.1798L10.4353 28.1711L9.4375 28.1055ZM7.57422 15.6953L7.95883 16.6184L7.98174 16.6088L8.00415 16.5982L7.57422 15.6953ZM3.60156 14.8164L2.80385 15.4196L2.81115 15.429L3.60156 14.8164ZM1.73828 11.3711L0.799938 11.7168L0.802593 11.724L0.805358 11.7312L1.73828 11.3711ZM8.94531 2.72266L9.24854 3.67567L9.26154 3.67134L8.94531 2.72266ZM23.4297 5.67578L24.3608 5.31109L24.3574 5.30241L24.3539 5.29379L23.4297 5.67578ZM25.8203 16.082L24.8273 16.2005L24.828 16.2061L25.8203 16.082ZM24.6953 48.0039L25.6506 48.2996L25.6577 48.2766L25.6637 48.2532L24.6953 48.0039ZM22.1289 50.5L22.5518 51.4063L22.5641 51.4004L22.1289 50.5ZM17.418 50.4844C16.2144 50.4844 15.0416 50.2528 13.8929 49.7848L13.1383 51.637C14.5209 52.2003 15.9497 52.4844 17.418 52.4844V50.4844ZM13.9137 49.7936C12.8561 49.3346 11.9682 48.5954 11.2464 47.5435L9.59736 48.6752C10.5161 50.014 11.6907 51.0091 13.1175 51.6283L13.9137 49.7936ZM11.2515 47.551C10.5659 46.5325 10.1382 45.1009 10.0497 43.1767L8.05184 43.2686C8.15087 45.4225 8.63722 47.2488 9.59229 48.6678L11.2515 47.551ZM10.0505 43.1999C10.0273 42.1766 10.0156 41.1295 10.0156 40.0586H8.01562C8.01562 41.144 8.02742 42.2062 8.05104 43.2454L10.0505 43.1999ZM10.0156 40.0586C10.0156 35.8855 10.1555 31.926 10.4347 28.1798L8.44027 28.0311C8.15699 31.8318 8.01562 35.8411 8.01562 40.0586H10.0156ZM10.4353 28.1711C10.6711 24.587 10.7891 21.0143 10.7891 17.4531H8.78906C8.78906 20.9701 8.67261 24.499 8.43966 28.0398L10.4353 28.1711ZM10.7891 17.4531C10.7891 16.7038 10.7066 15.9999 10.4492 15.4482L8.63679 16.294C8.70745 16.4454 8.78906 16.7962 8.78906 17.4531H10.7891ZM10.4492 15.4482C10.2897 15.1065 10.0395 14.8104 9.69113 14.6094C9.35148 14.4134 8.98108 14.3438 8.62891 14.3438V16.3438C8.67506 16.3438 8.69993 16.3484 8.70833 16.3503C8.71578 16.3521 8.70791 16.3511 8.69168 16.3418C8.68389 16.3373 8.67553 16.3316 8.66721 16.3248C8.65889 16.318 8.65183 16.3111 8.64615 16.3047C8.63434 16.2915 8.63268 16.2852 8.63679 16.294L10.4492 15.4482ZM8.62891 14.3438C8.36409 14.3438 8.10369 14.412 7.8908 14.483C7.6628 14.559 7.41184 14.665 7.14429 14.7925L8.00415 16.5982C8.22878 16.4912 8.3997 16.4215 8.52326 16.3803C8.66193 16.3341 8.68279 16.3438 8.62891 16.3438V14.3438ZM7.1896 14.7722C6.34128 15.1257 5.89939 15.2227 5.74609 15.2227V17.2227C6.34279 17.2227 7.11966 16.968 7.95883 16.6184L7.1896 14.7722ZM5.74609 15.2227C5.51328 15.2227 5.05663 15.0614 4.39198 14.2038L2.81115 15.429C3.59962 16.4464 4.57266 17.2227 5.74609 17.2227V15.2227ZM4.39922 14.2133C3.73825 13.3391 3.1594 12.2759 2.6712 11.011L0.805358 11.7312C1.34841 13.1382 2.01175 14.3718 2.8039 15.4195L4.39922 14.2133ZM2.67662 11.0254C2.21581 9.7746 2 8.65053 2 7.64453H0C0 8.9354 0.276381 10.2957 0.799938 11.7168L2.67662 11.0254ZM2 7.64453C2 6.92351 2.12298 6.44971 2.28821 6.15089C2.4379 5.88018 2.64453 5.70844 2.95638 5.60891L2.3483 3.70359C1.5586 3.95563 0.939058 4.45771 0.537959 5.1831C0.152413 5.88036 0 6.72493 0 7.64453H2ZM2.95638 5.60891C4.05158 5.25938 5.11107 4.93339 6.13491 4.63089L5.56822 2.71286C4.52955 3.01974 3.45623 3.35 2.3483 3.70359L2.95638 5.60891ZM6.13491 4.63089C7.17284 4.32423 8.21071 4.00579 9.24852 3.67558L8.64211 1.76973C7.61741 2.09577 6.59278 2.41014 5.56822 2.71286L6.13491 4.63089ZM9.26154 3.67134C10.5758 3.23325 11.9015 2.8413 13.2387 2.49549L12.7379 0.559196C11.3563 0.916508 9.98668 1.32144 8.62908 1.77397L9.26154 3.67134ZM13.2387 2.49549C14.5267 2.16238 15.743 2 16.8906 2V0C15.5538 0 14.1686 0.189184 12.7379 0.559196L13.2387 2.49549ZM16.8906 2C18.1011 2 19.1745 2.29502 20.1352 2.87545L21.1695 1.16362C19.8802 0.384672 18.4458 0 16.8906 0V2ZM20.1352 2.87545C21.0119 3.40513 21.8255 4.41246 22.5055 6.05777L24.3539 5.29379C23.5808 3.42348 22.5427 1.99331 21.1695 1.16362L20.1352 2.87545ZM22.4986 6.04047C23.56 8.75056 24.3418 12.1308 24.8274 16.2005L26.8133 15.9636C26.3145 11.7833 25.5025 8.22601 24.3608 5.31109L22.4986 6.04047ZM24.828 16.2061C25.3383 20.2882 25.5938 24.4772 25.5938 28.7734H27.5938C27.5938 24.3978 27.3336 20.1259 26.8126 15.958L24.828 16.2061ZM25.5938 28.7734C25.5938 32.4472 25.431 35.9538 25.1063 39.2939L27.0969 39.4874C27.4284 36.0775 27.5938 32.506 27.5938 28.7734H25.5938ZM25.1063 39.2939C24.7814 42.6355 24.3195 45.4525 23.7269 47.7546L25.6637 48.2532C26.2899 45.8209 26.7655 42.8957 27.0969 39.4874L25.1063 39.2939ZM23.74 47.7082C23.5516 48.3169 22.9784 48.9787 21.6937 49.5996L22.5641 51.4004C24.0919 50.6619 25.2296 49.6596 25.6506 48.2996L23.74 47.7082ZM21.706 49.5938C20.447 50.1814 19.0235 50.4844 17.418 50.4844V52.4844C19.2812 52.4844 20.9983 52.1311 22.5518 51.4062L21.706 49.5938Z" fill="black" mask="url(#path-1-outside-1_2120_740)"/>
</svg>
