<svg width="35" height="53" viewBox="0 0 35 53" fill="none" xmlns="http://www.w3.org/2000/svg">
<mask id="path-1-outside-1_2120_738" maskUnits="userSpaceOnUse" x="-0.757812" y="-0.65625" width="36" height="53" fill="black">
<rect fill="white" x="-0.757812" y="-0.65625" width="36" height="53"/>
<path d="M13.6914 51.3438C11.2773 51.3438 9.03906 51.2148 6.97656 50.957C5.125 50.6758 3.8125 50.0547 3.03906 49.0938C2.28906 48.1094 1.91406 46.9727 1.91406 45.6836C1.91406 44.1367 2.27734 42.543 3.00391 40.9023C3.73047 39.2383 4.53906 37.8086 5.42969 36.6133C6.85938 34.7148 8.62891 32.2891 10.7383 29.3359C12.8477 26.3594 14.7578 23.5703 16.4688 20.9688C18.2031 18.3438 19.0703 16.75 19.0703 16.1875C19.0234 15.3438 18.7422 14.6758 18.2266 14.1836C17.7109 13.668 17.1367 13.4102 16.5039 13.4102C15.8477 13.4102 15.2266 13.7383 14.6406 14.3945C14.0781 15.0508 13.75 16.1172 13.6562 17.5938C13.5391 18.8594 12.8594 19.7734 11.6172 20.3359C10.375 20.875 8.99219 21.1445 7.46875 21.1445C5.875 21.1445 4.39844 20.8867 3.03906 20.3711C1.67969 19.8555 1 19.1758 1 18.332C1.09375 14.3711 1.94922 11.1133 3.56641 8.55859C5.18359 6.00391 7.25781 4.10547 9.78906 2.86328C12.3203 1.62109 14.957 1 17.6992 1C19.7148 1 21.6602 1.31641 23.5352 1.94922C25.4102 2.55859 27.0859 3.47266 28.5625 4.69141C30.0625 5.91016 31.2461 7.41016 32.1133 9.19141C33.0039 10.9727 33.4492 13.0352 33.4492 15.3789C33.4492 17.1836 32.957 19.082 31.9727 21.0742C31.0117 23.0664 29.793 25.1055 28.3164 27.1914C26.8398 29.2539 25.293 31.3047 23.6758 33.3438L21.9883 35.5234C21.2148 36.5547 20.8281 37.3164 20.8281 37.8086C20.8281 38.3477 21.2031 38.6172 21.9531 38.6172C22.4688 38.6172 23.0781 38.5234 23.7812 38.3359C24.5078 38.125 25.2578 37.9023 26.0312 37.668C27.7891 37.082 28.9258 36.7891 29.4414 36.7891C30.2148 36.7891 30.8594 37.2109 31.375 38.0547C31.8906 38.875 32.2773 39.9062 32.5352 41.1484C32.793 42.3906 32.9219 43.6094 32.9219 44.8047C32.9219 45.8828 32.8164 46.832 32.6055 47.6523C32.3945 48.4492 32.0664 48.9531 31.6211 49.1641C30.1211 49.7734 27.6484 50.2891 24.2031 50.7109C20.7578 51.1328 17.2539 51.3438 13.6914 51.3438Z"/>
</mask>
<path d="M13.6914 51.3438C11.2773 51.3438 9.03906 51.2148 6.97656 50.957C5.125 50.6758 3.8125 50.0547 3.03906 49.0938C2.28906 48.1094 1.91406 46.9727 1.91406 45.6836C1.91406 44.1367 2.27734 42.543 3.00391 40.9023C3.73047 39.2383 4.53906 37.8086 5.42969 36.6133C6.85938 34.7148 8.62891 32.2891 10.7383 29.3359C12.8477 26.3594 14.7578 23.5703 16.4688 20.9688C18.2031 18.3438 19.0703 16.75 19.0703 16.1875C19.0234 15.3438 18.7422 14.6758 18.2266 14.1836C17.7109 13.668 17.1367 13.4102 16.5039 13.4102C15.8477 13.4102 15.2266 13.7383 14.6406 14.3945C14.0781 15.0508 13.75 16.1172 13.6562 17.5938C13.5391 18.8594 12.8594 19.7734 11.6172 20.3359C10.375 20.875 8.99219 21.1445 7.46875 21.1445C5.875 21.1445 4.39844 20.8867 3.03906 20.3711C1.67969 19.8555 1 19.1758 1 18.332C1.09375 14.3711 1.94922 11.1133 3.56641 8.55859C5.18359 6.00391 7.25781 4.10547 9.78906 2.86328C12.3203 1.62109 14.957 1 17.6992 1C19.7148 1 21.6602 1.31641 23.5352 1.94922C25.4102 2.55859 27.0859 3.47266 28.5625 4.69141C30.0625 5.91016 31.2461 7.41016 32.1133 9.19141C33.0039 10.9727 33.4492 13.0352 33.4492 15.3789C33.4492 17.1836 32.957 19.082 31.9727 21.0742C31.0117 23.0664 29.793 25.1055 28.3164 27.1914C26.8398 29.2539 25.293 31.3047 23.6758 33.3438L21.9883 35.5234C21.2148 36.5547 20.8281 37.3164 20.8281 37.8086C20.8281 38.3477 21.2031 38.6172 21.9531 38.6172C22.4688 38.6172 23.0781 38.5234 23.7812 38.3359C24.5078 38.125 25.2578 37.9023 26.0312 37.668C27.7891 37.082 28.9258 36.7891 29.4414 36.7891C30.2148 36.7891 30.8594 37.2109 31.375 38.0547C31.8906 38.875 32.2773 39.9062 32.5352 41.1484C32.793 42.3906 32.9219 43.6094 32.9219 44.8047C32.9219 45.8828 32.8164 46.832 32.6055 47.6523C32.3945 48.4492 32.0664 48.9531 31.6211 49.1641C30.1211 49.7734 27.6484 50.2891 24.2031 50.7109C20.7578 51.1328 17.2539 51.3438 13.6914 51.3438Z" fill="#8DD1FF"/>
<path d="M6.97656 50.957L6.82639 51.9457L6.83943 51.9477L6.85253 51.9493L6.97656 50.957ZM3.03906 49.0938L2.24363 49.6998L2.2517 49.7104L2.26005 49.7208L3.03906 49.0938ZM3.00391 40.9023L3.91827 41.3073L3.92036 41.3025L3.00391 40.9023ZM5.42969 36.6133L4.63086 36.0117L4.6278 36.0158L5.42969 36.6133ZM10.7383 29.3359L11.552 29.9172L11.5542 29.9141L10.7383 29.3359ZM16.4688 20.9688L15.6344 20.4175L15.6332 20.4193L16.4688 20.9688ZM19.0703 16.1875H20.0703V16.1597L20.0688 16.132L19.0703 16.1875ZM18.2266 14.1836L17.5195 14.8907L17.5277 14.8989L17.5361 14.9069L18.2266 14.1836ZM14.6406 14.3945L13.8947 13.7285L13.888 13.7361L13.8814 13.7437L14.6406 14.3945ZM13.6562 17.5938L14.652 17.6859L14.6533 17.6715L14.6542 17.6571L13.6562 17.5938ZM11.6172 20.3359L12.0153 21.2533L12.0225 21.2501L12.0297 21.2469L11.6172 20.3359ZM1 18.332L0.000279963 18.3084L0 18.3202V18.332H1ZM23.5352 1.94922L23.2154 2.89677L23.2261 2.90025L23.5352 1.94922ZM28.5625 4.69141L27.9259 5.46265L27.9319 5.46752L28.5625 4.69141ZM32.1133 9.19141L31.2141 9.62915L31.2189 9.63862L32.1133 9.19141ZM31.9727 21.0742L31.0761 20.6312L31.072 20.6398L31.9727 21.0742ZM28.3164 27.1914L29.1295 27.7735L29.1326 27.7692L28.3164 27.1914ZM23.6758 33.3438L22.8922 32.7223L22.8851 32.7316L23.6758 33.3438ZM21.9883 35.5234L21.1976 34.9113L21.1929 34.9173L21.1883 34.9234L21.9883 35.5234ZM23.7812 38.3359L24.0389 39.3022L24.0495 39.2993L24.0601 39.2963L23.7812 38.3359ZM26.0312 37.668L26.3213 38.625L26.3344 38.621L26.3475 38.6167L26.0312 37.668ZM31.375 38.0547L30.5217 38.5762L30.5284 38.5869L31.375 38.0547ZM32.6055 47.6523L33.5722 47.9082L33.574 47.9014L32.6055 47.6523ZM31.6211 49.1641L31.9975 50.0905L32.0236 50.0799L32.0492 50.0678L31.6211 49.1641ZM13.6914 50.3438C11.3124 50.3438 9.11602 50.2167 7.1006 49.9648L6.85253 51.9493C8.96211 52.213 11.2423 52.3438 13.6914 52.3438V50.3438ZM7.12674 49.9684C5.39812 49.7058 4.37029 49.1528 3.81807 48.4667L2.26005 49.7208C3.25471 50.9566 4.85188 51.6458 6.82639 51.9457L7.12674 49.9684ZM3.83449 48.4877C3.22301 47.6851 2.91406 46.7635 2.91406 45.6836H0.914062C0.914062 47.1818 1.35512 48.5336 2.24363 49.6998L3.83449 48.4877ZM2.91406 45.6836C2.91406 44.2967 3.23921 42.8406 3.91826 41.3073L2.08956 40.4974C1.31548 42.2453 0.914062 43.9767 0.914062 45.6836H2.91406ZM3.92036 41.3025C4.62275 39.6938 5.39515 38.3333 6.23157 37.2108L4.6278 36.0158C3.68298 37.2839 2.83819 38.7828 2.08745 40.5022L3.92036 41.3025ZM6.2285 37.2149C7.66514 35.3072 9.44 32.874 11.552 29.9172L9.92455 28.7547C7.81781 31.7041 6.05361 34.1225 4.63087 36.0117L6.2285 37.2149ZM11.5542 29.9141C13.6692 26.9297 15.586 24.1309 17.3043 21.5182L15.6332 20.4193C13.9296 23.0097 12.0262 25.7891 9.92238 28.7577L11.5542 29.9141ZM17.3031 21.52C18.1764 20.1982 18.8447 19.1162 19.2983 18.2826C19.5246 17.8668 19.707 17.4953 19.8355 17.1759C19.9517 16.887 20.0703 16.5313 20.0703 16.1875H18.0703C18.0703 16.1249 18.0806 16.1794 17.9799 16.4296C17.8916 16.6492 17.7489 16.9457 17.5415 17.3267C17.1279 18.0869 16.4955 19.1143 15.6344 20.4175L17.3031 21.52ZM20.0688 16.132C20.0106 15.0847 19.6498 14.1596 18.917 13.4602L17.5361 14.9069C17.8346 15.1919 18.0363 15.6028 18.0719 16.243L20.0688 16.132ZM18.9337 13.4765C18.2615 12.8043 17.4427 12.4102 16.5039 12.4102V14.4102C16.8307 14.4102 17.1604 14.5317 17.5195 14.8907L18.9337 13.4765ZM16.5039 12.4102C15.4747 12.4102 14.6025 12.9358 13.8947 13.7285L15.3866 15.0605C15.8506 14.5408 16.2206 14.4102 16.5039 14.4102V12.4102ZM13.8814 13.7437C13.1082 14.6458 12.757 15.976 12.6583 17.5304L14.6542 17.6571C14.743 16.2584 15.0481 15.4558 15.3999 15.0453L13.8814 13.7437ZM12.6605 17.5016C12.5793 18.3785 12.1486 18.9975 11.2047 19.425L12.0297 21.2469C13.5701 20.5493 14.4988 19.3403 14.652 17.6859L12.6605 17.5016ZM11.2191 19.4186C10.1174 19.8967 8.87236 20.1445 7.46875 20.1445V22.1445C9.11202 22.1445 10.6326 21.8533 12.0153 21.2533L11.2191 19.4186ZM7.46875 20.1445C5.98452 20.1445 4.62937 19.9048 3.39372 19.4361L2.68441 21.3061C4.1675 21.8686 5.76548 22.1445 7.46875 22.1445V20.1445ZM3.39372 19.4361C2.11375 18.9506 2 18.5067 2 18.332H0C0 19.8449 1.24562 20.7603 2.68441 21.3061L3.39372 19.4361ZM1.99972 18.3557C2.09048 14.5211 2.91683 11.4544 4.41134 9.09346L2.72147 8.02373C0.981608 10.7722 0.0970209 14.2211 0.000279963 18.3084L1.99972 18.3557ZM4.41134 9.09346C5.93723 6.683 7.8761 4.91597 10.2296 3.76101L9.34851 1.96555C6.63952 3.29496 4.42996 5.32482 2.72147 8.02373L4.41134 9.09346ZM10.2296 3.76101C12.6277 2.58415 15.1142 2 17.6992 2V0C14.7999 0 12.0129 0.658041 9.34851 1.96555L10.2296 3.76101ZM17.6992 2C19.6082 2 21.4453 2.29932 23.2154 2.89671L23.8549 1.00173C21.875 0.333492 19.8215 0 17.6992 0V2ZM23.2261 2.90025C24.9852 3.47197 26.5492 4.32625 27.9259 5.46263L29.1991 3.92018C27.6227 2.61907 25.8351 1.64521 23.8442 0.998184L23.2261 2.90025ZM27.9319 5.46752C29.3159 6.59204 30.4091 7.97551 31.2142 9.62913L33.0124 8.75368C32.0831 6.8448 30.8091 5.22827 29.1931 3.91529L27.9319 5.46752ZM31.2189 9.63862C32.0288 11.2585 32.4492 13.1631 32.4492 15.3789H34.4492C34.4492 12.9073 33.979 10.6868 33.0077 8.74419L31.2189 9.63862ZM32.4492 15.3789C32.4492 16.9985 32.0079 18.7455 31.0761 20.6312L32.8692 21.5172C33.9062 19.4185 34.4492 17.3687 34.4492 15.3789H32.4492ZM31.072 20.6398C30.1385 22.5749 28.9495 24.5662 27.5002 26.6136L29.1326 27.7692C30.6364 25.6447 31.8849 23.5579 32.8734 21.5087L31.072 20.6398ZM27.5033 26.6093C26.0365 28.6581 24.4995 30.6958 22.8923 32.7224L24.4593 33.9651C26.0864 31.9136 27.6432 29.8497 29.1295 27.7735L27.5033 26.6093ZM22.8851 32.7316L21.1976 34.9113L22.779 36.1356L24.4665 33.9559L22.8851 32.7316ZM21.1883 34.9234C20.7824 35.4646 20.4557 35.964 20.2265 36.4155C20.0071 36.8476 19.8281 37.329 19.8281 37.8086H21.8281C21.8281 37.8124 21.8282 37.7746 21.8562 37.6836C21.8837 37.5947 21.9317 37.4748 22.0098 37.3209C22.1673 37.0106 22.4207 36.6135 22.7883 36.1234L21.1883 34.9234ZM19.8281 37.8086C19.8281 38.3385 20.0306 38.8712 20.5257 39.2271C20.9599 39.5391 21.4884 39.6172 21.9531 39.6172V37.6172C21.8223 37.6172 21.7396 37.6051 21.6939 37.5942C21.6488 37.5834 21.6585 37.5782 21.693 37.603C21.7337 37.6323 21.7774 37.6808 21.8056 37.7416C21.8313 37.7971 21.8281 37.828 21.8281 37.8086H19.8281ZM21.9531 39.6172C22.5832 39.6172 23.2832 39.5037 24.0389 39.3022L23.5236 37.3697C22.873 37.5432 22.3543 37.6172 21.9531 37.6172V39.6172ZM24.0601 39.2963C24.7906 39.0842 25.5443 38.8604 26.3213 38.625L25.7412 36.7109C24.9713 36.9443 24.225 37.1658 23.5024 37.3756L24.0601 39.2963ZM26.3475 38.6167C27.2154 38.3274 27.9147 38.1155 28.4517 37.9771C29.0153 37.8319 29.3212 37.7891 29.4414 37.7891V35.7891C29.046 35.7891 28.5257 35.8927 27.9526 36.0404C27.3528 36.195 26.6049 36.4226 25.715 36.7193L26.3475 38.6167ZM29.4414 37.7891C29.7683 37.7891 30.1299 37.935 30.5217 38.5761L32.2283 37.5332C31.5888 36.4869 30.6614 35.7891 29.4414 35.7891V37.7891ZM30.5284 38.5869C30.9643 39.2805 31.3153 40.192 31.556 41.3517L33.5143 40.9452C33.2394 39.6205 32.8169 38.4695 32.2216 37.5225L30.5284 38.5869ZM31.556 41.3517C31.8008 42.5311 31.9219 43.6817 31.9219 44.8047H33.9219C33.9219 43.5371 33.7851 42.2502 33.5143 40.9452L31.556 41.3517ZM31.9219 44.8047C31.9219 45.8204 31.8222 46.6829 31.637 47.4033L33.574 47.9014C33.8106 46.9811 33.9219 45.9452 33.9219 44.8047H31.9219ZM31.6388 47.3965C31.454 48.0944 31.2372 48.2394 31.193 48.2603L32.0492 50.0678C32.8956 49.6668 33.335 48.8041 33.5722 47.9082L31.6388 47.3965ZM31.2447 48.2376C29.8756 48.7938 27.5156 49.2979 24.0816 49.7184L24.3247 51.7035C27.7813 51.2803 30.3666 50.7531 31.9975 50.0905L31.2447 48.2376ZM24.0816 49.7184C20.6776 50.1352 17.2143 50.3438 13.6914 50.3438V52.3438C17.2935 52.3438 20.838 52.1305 24.3247 51.7035L24.0816 49.7184Z" fill="black" mask="url(#path-1-outside-1_2120_738)"/>
</svg>
