<svg width="36" height="52" viewBox="0 0 36 52" fill="none" xmlns="http://www.w3.org/2000/svg">
<mask id="path-1-outside-1_2120_734" maskUnits="userSpaceOnUse" x="-0.757812" y="-0.253906" width="37" height="52" fill="black">
<rect fill="white" x="-0.757812" y="-0.253906" width="37" height="52"/>
<path d="M17.8047 50.6406C14.9688 50.6406 12.1211 50.043 9.26172 48.8477C6.40234 47.6289 3.84766 45.7891 1.59766 43.3281C1.19922 42.8594 1 42.2383 1 41.4648C1 40.4336 1.29297 39.3203 1.87891 38.125C2.46484 36.9062 3.25 35.8633 4.23438 34.9961C5.24219 34.1055 6.33203 33.6602 7.50391 33.6602C8.04297 33.6602 8.58203 33.7773 9.12109 34.0117C11.7695 35.0664 13.832 35.5938 15.3086 35.5938C16.3398 35.5938 17.0898 35.4062 17.5586 35.0312C18.0508 34.6562 18.2969 34.1992 18.2969 33.6602C18.2969 32.8398 17.7812 32.0078 16.75 31.1641C15.7422 30.3203 14.3008 29.7578 12.4258 29.4766C11.5117 29.3359 10.7969 28.8086 10.2812 27.8945C9.78906 26.9805 9.54297 26.0195 9.54297 25.0117C9.54297 24.168 9.71875 23.3945 10.0703 22.6914C10.4453 21.9883 11.0195 21.5312 11.793 21.3203C13.7383 20.8047 15.1914 20.0898 16.1523 19.1758C17.1133 18.2617 17.5938 17.4297 17.5938 16.6797C17.5938 16.2109 17.4062 15.8242 17.0312 15.5195C16.6797 15.2148 16.1289 15.0625 15.3789 15.0625C13.8555 15.0625 11.8984 15.7422 9.50781 17.1016C8.85156 17.4531 8.18359 17.6289 7.50391 17.6289C6.37891 17.6289 5.32422 17.2188 4.33984 16.3984C3.37891 15.5781 2.59375 14.6055 1.98438 13.4805C1.375 12.332 1.07031 11.2891 1.07031 10.3516C1.07031 9.67188 1.24609 9.12109 1.59766 8.69922C4.01172 6.07422 6.66016 4.14062 9.54297 2.89844C12.4492 1.63281 15.2852 1 18.0508 1C20.6758 1 23.0898 1.53906 25.293 2.61719C27.5195 3.67188 29.3008 5.23047 30.6367 7.29297C31.9961 9.33203 32.6758 11.8398 32.6758 14.8164C32.6758 16.5742 32.2891 18.3086 31.5156 20.0195C30.7656 21.707 29.582 23.2422 27.9648 24.625C30.0508 25.5625 31.6211 26.8633 32.6758 28.5273C33.7305 30.168 34.2578 32.2891 34.2578 34.8906C34.2578 37.4688 33.8008 39.7422 32.8867 41.7109C31.9961 43.6797 30.7773 45.332 29.2305 46.668C27.6836 47.9805 25.9258 48.9766 23.957 49.6562C21.9883 50.3125 19.9375 50.6406 17.8047 50.6406Z"/>
</mask>
<path d="M17.8047 50.6406C14.9688 50.6406 12.1211 50.043 9.26172 48.8477C6.40234 47.6289 3.84766 45.7891 1.59766 43.3281C1.19922 42.8594 1 42.2383 1 41.4648C1 40.4336 1.29297 39.3203 1.87891 38.125C2.46484 36.9062 3.25 35.8633 4.23438 34.9961C5.24219 34.1055 6.33203 33.6602 7.50391 33.6602C8.04297 33.6602 8.58203 33.7773 9.12109 34.0117C11.7695 35.0664 13.832 35.5938 15.3086 35.5938C16.3398 35.5938 17.0898 35.4062 17.5586 35.0312C18.0508 34.6562 18.2969 34.1992 18.2969 33.6602C18.2969 32.8398 17.7812 32.0078 16.75 31.1641C15.7422 30.3203 14.3008 29.7578 12.4258 29.4766C11.5117 29.3359 10.7969 28.8086 10.2812 27.8945C9.78906 26.9805 9.54297 26.0195 9.54297 25.0117C9.54297 24.168 9.71875 23.3945 10.0703 22.6914C10.4453 21.9883 11.0195 21.5312 11.793 21.3203C13.7383 20.8047 15.1914 20.0898 16.1523 19.1758C17.1133 18.2617 17.5938 17.4297 17.5938 16.6797C17.5938 16.2109 17.4062 15.8242 17.0312 15.5195C16.6797 15.2148 16.1289 15.0625 15.3789 15.0625C13.8555 15.0625 11.8984 15.7422 9.50781 17.1016C8.85156 17.4531 8.18359 17.6289 7.50391 17.6289C6.37891 17.6289 5.32422 17.2188 4.33984 16.3984C3.37891 15.5781 2.59375 14.6055 1.98438 13.4805C1.375 12.332 1.07031 11.2891 1.07031 10.3516C1.07031 9.67188 1.24609 9.12109 1.59766 8.69922C4.01172 6.07422 6.66016 4.14062 9.54297 2.89844C12.4492 1.63281 15.2852 1 18.0508 1C20.6758 1 23.0898 1.53906 25.293 2.61719C27.5195 3.67188 29.3008 5.23047 30.6367 7.29297C31.9961 9.33203 32.6758 11.8398 32.6758 14.8164C32.6758 16.5742 32.2891 18.3086 31.5156 20.0195C30.7656 21.707 29.582 23.2422 27.9648 24.625C30.0508 25.5625 31.6211 26.8633 32.6758 28.5273C33.7305 30.168 34.2578 32.2891 34.2578 34.8906C34.2578 37.4688 33.8008 39.7422 32.8867 41.7109C31.9961 43.6797 30.7773 45.332 29.2305 46.668C27.6836 47.9805 25.9258 48.9766 23.957 49.6562C21.9883 50.3125 19.9375 50.6406 17.8047 50.6406Z" fill="#FF97C4"/>
<path d="M9.26172 48.8477L8.86961 49.7676L8.87603 49.7703L9.26172 48.8477ZM1.59766 43.3281L0.835717 43.9758L0.847427 43.9896L0.859627 44.0029L1.59766 43.3281ZM1.87891 38.125L2.77685 38.5652L2.78016 38.5583L1.87891 38.125ZM4.23438 34.9961L4.89541 35.7465L4.89657 35.7454L4.23438 34.9961ZM9.12109 34.0117L8.72237 34.9288L8.73665 34.935L8.75112 34.9408L9.12109 34.0117ZM17.5586 35.0312L16.9526 34.2358L16.9431 34.243L16.9339 34.2504L17.5586 35.0312ZM16.75 31.1641L16.108 31.9309L16.1168 31.938L16.75 31.1641ZM12.4258 29.4766L12.2737 30.4649L12.2774 30.4655L12.4258 29.4766ZM10.2812 27.8945L9.40078 28.3686L9.40544 28.3773L9.41027 28.3859L10.2812 27.8945ZM10.0703 22.6914L9.18796 22.2208L9.18177 22.2324L9.17589 22.2442L10.0703 22.6914ZM11.793 21.3203L11.5367 20.3537L11.5299 20.3555L11.793 21.3203ZM17.0312 15.5195L16.3763 16.2752L16.3883 16.2856L16.4007 16.2956L17.0312 15.5195ZM9.50781 17.1016L9.98003 17.983L9.99115 17.9771L10.0021 17.9709L9.50781 17.1016ZM4.33984 16.3984L3.69054 17.1591L3.69966 17.1667L4.33984 16.3984ZM1.98438 13.4805L1.10099 13.9492L1.10508 13.9568L1.98438 13.4805ZM1.59766 8.69922L0.861594 8.0223L0.845066 8.04028L0.829435 8.05903L1.59766 8.69922ZM9.54297 2.89844L9.93869 3.81681L9.94224 3.81527L9.54297 2.89844ZM25.293 2.61719L24.8534 3.51548L24.8649 3.52093L25.293 2.61719ZM30.6367 7.29297L29.7973 7.83666L29.8047 7.84767L30.6367 7.29297ZM31.5156 20.0195L30.6044 19.6076L30.6018 19.6134L31.5156 20.0195ZM27.9648 24.625L27.315 23.865L26.1158 24.8903L27.5549 25.5371L27.9648 24.625ZM32.6758 28.5273L31.8311 29.0627L31.8346 29.0681L32.6758 28.5273ZM32.8867 41.7109L31.9797 41.2898L31.9756 41.2988L32.8867 41.7109ZM29.2305 46.668L29.8775 47.4305L29.8841 47.4248L29.2305 46.668ZM23.957 49.6562L24.2733 50.605L24.2834 50.6015L23.957 49.6562ZM17.8047 49.6406C15.113 49.6406 12.396 49.074 9.64741 47.925L8.87603 49.7703C11.8462 51.0119 14.8245 51.6406 17.8047 51.6406V49.6406ZM9.65382 47.9277C6.93534 46.769 4.49636 45.0166 2.33569 42.6534L0.859627 44.0029C3.19895 46.5615 5.86935 48.4888 8.86962 49.7676L9.65382 47.9277ZM2.3596 42.6805C2.15115 42.4352 2 42.0638 2 41.4648H0C0 42.4127 0.247291 43.2835 0.835717 43.9758L2.3596 42.6805ZM2 41.4648C2 40.6239 2.23919 39.6619 2.77683 38.5652L0.980986 37.6848C0.346744 38.9787 0 40.2433 0 41.4648H2ZM2.78016 38.5583C3.30989 37.4565 4.01465 36.5224 4.89541 35.7465L3.57334 34.2457C2.48535 35.2042 1.6198 36.356 0.977654 37.6917L2.78016 38.5583ZM4.89657 35.7454C5.75037 34.9909 6.61177 34.6602 7.50391 34.6602V32.6602C6.05229 32.6602 4.73401 33.22 3.57218 34.2468L4.89657 35.7454ZM7.50391 34.6602C7.89379 34.6602 8.29764 34.7441 8.72237 34.9288L9.51982 33.0947C8.86642 32.8106 8.19215 32.6602 7.50391 32.6602V34.6602ZM8.75112 34.9408C11.4284 36.0069 13.6359 36.5938 15.3086 36.5938V34.5938C14.0282 34.5938 12.1106 34.1259 9.49107 33.0827L8.75112 34.9408ZM15.3086 36.5938C16.4194 36.5938 17.4488 36.3997 18.1833 35.8121L16.9339 34.2504C16.7308 34.4128 16.2603 34.5938 15.3086 34.5938V36.5938ZM18.1646 35.8267C18.8634 35.2943 19.2969 34.5603 19.2969 33.6602H17.2969C17.2969 33.8382 17.2382 34.0182 16.9526 34.2358L18.1646 35.8267ZM19.2969 33.6602C19.2969 32.3942 18.5035 31.3067 17.3832 30.3901L16.1168 31.938C17.059 32.7089 17.2969 33.2855 17.2969 33.6602H19.2969ZM17.3919 30.3973C16.194 29.3944 14.555 28.7848 12.5741 28.4876L12.2774 30.4655C14.0466 30.7309 15.2904 31.2462 16.1081 31.9308L17.3919 30.3973ZM12.5778 28.4882C12.0105 28.4009 11.5402 28.0909 11.1522 27.4032L9.41027 28.3859C10.0536 29.5263 11.013 30.271 12.2737 30.4649L12.5778 28.4882ZM11.1617 27.4204C10.7455 26.6475 10.543 25.8489 10.543 25.0117H8.54297C8.54297 26.1901 8.83259 27.3134 9.40078 28.3686L11.1617 27.4204ZM10.543 25.0117C10.543 24.3116 10.6876 23.6928 10.9647 23.1386L9.17589 22.2442C8.74987 23.0962 8.54297 24.0244 8.54297 25.0117H10.543ZM10.9527 23.162C11.1972 22.7035 11.5465 22.4241 12.0561 22.2851L11.5299 20.3555C10.4926 20.6384 9.69342 21.2731 9.18796 22.2208L10.9527 23.162ZM12.0492 22.2869C14.0798 21.7487 15.7119 20.9749 16.8416 19.9003L15.4631 18.4512C14.6709 19.2048 13.3968 19.8607 11.5368 20.3537L12.0492 22.2869ZM16.8416 19.9003C17.8595 18.9321 18.5938 17.8514 18.5938 16.6797H16.5938C16.5938 17.008 16.3671 17.5914 15.4631 18.4512L16.8416 19.9003ZM18.5938 16.6797C18.5938 15.8992 18.2622 15.2312 17.6618 14.7434L16.4007 16.2956C16.5503 16.4172 16.5938 16.5226 16.5938 16.6797H18.5938ZM17.6862 14.7638C17.0701 14.2299 16.2311 14.0625 15.3789 14.0625V16.0625C16.0267 16.0625 16.2893 16.1998 16.3763 16.2752L17.6862 14.7638ZM15.3789 14.0625C13.5927 14.0625 11.4511 14.8462 9.01351 16.2323L10.0021 17.9709C12.3458 16.6382 14.1182 16.0625 15.3789 16.0625V14.0625ZM9.03559 16.2201C8.51043 16.5014 8.00349 16.6289 7.50391 16.6289V18.6289C8.3637 18.6289 9.1927 18.4048 9.98003 17.983L9.03559 16.2201ZM7.50391 16.6289C6.64511 16.6289 5.81114 16.3228 4.98003 15.6302L3.69966 17.1667C4.8373 18.1147 6.1127 18.6289 7.50391 18.6289V16.6289ZM4.98911 15.6379C4.12287 14.8984 3.41525 14.0225 2.86367 13.0042L1.10508 13.9568C1.77225 15.1884 2.63494 16.2578 3.69058 17.159L4.98911 15.6379ZM2.86772 13.0118C2.30689 11.9548 2.07031 11.0748 2.07031 10.3516H0.0703125C0.0703125 11.5034 0.443105 12.7093 1.10103 13.9492L2.86772 13.0118ZM2.07031 10.3516C2.07031 9.84842 2.19711 9.54192 2.36588 9.3394L0.829435 8.05903C0.295076 8.70026 0.0703125 9.49533 0.0703125 10.3516H2.07031ZM2.33372 9.37613C4.66552 6.84058 7.20152 4.99624 9.93869 3.81681L9.14725 1.98007C6.1188 3.28501 3.35792 5.30785 0.861594 8.0223L2.33372 9.37613ZM9.94224 3.81527C12.7408 2.59653 15.4412 2 18.0508 2V0C15.1291 0 12.1576 0.6691 9.1437 1.9816L9.94224 3.81527ZM18.0508 2C20.5344 2 22.7966 2.50889 24.8534 3.5154L25.7325 1.71897C23.3831 0.569231 20.8172 0 18.0508 0V2ZM24.8649 3.52093C26.924 4.49632 28.5627 5.93043 29.7974 7.83661L31.476 6.74932C30.0388 4.5305 28.115 2.84743 25.7211 1.71345L24.8649 3.52093ZM29.8047 7.84767C31.033 9.69012 31.6758 11.9944 31.6758 14.8164H33.6758C33.6758 11.6853 32.9592 8.97395 31.4688 6.73827L29.8047 7.84767ZM31.6758 14.8164C31.6758 16.4226 31.3234 18.0171 30.6044 19.6076L32.4268 20.4315C33.2547 18.6 33.6758 16.7258 33.6758 14.8164H31.6758ZM30.6018 19.6134C29.9209 21.1455 28.8361 22.5643 27.315 23.865L28.6147 25.385C30.3279 23.9201 31.6104 22.2686 32.4294 20.4257L30.6018 19.6134ZM27.5549 25.5371C29.4916 26.4075 30.8974 27.5894 31.8311 29.0627L33.5204 27.992C32.3448 26.1372 30.61 24.7175 28.3748 23.7129L27.5549 25.5371ZM31.8346 29.0681C32.7563 30.5019 33.2578 32.4183 33.2578 34.8906H35.2578C35.2578 32.1598 34.7046 29.8341 33.517 27.9866L31.8346 29.0681ZM33.2578 34.8906C33.2578 37.3503 32.8221 39.4755 31.9797 41.2898L33.7937 42.132C34.7795 40.0089 35.2578 37.5872 35.2578 34.8906H33.2578ZM31.9756 41.2988C31.1413 43.143 30.0077 44.6754 28.5768 45.9111L29.8841 47.4248C31.547 45.9886 32.8509 44.2163 33.7978 42.1231L31.9756 41.2988ZM28.5835 45.9055C27.1338 47.1355 25.4853 48.0707 23.6307 48.711L24.2834 50.6015C26.3662 49.8824 28.2334 48.8254 29.8774 47.4305L28.5835 45.9055ZM23.6408 48.7076C21.7768 49.3289 19.833 49.6406 17.8047 49.6406V51.6406C20.042 51.6406 22.1997 51.2961 24.2733 50.6049L23.6408 48.7076Z" fill="black" mask="url(#path-1-outside-1_2120_734)"/>
</svg>
