<svg width="35" height="53" viewBox="0 0 35 53" fill="none" xmlns="http://www.w3.org/2000/svg">
<mask id="path-1-outside-1_2120_736" maskUnits="userSpaceOnUse" x="-0.757812" y="-0.65625" width="36" height="53" fill="black">
<rect fill="white" x="-0.757812" y="-0.65625" width="36" height="53"/>
<path d="M17.1367 51.168C14.4414 51.168 11.7578 50.6641 9.08594 49.6562C6.41406 48.625 4 47.0781 1.84375 45.0156C1.28125 44.3828 1 43.5039 1 42.3789C1 41.2305 1.24609 40.0117 1.73828 38.7227C2.25391 37.4102 2.95703 36.2969 3.84766 35.3828C4.76172 34.4453 5.79297 33.9766 6.94141 33.9766C7.36328 33.9766 7.78516 34.0469 8.20703 34.1875C9.98828 34.75 11.4883 35.0312 12.707 35.0312C14.2305 35.0312 15.3438 34.7266 16.0469 34.1172C16.7734 33.4844 17.1367 32.793 17.1367 32.043C17.1367 31.2695 16.7734 30.543 16.0469 29.8633C15.3438 29.1836 14.3359 28.8438 13.0234 28.8438C11.3828 28.8906 10.0352 28.9844 8.98047 29.125C8.23047 29.2188 7.59766 29.2656 7.08203 29.2656C6.07422 29.2656 5.3125 28.9609 4.79688 28.3516C4.28125 27.7188 3.84766 26.4531 3.49609 24.5547L3.17969 22.9375C2.80469 21.2031 2.44141 19.3164 2.08984 17.2773C1.76172 15.2383 1.59766 13.2461 1.59766 11.3008C1.59766 9.63672 1.79688 8.10156 2.19531 6.69531C2.59375 5.26562 3.28516 4.08203 4.26953 3.14453C5.25391 2.20703 6.61328 1.60937 8.34766 1.35156C10.2461 1.11719 12.5664 1 15.3086 1C17.7461 1 20.1719 1.09375 22.5859 1.28125C25 1.46875 26.8984 1.72656 28.2812 2.05469C29.2656 2.33594 29.9805 2.95703 30.4258 3.91797C30.8711 4.85547 31.0938 5.92188 31.0938 7.11719C31.0938 8.26563 30.918 9.41406 30.5664 10.5625C30.2148 11.6875 29.7227 12.625 29.0898 13.375C28.4805 14.125 27.7656 14.5 26.9453 14.5L26.4531 14.4648C25.1875 14.1836 23.5117 14.043 21.4258 14.043C17.418 14.043 15.3086 14.793 15.0977 16.293C15.0742 16.4805 15.0508 16.6328 15.0273 16.75C15.0273 16.8672 15.0273 17.043 15.0273 17.2773C15.0273 17.6289 15.1797 17.8516 15.4844 17.9453C15.8125 18.0156 16.4336 18.0742 17.3477 18.1211C20.8633 18.2852 23.8047 19.293 26.1719 21.1445C28.5625 22.9961 30.3555 25.2812 31.5508 28C32.7461 30.6953 33.3438 33.3789 33.3438 36.0508C33.3438 39.4023 32.582 42.2031 31.0586 44.4531C29.5352 46.6797 27.543 48.3555 25.082 49.4805C22.6211 50.6055 19.9727 51.168 17.1367 51.168Z"/>
</mask>
<path d="M17.1367 51.168C14.4414 51.168 11.7578 50.6641 9.08594 49.6562C6.41406 48.625 4 47.0781 1.84375 45.0156C1.28125 44.3828 1 43.5039 1 42.3789C1 41.2305 1.24609 40.0117 1.73828 38.7227C2.25391 37.4102 2.95703 36.2969 3.84766 35.3828C4.76172 34.4453 5.79297 33.9766 6.94141 33.9766C7.36328 33.9766 7.78516 34.0469 8.20703 34.1875C9.98828 34.75 11.4883 35.0312 12.707 35.0312C14.2305 35.0312 15.3438 34.7266 16.0469 34.1172C16.7734 33.4844 17.1367 32.793 17.1367 32.043C17.1367 31.2695 16.7734 30.543 16.0469 29.8633C15.3438 29.1836 14.3359 28.8438 13.0234 28.8438C11.3828 28.8906 10.0352 28.9844 8.98047 29.125C8.23047 29.2188 7.59766 29.2656 7.08203 29.2656C6.07422 29.2656 5.3125 28.9609 4.79688 28.3516C4.28125 27.7188 3.84766 26.4531 3.49609 24.5547L3.17969 22.9375C2.80469 21.2031 2.44141 19.3164 2.08984 17.2773C1.76172 15.2383 1.59766 13.2461 1.59766 11.3008C1.59766 9.63672 1.79688 8.10156 2.19531 6.69531C2.59375 5.26562 3.28516 4.08203 4.26953 3.14453C5.25391 2.20703 6.61328 1.60937 8.34766 1.35156C10.2461 1.11719 12.5664 1 15.3086 1C17.7461 1 20.1719 1.09375 22.5859 1.28125C25 1.46875 26.8984 1.72656 28.2812 2.05469C29.2656 2.33594 29.9805 2.95703 30.4258 3.91797C30.8711 4.85547 31.0938 5.92188 31.0938 7.11719C31.0938 8.26563 30.918 9.41406 30.5664 10.5625C30.2148 11.6875 29.7227 12.625 29.0898 13.375C28.4805 14.125 27.7656 14.5 26.9453 14.5L26.4531 14.4648C25.1875 14.1836 23.5117 14.043 21.4258 14.043C17.418 14.043 15.3086 14.793 15.0977 16.293C15.0742 16.4805 15.0508 16.6328 15.0273 16.75C15.0273 16.8672 15.0273 17.043 15.0273 17.2773C15.0273 17.6289 15.1797 17.8516 15.4844 17.9453C15.8125 18.0156 16.4336 18.0742 17.3477 18.1211C20.8633 18.2852 23.8047 19.293 26.1719 21.1445C28.5625 22.9961 30.3555 25.2812 31.5508 28C32.7461 30.6953 33.3438 33.3789 33.3438 36.0508C33.3438 39.4023 32.582 42.2031 31.0586 44.4531C29.5352 46.6797 27.543 48.3555 25.082 49.4805C22.6211 50.6055 19.9727 51.168 17.1367 51.168Z" fill="#F9834C"/>
<path d="M9.08594 49.6562L8.72585 50.5892L8.73302 50.5919L9.08594 49.6562ZM1.84375 45.0156L1.09634 45.68L1.12325 45.7103L1.15253 45.7383L1.84375 45.0156ZM1.73828 38.7227L0.807487 38.357L0.804063 38.366L1.73828 38.7227ZM3.84766 35.3828L3.13166 34.6847L3.13143 34.6849L3.84766 35.3828ZM8.20703 34.1875L7.8908 35.1362L7.89833 35.1387L7.9059 35.1411L8.20703 34.1875ZM16.0469 34.1172L16.7018 34.8729L16.7037 34.8713L16.0469 34.1172ZM16.0469 29.8633L15.3519 30.5823L15.3577 30.588L15.3637 30.5936L16.0469 29.8633ZM13.0234 28.8438V27.8438H13.0092L12.9949 27.8442L13.0234 28.8438ZM8.98047 29.125L9.10451 30.1173L9.11263 30.1162L8.98047 29.125ZM4.79688 28.3516L4.02164 28.9832L4.0275 28.9904L4.03349 28.9975L4.79688 28.3516ZM3.49609 24.5547L4.47943 24.3726L4.47749 24.3627L3.49609 24.5547ZM3.17969 22.9375L4.16108 22.7455L4.15919 22.7358L4.1571 22.7262L3.17969 22.9375ZM2.08984 17.2773L1.10248 17.4362L1.10438 17.4473L2.08984 17.2773ZM2.19531 6.69531L3.15745 6.96792L3.1586 6.96377L2.19531 6.69531ZM8.34766 1.35156L8.22513 0.359097L8.21286 0.360613L8.20062 0.362431L8.34766 1.35156ZM28.2812 2.05469L28.556 1.09316L28.5342 1.08694L28.5121 1.08171L28.2812 2.05469ZM30.4258 3.91797L29.5184 4.33845L29.5225 4.34702L30.4258 3.91797ZM30.5664 10.5625L31.5209 10.8608L31.5226 10.8552L30.5664 10.5625ZM29.0898 13.375L28.3256 12.7301L28.3196 12.7372L28.3137 12.7444L29.0898 13.375ZM26.9453 14.5L26.8741 15.4975L26.9096 15.5H26.9453V14.5ZM26.4531 14.4648L26.2362 15.441L26.3083 15.457L26.3819 15.4623L26.4531 14.4648ZM15.0977 16.293L14.1074 16.1537L14.1063 16.1613L14.1054 16.1689L15.0977 16.293ZM15.0273 16.75L14.0468 16.5539L14.0273 16.651V16.75H15.0273ZM15.4844 17.9453L15.1903 18.9011L15.2321 18.914L15.2748 18.9231L15.4844 17.9453ZM17.3477 18.1211L17.2964 19.1198L17.301 19.12L17.3477 18.1211ZM26.1719 21.1445L25.5558 21.9322L25.5595 21.9351L26.1719 21.1445ZM31.5508 28L30.6353 28.4025L30.6366 28.4054L31.5508 28ZM31.0586 44.4531L31.8839 45.0178L31.8866 45.0138L31.0586 44.4531ZM17.1367 50.168C14.569 50.168 12.0047 49.6884 9.43886 48.7206L8.73302 50.5919C11.5109 51.6397 14.3138 52.168 17.1367 52.168V50.168ZM9.44601 48.7233C6.90247 47.7416 4.59987 46.2681 2.53497 44.293L1.15253 45.7383C3.40013 47.8881 5.92566 49.5084 8.72586 50.5892L9.44601 48.7233ZM2.59116 44.3513C2.23858 43.9546 2 43.3408 2 42.3789H0C0 43.667 0.323922 44.811 1.09634 45.68L2.59116 44.3513ZM2 42.3789C2 41.3742 2.21527 40.2769 2.6725 39.0794L0.804063 38.366C0.276923 39.7466 0 41.0867 0 42.3789H2ZM2.66903 39.0883C3.1411 37.8867 3.77548 36.8898 4.56389 36.0807L3.13143 34.6849C2.13859 35.7039 1.36671 36.9336 0.80753 38.357L2.66903 39.0883ZM4.56366 36.0809C5.3183 35.3069 6.1012 34.9766 6.94141 34.9766V32.9766C5.48474 32.9766 4.20514 33.5837 3.13166 34.6847L4.56366 36.0809ZM6.94141 34.9766C7.2501 34.9766 7.56535 35.0277 7.8908 35.1362L8.52326 33.2388C8.00497 33.0661 7.47646 32.9766 6.94141 32.9766V34.9766ZM7.9059 35.1411C9.7385 35.7198 11.347 36.0312 12.707 36.0312V34.0312C11.6296 34.0312 10.2381 33.7802 8.50816 33.2339L7.9059 35.1411ZM12.707 36.0312C14.3279 36.0312 15.732 35.7134 16.7018 34.8729L15.3919 33.3615C14.9555 33.7397 14.1331 34.0312 12.707 34.0312V36.0312ZM16.7037 34.8713C17.5818 34.1064 18.1367 33.1599 18.1367 32.043H16.1367C16.1367 32.426 15.965 32.8623 15.3901 33.3631L16.7037 34.8713ZM18.1367 32.043C18.1367 30.9188 17.5975 29.9445 16.73 29.133L15.3637 30.5936C15.9494 31.1414 16.1367 31.6202 16.1367 32.043H18.1367ZM16.7419 29.1443C15.7958 28.2297 14.5043 27.8438 13.0234 27.8438V29.8438C14.1676 29.8438 14.8917 30.1375 15.3519 30.5823L16.7419 29.1443ZM12.9949 27.8442C11.336 27.8916 9.95049 27.9868 8.8483 28.1338L9.11263 30.1162C10.1198 29.9819 11.4296 29.8897 13.052 29.8433L12.9949 27.8442ZM8.85643 28.1327C8.13052 28.2235 7.54196 28.2656 7.08203 28.2656V30.2656C7.65335 30.2656 8.33042 30.214 9.1045 30.1173L8.85643 28.1327ZM7.08203 28.2656C6.28481 28.2656 5.83782 28.0336 5.56026 27.7056L4.03349 28.9975C4.78718 29.8882 5.86363 30.2656 7.08203 30.2656V28.2656ZM5.57211 27.7199C5.42146 27.535 5.23074 27.1867 5.03098 26.6036C4.83533 26.0325 4.64978 25.2928 4.47938 24.3726L2.51281 24.7368C2.69397 25.715 2.901 26.5573 3.13894 27.2518C3.37277 27.9344 3.65666 28.5353 4.02164 28.9832L5.57211 27.7199ZM4.47749 24.3627L4.16108 22.7455L2.19829 23.1295L2.5147 24.7467L4.47749 24.3627ZM4.1571 22.7262C3.78551 21.0076 3.42486 19.1348 3.0753 17.1074L1.10438 17.4473C1.45796 19.498 1.82386 21.3987 2.20227 23.1488L4.1571 22.7262ZM3.07714 17.1185C2.75696 15.1287 2.59766 13.1897 2.59766 11.3008H0.597656C0.597656 13.3025 0.766482 15.3478 1.10255 17.4362L3.07714 17.1185ZM2.59766 11.3008C2.59766 9.71639 2.78733 8.2742 3.15744 6.96791L1.23319 6.42271C0.806425 7.92892 0.597656 9.55704 0.597656 11.3008H2.59766ZM3.1586 6.96377C3.5132 5.69141 4.11731 4.67046 4.95919 3.86867L3.57988 2.42039C2.453 3.49361 1.6743 4.83984 1.23202 6.42686L3.1586 6.96377ZM4.95919 3.86867C5.75631 3.1095 6.90525 2.57696 8.49469 2.34069L8.20062 0.362431C6.32132 0.641787 4.7515 1.30456 3.57988 2.42039L4.95919 3.86867ZM8.47018 2.34403C10.3147 2.1163 12.5914 2 15.3086 2V0C12.5414 0 10.1774 0.118071 8.22513 0.359097L8.47018 2.34403ZM15.3086 2C17.7204 2 20.1204 2.09276 22.5085 2.27825L22.6634 0.284252C20.2234 0.094738 17.7718 0 15.3086 0V2ZM22.5085 2.27825C24.9014 2.4641 26.7409 2.71696 28.0504 3.02767L28.5121 1.08171C27.0559 0.736166 25.0986 0.473396 22.6634 0.284252L22.5085 2.27825ZM28.0065 3.01621C28.7006 3.21451 29.1905 3.63079 29.5185 4.33843L31.3331 3.49751C30.7704 2.28327 29.8307 1.45737 28.556 1.09316L28.0065 3.01621ZM29.5225 4.34702C29.8951 5.13153 30.0938 6.04782 30.0938 7.11719H32.0938C32.0938 5.79593 31.847 4.57941 31.3291 3.48891L29.5225 4.34702ZM30.0938 7.11719C30.0938 8.16195 29.9341 9.21184 29.6102 10.2698L31.5226 10.8552C31.9019 9.61629 32.0938 8.3693 32.0938 7.11719H30.0938ZM29.6119 10.2642C29.2922 11.2872 28.8571 12.1001 28.3256 12.7301L29.8541 14.0199C30.5882 13.1499 31.1374 12.0878 31.5209 10.8608L29.6119 10.2642ZM28.3137 12.7444C27.8566 13.3071 27.4094 13.5 26.9453 13.5V15.5C28.1218 15.5 29.1044 14.9429 29.866 14.0056L28.3137 12.7444ZM27.0166 13.5025L26.5244 13.4674L26.3819 15.4623L26.8741 15.4975L27.0166 13.5025ZM26.6701 13.4887C25.3036 13.185 23.5463 13.043 21.4258 13.043V15.043C23.4771 15.043 25.0714 15.1822 26.2362 15.441L26.6701 13.4887ZM21.4258 13.043C19.3831 13.043 17.7185 13.231 16.5029 13.6633C15.2842 14.0966 14.2875 14.873 14.1074 16.1537L16.0879 16.4322C16.1187 16.213 16.2822 15.8644 17.1729 15.5477C18.0666 15.2299 19.4607 15.043 21.4258 15.043V13.043ZM14.1054 16.1689C14.0834 16.3444 14.0635 16.4701 14.0468 16.5539L16.0079 16.9461C16.038 16.7955 16.065 16.6166 16.0899 16.417L14.1054 16.1689ZM14.0273 16.75C14.0273 16.7502 14.0273 16.7505 14.0273 16.7507C14.0273 16.7509 14.0273 16.7511 14.0273 16.7514C14.0273 16.7516 14.0273 16.7518 14.0273 16.7521C14.0273 16.7523 14.0273 16.7525 14.0273 16.7528C14.0273 16.753 14.0273 16.7532 14.0273 16.7534C14.0273 16.7537 14.0273 16.7539 14.0273 16.7541C14.0273 16.7544 14.0273 16.7546 14.0273 16.7548C14.0273 16.7551 14.0273 16.7553 14.0273 16.7555C14.0273 16.7558 14.0273 16.756 14.0273 16.7562C14.0273 16.7565 14.0273 16.7567 14.0273 16.7569C14.0273 16.7572 14.0273 16.7574 14.0273 16.7576C14.0273 16.7579 14.0273 16.7581 14.0273 16.7583C14.0273 16.7586 14.0273 16.7588 14.0273 16.759C14.0273 16.7593 14.0273 16.7595 14.0273 16.7597C14.0273 16.76 14.0273 16.7602 14.0273 16.7605C14.0273 16.7607 14.0273 16.7609 14.0273 16.7612C14.0273 16.7614 14.0273 16.7616 14.0273 16.7619C14.0273 16.7621 14.0273 16.7623 14.0273 16.7626C14.0273 16.7628 14.0273 16.7631 14.0273 16.7633C14.0273 16.7635 14.0273 16.7638 14.0273 16.764C14.0273 16.7642 14.0273 16.7645 14.0273 16.7647C14.0273 16.765 14.0273 16.7652 14.0273 16.7654C14.0273 16.7657 14.0273 16.7659 14.0273 16.7661C14.0273 16.7664 14.0273 16.7666 14.0273 16.7669C14.0273 16.7671 14.0273 16.7673 14.0273 16.7676C14.0273 16.7678 14.0273 16.7681 14.0273 16.7683C14.0273 16.7685 14.0273 16.7688 14.0273 16.769C14.0273 16.7693 14.0273 16.7695 14.0273 16.7698C14.0273 16.77 14.0273 16.7702 14.0273 16.7705C14.0273 16.7707 14.0273 16.771 14.0273 16.7712C14.0273 16.7714 14.0273 16.7717 14.0273 16.7719C14.0273 16.7722 14.0273 16.7724 14.0273 16.7727C14.0273 16.7729 14.0273 16.7731 14.0273 16.7734C14.0273 16.7736 14.0273 16.7739 14.0273 16.7741C14.0273 16.7744 14.0273 16.7746 14.0273 16.7749C14.0273 16.7751 14.0273 16.7753 14.0273 16.7756C14.0273 16.7758 14.0273 16.7761 14.0273 16.7763C14.0273 16.7766 14.0273 16.7768 14.0273 16.7771C14.0273 16.7773 14.0273 16.7776 14.0273 16.7778C14.0273 16.778 14.0273 16.7783 14.0273 16.7785C14.0273 16.7788 14.0273 16.779 14.0273 16.7793C14.0273 16.7795 14.0273 16.7798 14.0273 16.78C14.0273 16.7803 14.0273 16.7805 14.0273 16.7808C14.0273 16.781 14.0273 16.7813 14.0273 16.7815C14.0273 16.7818 14.0273 16.782 14.0273 16.7823C14.0273 16.7825 14.0273 16.7828 14.0273 16.783C14.0273 16.7833 14.0273 16.7835 14.0273 16.7838C14.0273 16.784 14.0273 16.7843 14.0273 16.7845C14.0273 16.7848 14.0273 16.785 14.0273 16.7853C14.0273 16.7855 14.0273 16.7858 14.0273 16.786C14.0273 16.7863 14.0273 16.7865 14.0273 16.7868C14.0273 16.787 14.0273 16.7873 14.0273 16.7875C14.0273 16.7878 14.0273 16.788 14.0273 16.7883C14.0273 16.7885 14.0273 16.7888 14.0273 16.789C14.0273 16.7893 14.0273 16.7895 14.0273 16.7898C14.0273 16.79 14.0273 16.7903 14.0273 16.7906C14.0273 16.7908 14.0273 16.7911 14.0273 16.7913C14.0273 16.7916 14.0273 16.7918 14.0273 16.7921C14.0273 16.7923 14.0273 16.7926 14.0273 16.7928C14.0273 16.7931 14.0273 16.7934 14.0273 16.7936C14.0273 16.7939 14.0273 16.7941 14.0273 16.7944C14.0273 16.7946 14.0273 16.7949 14.0273 16.7952C14.0273 16.7954 14.0273 16.7957 14.0273 16.7959C14.0273 16.7962 14.0273 16.7964 14.0273 16.7967C14.0273 16.797 14.0273 16.7972 14.0273 16.7975C14.0273 16.7977 14.0273 16.798 14.0273 16.7982C14.0273 16.7985 14.0273 16.7988 14.0273 16.799C14.0273 16.7993 14.0273 16.7995 14.0273 16.7998C14.0273 16.8001 14.0273 16.8003 14.0273 16.8006C14.0273 16.8008 14.0273 16.8011 14.0273 16.8013C14.0273 16.8016 14.0273 16.8019 14.0273 16.8021C14.0273 16.8024 14.0273 16.8027 14.0273 16.8029C14.0273 16.8032 14.0273 16.8034 14.0273 16.8037C14.0273 16.804 14.0273 16.8042 14.0273 16.8045C14.0273 16.8047 14.0273 16.805 14.0273 16.8053C14.0273 16.8055 14.0273 16.8058 14.0273 16.8061C14.0273 16.8063 14.0273 16.8066 14.0273 16.8068C14.0273 16.8071 14.0273 16.8074 14.0273 16.8076C14.0273 16.8079 14.0273 16.8082 14.0273 16.8084C14.0273 16.8087 14.0273 16.809 14.0273 16.8092C14.0273 16.8095 14.0273 16.8098 14.0273 16.81C14.0273 16.8103 14.0273 16.8105 14.0273 16.8108C14.0273 16.8111 14.0273 16.8113 14.0273 16.8116C14.0273 16.8119 14.0273 16.8121 14.0273 16.8124C14.0273 16.8127 14.0273 16.8129 14.0273 16.8132C14.0273 16.8135 14.0273 16.8137 14.0273 16.814C14.0273 16.8143 14.0273 16.8145 14.0273 16.8148C14.0273 16.8151 14.0273 16.8153 14.0273 16.8156C14.0273 16.8159 14.0273 16.8162 14.0273 16.8164C14.0273 16.8167 14.0273 16.817 14.0273 16.8172C14.0273 16.8175 14.0273 16.8178 14.0273 16.818C14.0273 16.8183 14.0273 16.8186 14.0273 16.8188C14.0273 16.8191 14.0273 16.8194 14.0273 16.8197C14.0273 16.8199 14.0273 16.8202 14.0273 16.8205C14.0273 16.8207 14.0273 16.821 14.0273 16.8213C14.0273 16.8216 14.0273 16.8218 14.0273 16.8221C14.0273 16.8224 14.0273 16.8226 14.0273 16.8229C14.0273 16.8232 14.0273 16.8235 14.0273 16.8237C14.0273 16.824 14.0273 16.8243 14.0273 16.8246C14.0273 16.8248 14.0273 16.8251 14.0273 16.8254C14.0273 16.8256 14.0273 16.8259 14.0273 16.8262C14.0273 16.8265 14.0273 16.8267 14.0273 16.827C14.0273 16.8273 14.0273 16.8276 14.0273 16.8278C14.0273 16.8281 14.0273 16.8284 14.0273 16.8287C14.0273 16.8289 14.0273 16.8292 14.0273 16.8295C14.0273 16.8298 14.0273 16.83 14.0273 16.8303C14.0273 16.8306 14.0273 16.8309 14.0273 16.8312C14.0273 16.8314 14.0273 16.8317 14.0273 16.832C14.0273 16.8323 14.0273 16.8325 14.0273 16.8328C14.0273 16.8331 14.0273 16.8334 14.0273 16.8336C14.0273 16.8339 14.0273 16.8342 14.0273 16.8345C14.0273 16.8348 14.0273 16.835 14.0273 16.8353C14.0273 16.8356 14.0273 16.8359 14.0273 16.8362C14.0273 16.8364 14.0273 16.8367 14.0273 16.837C14.0273 16.8373 14.0273 16.8376 14.0273 16.8378C14.0273 16.8381 14.0273 16.8384 14.0273 16.8387C14.0273 16.839 14.0273 16.8392 14.0273 16.8395C14.0273 16.8398 14.0273 16.8401 14.0273 16.8404C14.0273 16.8406 14.0273 16.8409 14.0273 16.8412C14.0273 16.8415 14.0273 16.8418 14.0273 16.8421C14.0273 16.8423 14.0273 16.8426 14.0273 16.8429C14.0273 16.8432 14.0273 16.8435 14.0273 16.8438C14.0273 16.844 14.0273 16.8443 14.0273 16.8446C14.0273 16.8449 14.0273 16.8452 14.0273 16.8455C14.0273 16.8457 14.0273 16.846 14.0273 16.8463C14.0273 16.8466 14.0273 16.8469 14.0273 16.8472C14.0273 16.8474 14.0273 16.8477 14.0273 16.848C14.0273 16.8483 14.0273 16.8486 14.0273 16.8489C14.0273 16.8492 14.0273 16.8494 14.0273 16.8497C14.0273 16.85 14.0273 16.8503 14.0273 16.8506C14.0273 16.8509 14.0273 16.8512 14.0273 16.8515C14.0273 16.8517 14.0273 16.852 14.0273 16.8523C14.0273 16.8526 14.0273 16.8529 14.0273 16.8532C14.0273 16.8535 14.0273 16.8538 14.0273 16.854C14.0273 16.8543 14.0273 16.8546 14.0273 16.8549C14.0273 16.8552 14.0273 16.8555 14.0273 16.8558C14.0273 16.8561 14.0273 16.8564 14.0273 16.8567C14.0273 16.8569 14.0273 16.8572 14.0273 16.8575C14.0273 16.8578 14.0273 16.8581 14.0273 16.8584C14.0273 16.8587 14.0273 16.859 14.0273 16.8593C14.0273 16.8596 14.0273 16.8599 14.0273 16.8601C14.0273 16.8604 14.0273 16.8607 14.0273 16.861C14.0273 16.8613 14.0273 16.8616 14.0273 16.8619C14.0273 16.8622 14.0273 16.8625 14.0273 16.8628C14.0273 16.8631 14.0273 16.8634 14.0273 16.8637C14.0273 16.864 14.0273 16.8643 14.0273 16.8645C14.0273 16.8648 14.0273 16.8651 14.0273 16.8654C14.0273 16.8657 14.0273 16.866 14.0273 16.8663C14.0273 16.8666 14.0273 16.8669 14.0273 16.8672C14.0273 16.8675 14.0273 16.8678 14.0273 16.8681C14.0273 16.8684 14.0273 16.8687 14.0273 16.869C14.0273 16.8693 14.0273 16.8696 14.0273 16.8699C14.0273 16.8702 14.0273 16.8705 14.0273 16.8708C14.0273 16.8711 14.0273 16.8713 14.0273 16.8716C14.0273 16.8719 14.0273 16.8722 14.0273 16.8725C14.0273 16.8728 14.0273 16.8731 14.0273 16.8734C14.0273 16.8737 14.0273 16.874 14.0273 16.8743C14.0273 16.8746 14.0273 16.8749 14.0273 16.8752C14.0273 16.8755 14.0273 16.8758 14.0273 16.8761C14.0273 16.8764 14.0273 16.8767 14.0273 16.877C14.0273 16.8773 14.0273 16.8776 14.0273 16.8779C14.0273 16.8782 14.0273 16.8785 14.0273 16.8788C14.0273 16.8791 14.0273 16.8794 14.0273 16.8797C14.0273 16.88 14.0273 16.8803 14.0273 16.8806C14.0273 16.8809 14.0273 16.8812 14.0273 16.8816C14.0273 16.8819 14.0273 16.8822 14.0273 16.8825C14.0273 16.8828 14.0273 16.8831 14.0273 16.8834C14.0273 16.8837 14.0273 16.884 14.0273 16.8843C14.0273 16.8846 14.0273 16.8849 14.0273 16.8852C14.0273 16.8855 14.0273 16.8858 14.0273 16.8861C14.0273 16.8864 14.0273 16.8867 14.0273 16.887C14.0273 16.8873 14.0273 16.8876 14.0273 16.8879C14.0273 16.8882 14.0273 16.8886 14.0273 16.8889C14.0273 16.8892 14.0273 16.8895 14.0273 16.8898C14.0273 16.8901 14.0273 16.8904 14.0273 16.8907C14.0273 16.891 14.0273 16.8913 14.0273 16.8916C14.0273 16.8919 14.0273 16.8922 14.0273 16.8925C14.0273 16.8929 14.0273 16.8932 14.0273 16.8935C14.0273 16.8938 14.0273 16.8941 14.0273 16.8944C14.0273 16.8947 14.0273 16.895 14.0273 16.8953C14.0273 16.8956 14.0273 16.8959 14.0273 16.8963C14.0273 16.8966 14.0273 16.8969 14.0273 16.8972C14.0273 16.8975 14.0273 16.8978 14.0273 16.8981C14.0273 16.8984 14.0273 16.8987 14.0273 16.899C14.0273 16.8994 14.0273 16.8997 14.0273 16.9C14.0273 16.9003 14.0273 16.9006 14.0273 16.9009C14.0273 16.9012 14.0273 16.9015 14.0273 16.9019C14.0273 16.9022 14.0273 16.9025 14.0273 16.9028C14.0273 16.9031 14.0273 16.9034 14.0273 16.9037C14.0273 16.904 14.0273 16.9044 14.0273 16.9047C14.0273 16.905 14.0273 16.9053 14.0273 16.9056C14.0273 16.9059 14.0273 16.9062 14.0273 16.9066C14.0273 16.9069 14.0273 16.9072 14.0273 16.9075C14.0273 16.9078 14.0273 16.9081 14.0273 16.9084C14.0273 16.9088 14.0273 16.9091 14.0273 16.9094C14.0273 16.9097 14.0273 16.91 14.0273 16.9103C14.0273 16.9107 14.0273 16.911 14.0273 16.9113C14.0273 16.9116 14.0273 16.9119 14.0273 16.9122C14.0273 16.9126 14.0273 16.9129 14.0273 16.9132C14.0273 16.9135 14.0273 16.9138 14.0273 16.9142C14.0273 16.9145 14.0273 16.9148 14.0273 16.9151C14.0273 16.9154 14.0273 16.9157 14.0273 16.9161C14.0273 16.9164 14.0273 16.9167 14.0273 16.917C14.0273 16.9173 14.0273 16.9177 14.0273 16.918C14.0273 16.9183 14.0273 16.9186 14.0273 16.9189C14.0273 16.9193 14.0273 16.9196 14.0273 16.9199C14.0273 16.9202 14.0273 16.9205 14.0273 16.9209C14.0273 16.9212 14.0273 16.9215 14.0273 16.9218C14.0273 16.9222 14.0273 16.9225 14.0273 16.9228C14.0273 16.9231 14.0273 16.9234 14.0273 16.9238C14.0273 16.9241 14.0273 16.9244 14.0273 16.9247C14.0273 16.9251 14.0273 16.9254 14.0273 16.9257C14.0273 16.926 14.0273 16.9264 14.0273 16.9267C14.0273 16.927 14.0273 16.9273 14.0273 16.9277C14.0273 16.928 14.0273 16.9283 14.0273 16.9286C14.0273 16.929 14.0273 16.9293 14.0273 16.9296C14.0273 16.9299 14.0273 16.9303 14.0273 16.9306C14.0273 16.9309 14.0273 16.9312 14.0273 16.9316C14.0273 16.9319 14.0273 16.9322 14.0273 16.9325C14.0273 16.9329 14.0273 16.9332 14.0273 16.9335C14.0273 16.9338 14.0273 16.9342 14.0273 16.9345C14.0273 16.9348 14.0273 16.9352 14.0273 16.9355C14.0273 16.9358 14.0273 16.9361 14.0273 16.9365C14.0273 16.9368 14.0273 16.9371 14.0273 16.9375C14.0273 16.9378 14.0273 16.9381 14.0273 16.9384C14.0273 16.9388 14.0273 16.9391 14.0273 16.9394C14.0273 16.9398 14.0273 16.9401 14.0273 16.9404C14.0273 16.9408 14.0273 16.9411 14.0273 16.9414C14.0273 16.9417 14.0273 16.9421 14.0273 16.9424C14.0273 16.9427 14.0273 16.9431 14.0273 16.9434C14.0273 16.9437 14.0273 16.9441 14.0273 16.9444C14.0273 16.9447 14.0273 16.9451 14.0273 16.9454C14.0273 16.9457 14.0273 16.9461 14.0273 16.9464C14.0273 16.9467 14.0273 16.9471 14.0273 16.9474C14.0273 16.9477 14.0273 16.9481 14.0273 16.9484C14.0273 16.9487 14.0273 16.9491 14.0273 16.9494C14.0273 16.9497 14.0273 16.9501 14.0273 16.9504C14.0273 16.9507 14.0273 16.9511 14.0273 16.9514C14.0273 16.9517 14.0273 16.9521 14.0273 16.9524C14.0273 16.9527 14.0273 16.9531 14.0273 16.9534C14.0273 16.9538 14.0273 16.9541 14.0273 16.9544C14.0273 16.9548 14.0273 16.9551 14.0273 16.9554C14.0273 16.9558 14.0273 16.9561 14.0273 16.9565C14.0273 16.9568 14.0273 16.9571 14.0273 16.9575C14.0273 16.9578 14.0273 16.9581 14.0273 16.9585C14.0273 16.9588 14.0273 16.9592 14.0273 16.9595C14.0273 16.9598 14.0273 16.9602 14.0273 16.9605C14.0273 16.9608 14.0273 16.9612 14.0273 16.9615C14.0273 16.9619 14.0273 16.9622 14.0273 16.9626C14.0273 16.9629 14.0273 16.9632 14.0273 16.9636C14.0273 16.9639 14.0273 16.9643 14.0273 16.9646C14.0273 16.9649 14.0273 16.9653 14.0273 16.9656C14.0273 16.966 14.0273 16.9663 14.0273 16.9666C14.0273 16.967 14.0273 16.9673 14.0273 16.9677C14.0273 16.968 14.0273 16.9684 14.0273 16.9687C14.0273 16.969 14.0273 16.9694 14.0273 16.9697C14.0273 16.9701 14.0273 16.9704 14.0273 16.9708C14.0273 16.9711 14.0273 16.9714 14.0273 16.9718C14.0273 16.9721 14.0273 16.9725 14.0273 16.9728C14.0273 16.9732 14.0273 16.9735 14.0273 16.9739C14.0273 16.9742 14.0273 16.9745 14.0273 16.9749C14.0273 16.9752 14.0273 16.9756 14.0273 16.9759C14.0273 16.9763 14.0273 16.9766 14.0273 16.977C14.0273 16.9773 14.0273 16.9777 14.0273 16.978C14.0273 16.9784 14.0273 16.9787 14.0273 16.979C14.0273 16.9794 14.0273 16.9797 14.0273 16.9801C14.0273 16.9804 14.0273 16.9808 14.0273 16.9811C14.0273 16.9815 14.0273 16.9818 14.0273 16.9822C14.0273 16.9825 14.0273 16.9829 14.0273 16.9832C14.0273 16.9836 14.0273 16.9839 14.0273 16.9843C14.0273 16.9846 14.0273 16.985 14.0273 16.9853C14.0273 16.9857 14.0273 16.986 14.0273 16.9864C14.0273 16.9867 14.0273 16.9871 14.0273 16.9874C14.0273 16.9878 14.0273 16.9881 14.0273 16.9885C14.0273 16.9888 14.0273 16.9892 14.0273 16.9895C14.0273 16.9899 14.0273 16.9902 14.0273 16.9906C14.0273 16.9909 14.0273 16.9913 14.0273 16.9917C14.0273 16.992 14.0273 16.9924 14.0273 16.9927C14.0273 16.9931 14.0273 16.9934 14.0273 16.9938C14.0273 16.9941 14.0273 16.9945 14.0273 16.9948C14.0273 16.9952 14.0273 16.9955 14.0273 16.9959C14.0273 16.9963 14.0273 16.9966 14.0273 16.997C14.0273 16.9973 14.0273 16.9977 14.0273 16.998C14.0273 16.9984 14.0273 16.9987 14.0273 16.9991C14.0273 16.9994 14.0273 16.9998 14.0273 17.0002C14.0273 17.0005 14.0273 17.0009 14.0273 17.0012C14.0273 17.0016 14.0273 17.0019 14.0273 17.0023C14.0273 17.0027 14.0273 17.003 14.0273 17.0034C14.0273 17.0037 14.0273 17.0041 14.0273 17.0044C14.0273 17.0048 14.0273 17.0052 14.0273 17.0055C14.0273 17.0059 14.0273 17.0062 14.0273 17.0066C14.0273 17.007 14.0273 17.0073 14.0273 17.0077C14.0273 17.008 14.0273 17.0084 14.0273 17.0088C14.0273 17.0091 14.0273 17.0095 14.0273 17.0098C14.0273 17.0102 14.0273 17.0106 14.0273 17.0109C14.0273 17.0113 14.0273 17.0116 14.0273 17.012C14.0273 17.0124 14.0273 17.0127 14.0273 17.0131C14.0273 17.0134 14.0273 17.0138 14.0273 17.0142C14.0273 17.0145 14.0273 17.0149 14.0273 17.0153C14.0273 17.0156 14.0273 17.016 14.0273 17.0163C14.0273 17.0167 14.0273 17.0171 14.0273 17.0174C14.0273 17.0178 14.0273 17.0182 14.0273 17.0185C14.0273 17.0189 14.0273 17.0193 14.0273 17.0196C14.0273 17.02 14.0273 17.0203 14.0273 17.0207C14.0273 17.0211 14.0273 17.0214 14.0273 17.0218C14.0273 17.0222 14.0273 17.0225 14.0273 17.0229C14.0273 17.0233 14.0273 17.0236 14.0273 17.024C14.0273 17.0244 14.0273 17.0247 14.0273 17.0251C14.0273 17.0255 14.0273 17.0258 14.0273 17.0262C14.0273 17.0266 14.0273 17.0269 14.0273 17.0273C14.0273 17.0277 14.0273 17.028 14.0273 17.0284C14.0273 17.0288 14.0273 17.0291 14.0273 17.0295C14.0273 17.0299 14.0273 17.0302 14.0273 17.0306C14.0273 17.031 14.0273 17.0314 14.0273 17.0317C14.0273 17.0321 14.0273 17.0325 14.0273 17.0328C14.0273 17.0332 14.0273 17.0336 14.0273 17.0339C14.0273 17.0343 14.0273 17.0347 14.0273 17.035C14.0273 17.0354 14.0273 17.0358 14.0273 17.0362C14.0273 17.0365 14.0273 17.0369 14.0273 17.0373C14.0273 17.0376 14.0273 17.038 14.0273 17.0384C14.0273 17.0388 14.0273 17.0391 14.0273 17.0395C14.0273 17.0399 14.0273 17.0403 14.0273 17.0406C14.0273 17.041 14.0273 17.0414 14.0273 17.0417C14.0273 17.0421 14.0273 17.0425 14.0273 17.0429C14.0273 17.0432 14.0273 17.0436 14.0273 17.044C14.0273 17.0444 14.0273 17.0447 14.0273 17.0451C14.0273 17.0455 14.0273 17.0459 14.0273 17.0462C14.0273 17.0466 14.0273 17.047 14.0273 17.0474C14.0273 17.0477 14.0273 17.0481 14.0273 17.0485C14.0273 17.0489 14.0273 17.0492 14.0273 17.0496C14.0273 17.05 14.0273 17.0504 14.0273 17.0507C14.0273 17.0511 14.0273 17.0515 14.0273 17.0519C14.0273 17.0523 14.0273 17.0526 14.0273 17.053C14.0273 17.0534 14.0273 17.0538 14.0273 17.0541C14.0273 17.0545 14.0273 17.0549 14.0273 17.0553C14.0273 17.0557 14.0273 17.056 14.0273 17.0564C14.0273 17.0568 14.0273 17.0572 14.0273 17.0576C14.0273 17.0579 14.0273 17.0583 14.0273 17.0587C14.0273 17.0591 14.0273 17.0595 14.0273 17.0598C14.0273 17.0602 14.0273 17.0606 14.0273 17.061C14.0273 17.0614 14.0273 17.0617 14.0273 17.0621C14.0273 17.0625 14.0273 17.0629 14.0273 17.0633C14.0273 17.0636 14.0273 17.064 14.0273 17.0644C14.0273 17.0648 14.0273 17.0652 14.0273 17.0656C14.0273 17.0659 14.0273 17.0663 14.0273 17.0667C14.0273 17.0671 14.0273 17.0675 14.0273 17.0679C14.0273 17.0682 14.0273 17.0686 14.0273 17.069C14.0273 17.0694 14.0273 17.0698 14.0273 17.0702C14.0273 17.0705 14.0273 17.0709 14.0273 17.0713C14.0273 17.0717 14.0273 17.0721 14.0273 17.0725C14.0273 17.0729 14.0273 17.0732 14.0273 17.0736C14.0273 17.074 14.0273 17.0744 14.0273 17.0748C14.0273 17.0752 14.0273 17.0756 14.0273 17.0759C14.0273 17.0763 14.0273 17.0767 14.0273 17.0771C14.0273 17.0775 14.0273 17.0779 14.0273 17.0783C14.0273 17.0787 14.0273 17.079 14.0273 17.0794C14.0273 17.0798 14.0273 17.0802 14.0273 17.0806C14.0273 17.081 14.0273 17.0814 14.0273 17.0818C14.0273 17.0821 14.0273 17.0825 14.0273 17.0829C14.0273 17.0833 14.0273 17.0837 14.0273 17.0841C14.0273 17.0845 14.0273 17.0849 14.0273 17.0853C14.0273 17.0857 14.0273 17.086 14.0273 17.0864C14.0273 17.0868 14.0273 17.0872 14.0273 17.0876C14.0273 17.088 14.0273 17.0884 14.0273 17.0888C14.0273 17.0892 14.0273 17.0896 14.0273 17.09C14.0273 17.0904 14.0273 17.0907 14.0273 17.0911C14.0273 17.0915 14.0273 17.0919 14.0273 17.0923C14.0273 17.0927 14.0273 17.0931 14.0273 17.0935C14.0273 17.0939 14.0273 17.0943 14.0273 17.0947C14.0273 17.0951 14.0273 17.0955 14.0273 17.0959C14.0273 17.0963 14.0273 17.0966 14.0273 17.097C14.0273 17.0974 14.0273 17.0978 14.0273 17.0982C14.0273 17.0986 14.0273 17.099 14.0273 17.0994C14.0273 17.0998 14.0273 17.1002 14.0273 17.1006C14.0273 17.101 14.0273 17.1014 14.0273 17.1018C14.0273 17.1022 14.0273 17.1026 14.0273 17.103C14.0273 17.1034 14.0273 17.1038 14.0273 17.1042C14.0273 17.1046 14.0273 17.105 14.0273 17.1054C14.0273 17.1058 14.0273 17.1062 14.0273 17.1066C14.0273 17.107 14.0273 17.1074 14.0273 17.1078C14.0273 17.1082 14.0273 17.1086 14.0273 17.109C14.0273 17.1093 14.0273 17.1097 14.0273 17.1101C14.0273 17.1105 14.0273 17.1109 14.0273 17.1113C14.0273 17.1117 14.0273 17.1121 14.0273 17.1125C14.0273 17.1129 14.0273 17.1133 14.0273 17.1138C14.0273 17.1142 14.0273 17.1146 14.0273 17.115C14.0273 17.1154 14.0273 17.1158 14.0273 17.1162C14.0273 17.1166 14.0273 17.117 14.0273 17.1174C14.0273 17.1178 14.0273 17.1182 14.0273 17.1186C14.0273 17.119 14.0273 17.1194 14.0273 17.1198C14.0273 17.1202 14.0273 17.1206 14.0273 17.121C14.0273 17.1214 14.0273 17.1218 14.0273 17.1222C14.0273 17.1226 14.0273 17.123 14.0273 17.1234C14.0273 17.1238 14.0273 17.1242 14.0273 17.1246C14.0273 17.125 14.0273 17.1254 14.0273 17.1258C14.0273 17.1263 14.0273 17.1267 14.0273 17.1271C14.0273 17.1275 14.0273 17.1279 14.0273 17.1283C14.0273 17.1287 14.0273 17.1291 14.0273 17.1295C14.0273 17.1299 14.0273 17.1303 14.0273 17.1307C14.0273 17.1311 14.0273 17.1315 14.0273 17.1319C14.0273 17.1324 14.0273 17.1328 14.0273 17.1332C14.0273 17.1336 14.0273 17.134 14.0273 17.1344C14.0273 17.1348 14.0273 17.1352 14.0273 17.1356C14.0273 17.136 14.0273 17.1364 14.0273 17.1368C14.0273 17.1373 14.0273 17.1377 14.0273 17.1381C14.0273 17.1385 14.0273 17.1389 14.0273 17.1393C14.0273 17.1397 14.0273 17.1401 14.0273 17.1405C14.0273 17.141 14.0273 17.1414 14.0273 17.1418C14.0273 17.1422 14.0273 17.1426 14.0273 17.143C14.0273 17.1434 14.0273 17.1438 14.0273 17.1442C14.0273 17.1447 14.0273 17.1451 14.0273 17.1455C14.0273 17.1459 14.0273 17.1463 14.0273 17.1467C14.0273 17.1471 14.0273 17.1475 14.0273 17.148C14.0273 17.1484 14.0273 17.1488 14.0273 17.1492C14.0273 17.1496 14.0273 17.15 14.0273 17.1504C14.0273 17.1509 14.0273 17.1513 14.0273 17.1517C14.0273 17.1521 14.0273 17.1525 14.0273 17.1529C14.0273 17.1533 14.0273 17.1538 14.0273 17.1542C14.0273 17.1546 14.0273 17.155 14.0273 17.1554C14.0273 17.1558 14.0273 17.1563 14.0273 17.1567C14.0273 17.1571 14.0273 17.1575 14.0273 17.1579C14.0273 17.1583 14.0273 17.1588 14.0273 17.1592C14.0273 17.1596 14.0273 17.16 14.0273 17.1604C14.0273 17.1609 14.0273 17.1613 14.0273 17.1617C14.0273 17.1621 14.0273 17.1625 14.0273 17.1629C14.0273 17.1634 14.0273 17.1638 14.0273 17.1642C14.0273 17.1646 14.0273 17.165 14.0273 17.1655C14.0273 17.1659 14.0273 17.1663 14.0273 17.1667C14.0273 17.1671 14.0273 17.1676 14.0273 17.168C14.0273 17.1684 14.0273 17.1688 14.0273 17.1692C14.0273 17.1697 14.0273 17.1701 14.0273 17.1705C14.0273 17.1709 14.0273 17.1713 14.0273 17.1718C14.0273 17.1722 14.0273 17.1726 14.0273 17.173C14.0273 17.1735 14.0273 17.1739 14.0273 17.1743C14.0273 17.1747 14.0273 17.1752 14.0273 17.1756C14.0273 17.176 14.0273 17.1764 14.0273 17.1768C14.0273 17.1773 14.0273 17.1777 14.0273 17.1781C14.0273 17.1785 14.0273 17.179 14.0273 17.1794C14.0273 17.1798 14.0273 17.1802 14.0273 17.1807C14.0273 17.1811 14.0273 17.1815 14.0273 17.1819C14.0273 17.1824 14.0273 17.1828 14.0273 17.1832C14.0273 17.1836 14.0273 17.1841 14.0273 17.1845C14.0273 17.1849 14.0273 17.1854 14.0273 17.1858C14.0273 17.1862 14.0273 17.1866 14.0273 17.1871C14.0273 17.1875 14.0273 17.1879 14.0273 17.1883C14.0273 17.1888 14.0273 17.1892 14.0273 17.1896C14.0273 17.1901 14.0273 17.1905 14.0273 17.1909C14.0273 17.1913 14.0273 17.1918 14.0273 17.1922C14.0273 17.1926 14.0273 17.1931 14.0273 17.1935C14.0273 17.1939 14.0273 17.1943 14.0273 17.1948C14.0273 17.1952 14.0273 17.1956 14.0273 17.1961C14.0273 17.1965 14.0273 17.1969 14.0273 17.1974C14.0273 17.1978 14.0273 17.1982 14.0273 17.1987C14.0273 17.1991 14.0273 17.1995 14.0273 17.1999C14.0273 17.2004 14.0273 17.2008 14.0273 17.2012C14.0273 17.2017 14.0273 17.2021 14.0273 17.2025C14.0273 17.203 14.0273 17.2034 14.0273 17.2038C14.0273 17.2043 14.0273 17.2047 14.0273 17.2051C14.0273 17.2056 14.0273 17.206 14.0273 17.2064C14.0273 17.2069 14.0273 17.2073 14.0273 17.2077C14.0273 17.2082 14.0273 17.2086 14.0273 17.209C14.0273 17.2095 14.0273 17.2099 14.0273 17.2104C14.0273 17.2108 14.0273 17.2112 14.0273 17.2117C14.0273 17.2121 14.0273 17.2125 14.0273 17.213C14.0273 17.2134 14.0273 17.2138 14.0273 17.2143C14.0273 17.2147 14.0273 17.2152 14.0273 17.2156C14.0273 17.216 14.0273 17.2165 14.0273 17.2169C14.0273 17.2173 14.0273 17.2178 14.0273 17.2182C14.0273 17.2187 14.0273 17.2191 14.0273 17.2195C14.0273 17.22 14.0273 17.2204 14.0273 17.2208C14.0273 17.2213 14.0273 17.2217 14.0273 17.2222C14.0273 17.2226 14.0273 17.223 14.0273 17.2235C14.0273 17.2239 14.0273 17.2244 14.0273 17.2248C14.0273 17.2252 14.0273 17.2257 14.0273 17.2261C14.0273 17.2266 14.0273 17.227 14.0273 17.2275C14.0273 17.2279 14.0273 17.2283 14.0273 17.2288C14.0273 17.2292 14.0273 17.2297 14.0273 17.2301C14.0273 17.2305 14.0273 17.231 14.0273 17.2314C14.0273 17.2319 14.0273 17.2323 14.0273 17.2328C14.0273 17.2332 14.0273 17.2336 14.0273 17.2341C14.0273 17.2345 14.0273 17.235 14.0273 17.2354C14.0273 17.2359 14.0273 17.2363 14.0273 17.2367C14.0273 17.2372 14.0273 17.2376 14.0273 17.2381C14.0273 17.2385 14.0273 17.239 14.0273 17.2394C14.0273 17.2399 14.0273 17.2403 14.0273 17.2408C14.0273 17.2412 14.0273 17.2416 14.0273 17.2421C14.0273 17.2425 14.0273 17.243 14.0273 17.2434C14.0273 17.2439 14.0273 17.2443 14.0273 17.2448C14.0273 17.2452 14.0273 17.2457 14.0273 17.2461C14.0273 17.2466 14.0273 17.247 14.0273 17.2475C14.0273 17.2479 14.0273 17.2484 14.0273 17.2488C14.0273 17.2492 14.0273 17.2497 14.0273 17.2501C14.0273 17.2506 14.0273 17.251 14.0273 17.2515C14.0273 17.2519 14.0273 17.2524 14.0273 17.2528C14.0273 17.2533 14.0273 17.2537 14.0273 17.2542C14.0273 17.2546 14.0273 17.2551 14.0273 17.2555C14.0273 17.256 14.0273 17.2564 14.0273 17.2569C14.0273 17.2573 14.0273 17.2578 14.0273 17.2582C14.0273 17.2587 14.0273 17.2592 14.0273 17.2596C14.0273 17.2601 14.0273 17.2605 14.0273 17.261C14.0273 17.2614 14.0273 17.2619 14.0273 17.2623C14.0273 17.2628 14.0273 17.2632 14.0273 17.2637C14.0273 17.2641 14.0273 17.2646 14.0273 17.265C14.0273 17.2655 14.0273 17.2659 14.0273 17.2664C14.0273 17.2669 14.0273 17.2673 14.0273 17.2678C14.0273 17.2682 14.0273 17.2687 14.0273 17.2691C14.0273 17.2696 14.0273 17.27 14.0273 17.2705C14.0273 17.271 14.0273 17.2714 14.0273 17.2719C14.0273 17.2723 14.0273 17.2728 14.0273 17.2732C14.0273 17.2737 14.0273 17.2741 14.0273 17.2746C14.0273 17.2751 14.0273 17.2755 14.0273 17.276C14.0273 17.2764 14.0273 17.2769 14.0273 17.2773H16.0273C16.0273 17.2769 16.0273 17.2764 16.0273 17.276C16.0273 17.2755 16.0273 17.2751 16.0273 17.2746C16.0273 17.2741 16.0273 17.2737 16.0273 17.2732C16.0273 17.2728 16.0273 17.2723 16.0273 17.2719C16.0273 17.2714 16.0273 17.271 16.0273 17.2705C16.0273 17.27 16.0273 17.2696 16.0273 17.2691C16.0273 17.2687 16.0273 17.2682 16.0273 17.2678C16.0273 17.2673 16.0273 17.2669 16.0273 17.2664C16.0273 17.2659 16.0273 17.2655 16.0273 17.265C16.0273 17.2646 16.0273 17.2641 16.0273 17.2637C16.0273 17.2632 16.0273 17.2628 16.0273 17.2623C16.0273 17.2619 16.0273 17.2614 16.0273 17.261C16.0273 17.2605 16.0273 17.2601 16.0273 17.2596C16.0273 17.2592 16.0273 17.2587 16.0273 17.2582C16.0273 17.2578 16.0273 17.2573 16.0273 17.2569C16.0273 17.2564 16.0273 17.256 16.0273 17.2555C16.0273 17.2551 16.0273 17.2546 16.0273 17.2542C16.0273 17.2537 16.0273 17.2533 16.0273 17.2528C16.0273 17.2524 16.0273 17.2519 16.0273 17.2515C16.0273 17.251 16.0273 17.2506 16.0273 17.2501C16.0273 17.2497 16.0273 17.2492 16.0273 17.2488C16.0273 17.2484 16.0273 17.2479 16.0273 17.2475C16.0273 17.247 16.0273 17.2466 16.0273 17.2461C16.0273 17.2457 16.0273 17.2452 16.0273 17.2448C16.0273 17.2443 16.0273 17.2439 16.0273 17.2434C16.0273 17.243 16.0273 17.2425 16.0273 17.2421C16.0273 17.2416 16.0273 17.2412 16.0273 17.2408C16.0273 17.2403 16.0273 17.2399 16.0273 17.2394C16.0273 17.239 16.0273 17.2385 16.0273 17.2381C16.0273 17.2376 16.0273 17.2372 16.0273 17.2367C16.0273 17.2363 16.0273 17.2359 16.0273 17.2354C16.0273 17.235 16.0273 17.2345 16.0273 17.2341C16.0273 17.2336 16.0273 17.2332 16.0273 17.2328C16.0273 17.2323 16.0273 17.2319 16.0273 17.2314C16.0273 17.231 16.0273 17.2305 16.0273 17.2301C16.0273 17.2297 16.0273 17.2292 16.0273 17.2288C16.0273 17.2283 16.0273 17.2279 16.0273 17.2275C16.0273 17.227 16.0273 17.2266 16.0273 17.2261C16.0273 17.2257 16.0273 17.2252 16.0273 17.2248C16.0273 17.2244 16.0273 17.2239 16.0273 17.2235C16.0273 17.223 16.0273 17.2226 16.0273 17.2222C16.0273 17.2217 16.0273 17.2213 16.0273 17.2208C16.0273 17.2204 16.0273 17.22 16.0273 17.2195C16.0273 17.2191 16.0273 17.2187 16.0273 17.2182C16.0273 17.2178 16.0273 17.2173 16.0273 17.2169C16.0273 17.2165 16.0273 17.216 16.0273 17.2156C16.0273 17.2152 16.0273 17.2147 16.0273 17.2143C16.0273 17.2138 16.0273 17.2134 16.0273 17.213C16.0273 17.2125 16.0273 17.2121 16.0273 17.2117C16.0273 17.2112 16.0273 17.2108 16.0273 17.2104C16.0273 17.2099 16.0273 17.2095 16.0273 17.209C16.0273 17.2086 16.0273 17.2082 16.0273 17.2077C16.0273 17.2073 16.0273 17.2069 16.0273 17.2064C16.0273 17.206 16.0273 17.2056 16.0273 17.2051C16.0273 17.2047 16.0273 17.2043 16.0273 17.2038C16.0273 17.2034 16.0273 17.203 16.0273 17.2025C16.0273 17.2021 16.0273 17.2017 16.0273 17.2012C16.0273 17.2008 16.0273 17.2004 16.0273 17.1999C16.0273 17.1995 16.0273 17.1991 16.0273 17.1987C16.0273 17.1982 16.0273 17.1978 16.0273 17.1974C16.0273 17.1969 16.0273 17.1965 16.0273 17.1961C16.0273 17.1956 16.0273 17.1952 16.0273 17.1948C16.0273 17.1943 16.0273 17.1939 16.0273 17.1935C16.0273 17.1931 16.0273 17.1926 16.0273 17.1922C16.0273 17.1918 16.0273 17.1913 16.0273 17.1909C16.0273 17.1905 16.0273 17.1901 16.0273 17.1896C16.0273 17.1892 16.0273 17.1888 16.0273 17.1883C16.0273 17.1879 16.0273 17.1875 16.0273 17.1871C16.0273 17.1866 16.0273 17.1862 16.0273 17.1858C16.0273 17.1854 16.0273 17.1849 16.0273 17.1845C16.0273 17.1841 16.0273 17.1836 16.0273 17.1832C16.0273 17.1828 16.0273 17.1824 16.0273 17.1819C16.0273 17.1815 16.0273 17.1811 16.0273 17.1807C16.0273 17.1802 16.0273 17.1798 16.0273 17.1794C16.0273 17.179 16.0273 17.1785 16.0273 17.1781C16.0273 17.1777 16.0273 17.1773 16.0273 17.1768C16.0273 17.1764 16.0273 17.176 16.0273 17.1756C16.0273 17.1752 16.0273 17.1747 16.0273 17.1743C16.0273 17.1739 16.0273 17.1735 16.0273 17.173C16.0273 17.1726 16.0273 17.1722 16.0273 17.1718C16.0273 17.1713 16.0273 17.1709 16.0273 17.1705C16.0273 17.1701 16.0273 17.1697 16.0273 17.1692C16.0273 17.1688 16.0273 17.1684 16.0273 17.168C16.0273 17.1676 16.0273 17.1671 16.0273 17.1667C16.0273 17.1663 16.0273 17.1659 16.0273 17.1655C16.0273 17.165 16.0273 17.1646 16.0273 17.1642C16.0273 17.1638 16.0273 17.1634 16.0273 17.1629C16.0273 17.1625 16.0273 17.1621 16.0273 17.1617C16.0273 17.1613 16.0273 17.1609 16.0273 17.1604C16.0273 17.16 16.0273 17.1596 16.0273 17.1592C16.0273 17.1588 16.0273 17.1583 16.0273 17.1579C16.0273 17.1575 16.0273 17.1571 16.0273 17.1567C16.0273 17.1563 16.0273 17.1558 16.0273 17.1554C16.0273 17.155 16.0273 17.1546 16.0273 17.1542C16.0273 17.1538 16.0273 17.1533 16.0273 17.1529C16.0273 17.1525 16.0273 17.1521 16.0273 17.1517C16.0273 17.1513 16.0273 17.1509 16.0273 17.1504C16.0273 17.15 16.0273 17.1496 16.0273 17.1492C16.0273 17.1488 16.0273 17.1484 16.0273 17.148C16.0273 17.1475 16.0273 17.1471 16.0273 17.1467C16.0273 17.1463 16.0273 17.1459 16.0273 17.1455C16.0273 17.1451 16.0273 17.1447 16.0273 17.1442C16.0273 17.1438 16.0273 17.1434 16.0273 17.143C16.0273 17.1426 16.0273 17.1422 16.0273 17.1418C16.0273 17.1414 16.0273 17.141 16.0273 17.1405C16.0273 17.1401 16.0273 17.1397 16.0273 17.1393C16.0273 17.1389 16.0273 17.1385 16.0273 17.1381C16.0273 17.1377 16.0273 17.1373 16.0273 17.1368C16.0273 17.1364 16.0273 17.136 16.0273 17.1356C16.0273 17.1352 16.0273 17.1348 16.0273 17.1344C16.0273 17.134 16.0273 17.1336 16.0273 17.1332C16.0273 17.1328 16.0273 17.1324 16.0273 17.1319C16.0273 17.1315 16.0273 17.1311 16.0273 17.1307C16.0273 17.1303 16.0273 17.1299 16.0273 17.1295C16.0273 17.1291 16.0273 17.1287 16.0273 17.1283C16.0273 17.1279 16.0273 17.1275 16.0273 17.1271C16.0273 17.1267 16.0273 17.1263 16.0273 17.1258C16.0273 17.1254 16.0273 17.125 16.0273 17.1246C16.0273 17.1242 16.0273 17.1238 16.0273 17.1234C16.0273 17.123 16.0273 17.1226 16.0273 17.1222C16.0273 17.1218 16.0273 17.1214 16.0273 17.121C16.0273 17.1206 16.0273 17.1202 16.0273 17.1198C16.0273 17.1194 16.0273 17.119 16.0273 17.1186C16.0273 17.1182 16.0273 17.1178 16.0273 17.1174C16.0273 17.117 16.0273 17.1166 16.0273 17.1162C16.0273 17.1158 16.0273 17.1154 16.0273 17.115C16.0273 17.1146 16.0273 17.1142 16.0273 17.1138C16.0273 17.1133 16.0273 17.1129 16.0273 17.1125C16.0273 17.1121 16.0273 17.1117 16.0273 17.1113C16.0273 17.1109 16.0273 17.1105 16.0273 17.1101C16.0273 17.1097 16.0273 17.1093 16.0273 17.109C16.0273 17.1086 16.0273 17.1082 16.0273 17.1078C16.0273 17.1074 16.0273 17.107 16.0273 17.1066C16.0273 17.1062 16.0273 17.1058 16.0273 17.1054C16.0273 17.105 16.0273 17.1046 16.0273 17.1042C16.0273 17.1038 16.0273 17.1034 16.0273 17.103C16.0273 17.1026 16.0273 17.1022 16.0273 17.1018C16.0273 17.1014 16.0273 17.101 16.0273 17.1006C16.0273 17.1002 16.0273 17.0998 16.0273 17.0994C16.0273 17.099 16.0273 17.0986 16.0273 17.0982C16.0273 17.0978 16.0273 17.0974 16.0273 17.097C16.0273 17.0966 16.0273 17.0963 16.0273 17.0959C16.0273 17.0955 16.0273 17.0951 16.0273 17.0947C16.0273 17.0943 16.0273 17.0939 16.0273 17.0935C16.0273 17.0931 16.0273 17.0927 16.0273 17.0923C16.0273 17.0919 16.0273 17.0915 16.0273 17.0911C16.0273 17.0907 16.0273 17.0904 16.0273 17.09C16.0273 17.0896 16.0273 17.0892 16.0273 17.0888C16.0273 17.0884 16.0273 17.088 16.0273 17.0876C16.0273 17.0872 16.0273 17.0868 16.0273 17.0864C16.0273 17.086 16.0273 17.0857 16.0273 17.0853C16.0273 17.0849 16.0273 17.0845 16.0273 17.0841C16.0273 17.0837 16.0273 17.0833 16.0273 17.0829C16.0273 17.0825 16.0273 17.0821 16.0273 17.0818C16.0273 17.0814 16.0273 17.081 16.0273 17.0806C16.0273 17.0802 16.0273 17.0798 16.0273 17.0794C16.0273 17.079 16.0273 17.0787 16.0273 17.0783C16.0273 17.0779 16.0273 17.0775 16.0273 17.0771C16.0273 17.0767 16.0273 17.0763 16.0273 17.0759C16.0273 17.0756 16.0273 17.0752 16.0273 17.0748C16.0273 17.0744 16.0273 17.074 16.0273 17.0736C16.0273 17.0732 16.0273 17.0729 16.0273 17.0725C16.0273 17.0721 16.0273 17.0717 16.0273 17.0713C16.0273 17.0709 16.0273 17.0705 16.0273 17.0702C16.0273 17.0698 16.0273 17.0694 16.0273 17.069C16.0273 17.0686 16.0273 17.0682 16.0273 17.0679C16.0273 17.0675 16.0273 17.0671 16.0273 17.0667C16.0273 17.0663 16.0273 17.0659 16.0273 17.0656C16.0273 17.0652 16.0273 17.0648 16.0273 17.0644C16.0273 17.064 16.0273 17.0636 16.0273 17.0633C16.0273 17.0629 16.0273 17.0625 16.0273 17.0621C16.0273 17.0617 16.0273 17.0614 16.0273 17.061C16.0273 17.0606 16.0273 17.0602 16.0273 17.0598C16.0273 17.0595 16.0273 17.0591 16.0273 17.0587C16.0273 17.0583 16.0273 17.0579 16.0273 17.0576C16.0273 17.0572 16.0273 17.0568 16.0273 17.0564C16.0273 17.056 16.0273 17.0557 16.0273 17.0553C16.0273 17.0549 16.0273 17.0545 16.0273 17.0541C16.0273 17.0538 16.0273 17.0534 16.0273 17.053C16.0273 17.0526 16.0273 17.0523 16.0273 17.0519C16.0273 17.0515 16.0273 17.0511 16.0273 17.0507C16.0273 17.0504 16.0273 17.05 16.0273 17.0496C16.0273 17.0492 16.0273 17.0489 16.0273 17.0485C16.0273 17.0481 16.0273 17.0477 16.0273 17.0474C16.0273 17.047 16.0273 17.0466 16.0273 17.0462C16.0273 17.0459 16.0273 17.0455 16.0273 17.0451C16.0273 17.0447 16.0273 17.0444 16.0273 17.044C16.0273 17.0436 16.0273 17.0432 16.0273 17.0429C16.0273 17.0425 16.0273 17.0421 16.0273 17.0417C16.0273 17.0414 16.0273 17.041 16.0273 17.0406C16.0273 17.0403 16.0273 17.0399 16.0273 17.0395C16.0273 17.0391 16.0273 17.0388 16.0273 17.0384C16.0273 17.038 16.0273 17.0376 16.0273 17.0373C16.0273 17.0369 16.0273 17.0365 16.0273 17.0362C16.0273 17.0358 16.0273 17.0354 16.0273 17.035C16.0273 17.0347 16.0273 17.0343 16.0273 17.0339C16.0273 17.0336 16.0273 17.0332 16.0273 17.0328C16.0273 17.0325 16.0273 17.0321 16.0273 17.0317C16.0273 17.0314 16.0273 17.031 16.0273 17.0306C16.0273 17.0302 16.0273 17.0299 16.0273 17.0295C16.0273 17.0291 16.0273 17.0288 16.0273 17.0284C16.0273 17.028 16.0273 17.0277 16.0273 17.0273C16.0273 17.0269 16.0273 17.0266 16.0273 17.0262C16.0273 17.0258 16.0273 17.0255 16.0273 17.0251C16.0273 17.0247 16.0273 17.0244 16.0273 17.024C16.0273 17.0236 16.0273 17.0233 16.0273 17.0229C16.0273 17.0225 16.0273 17.0222 16.0273 17.0218C16.0273 17.0214 16.0273 17.0211 16.0273 17.0207C16.0273 17.0203 16.0273 17.02 16.0273 17.0196C16.0273 17.0193 16.0273 17.0189 16.0273 17.0185C16.0273 17.0182 16.0273 17.0178 16.0273 17.0174C16.0273 17.0171 16.0273 17.0167 16.0273 17.0163C16.0273 17.016 16.0273 17.0156 16.0273 17.0153C16.0273 17.0149 16.0273 17.0145 16.0273 17.0142C16.0273 17.0138 16.0273 17.0134 16.0273 17.0131C16.0273 17.0127 16.0273 17.0124 16.0273 17.012C16.0273 17.0116 16.0273 17.0113 16.0273 17.0109C16.0273 17.0106 16.0273 17.0102 16.0273 17.0098C16.0273 17.0095 16.0273 17.0091 16.0273 17.0088C16.0273 17.0084 16.0273 17.008 16.0273 17.0077C16.0273 17.0073 16.0273 17.007 16.0273 17.0066C16.0273 17.0062 16.0273 17.0059 16.0273 17.0055C16.0273 17.0052 16.0273 17.0048 16.0273 17.0044C16.0273 17.0041 16.0273 17.0037 16.0273 17.0034C16.0273 17.003 16.0273 17.0027 16.0273 17.0023C16.0273 17.0019 16.0273 17.0016 16.0273 17.0012C16.0273 17.0009 16.0273 17.0005 16.0273 17.0002C16.0273 16.9998 16.0273 16.9994 16.0273 16.9991C16.0273 16.9987 16.0273 16.9984 16.0273 16.998C16.0273 16.9977 16.0273 16.9973 16.0273 16.997C16.0273 16.9966 16.0273 16.9963 16.0273 16.9959C16.0273 16.9955 16.0273 16.9952 16.0273 16.9948C16.0273 16.9945 16.0273 16.9941 16.0273 16.9938C16.0273 16.9934 16.0273 16.9931 16.0273 16.9927C16.0273 16.9924 16.0273 16.992 16.0273 16.9917C16.0273 16.9913 16.0273 16.9909 16.0273 16.9906C16.0273 16.9902 16.0273 16.9899 16.0273 16.9895C16.0273 16.9892 16.0273 16.9888 16.0273 16.9885C16.0273 16.9881 16.0273 16.9878 16.0273 16.9874C16.0273 16.9871 16.0273 16.9867 16.0273 16.9864C16.0273 16.986 16.0273 16.9857 16.0273 16.9853C16.0273 16.985 16.0273 16.9846 16.0273 16.9843C16.0273 16.9839 16.0273 16.9836 16.0273 16.9832C16.0273 16.9829 16.0273 16.9825 16.0273 16.9822C16.0273 16.9818 16.0273 16.9815 16.0273 16.9811C16.0273 16.9808 16.0273 16.9804 16.0273 16.9801C16.0273 16.9797 16.0273 16.9794 16.0273 16.979C16.0273 16.9787 16.0273 16.9784 16.0273 16.978C16.0273 16.9777 16.0273 16.9773 16.0273 16.977C16.0273 16.9766 16.0273 16.9763 16.0273 16.9759C16.0273 16.9756 16.0273 16.9752 16.0273 16.9749C16.0273 16.9745 16.0273 16.9742 16.0273 16.9739C16.0273 16.9735 16.0273 16.9732 16.0273 16.9728C16.0273 16.9725 16.0273 16.9721 16.0273 16.9718C16.0273 16.9714 16.0273 16.9711 16.0273 16.9708C16.0273 16.9704 16.0273 16.9701 16.0273 16.9697C16.0273 16.9694 16.0273 16.969 16.0273 16.9687C16.0273 16.9684 16.0273 16.968 16.0273 16.9677C16.0273 16.9673 16.0273 16.967 16.0273 16.9666C16.0273 16.9663 16.0273 16.966 16.0273 16.9656C16.0273 16.9653 16.0273 16.9649 16.0273 16.9646C16.0273 16.9643 16.0273 16.9639 16.0273 16.9636C16.0273 16.9632 16.0273 16.9629 16.0273 16.9626C16.0273 16.9622 16.0273 16.9619 16.0273 16.9615C16.0273 16.9612 16.0273 16.9608 16.0273 16.9605C16.0273 16.9602 16.0273 16.9598 16.0273 16.9595C16.0273 16.9592 16.0273 16.9588 16.0273 16.9585C16.0273 16.9581 16.0273 16.9578 16.0273 16.9575C16.0273 16.9571 16.0273 16.9568 16.0273 16.9565C16.0273 16.9561 16.0273 16.9558 16.0273 16.9554C16.0273 16.9551 16.0273 16.9548 16.0273 16.9544C16.0273 16.9541 16.0273 16.9538 16.0273 16.9534C16.0273 16.9531 16.0273 16.9527 16.0273 16.9524C16.0273 16.9521 16.0273 16.9517 16.0273 16.9514C16.0273 16.9511 16.0273 16.9507 16.0273 16.9504C16.0273 16.9501 16.0273 16.9497 16.0273 16.9494C16.0273 16.9491 16.0273 16.9487 16.0273 16.9484C16.0273 16.9481 16.0273 16.9477 16.0273 16.9474C16.0273 16.9471 16.0273 16.9467 16.0273 16.9464C16.0273 16.9461 16.0273 16.9457 16.0273 16.9454C16.0273 16.9451 16.0273 16.9447 16.0273 16.9444C16.0273 16.9441 16.0273 16.9437 16.0273 16.9434C16.0273 16.9431 16.0273 16.9427 16.0273 16.9424C16.0273 16.9421 16.0273 16.9417 16.0273 16.9414C16.0273 16.9411 16.0273 16.9408 16.0273 16.9404C16.0273 16.9401 16.0273 16.9398 16.0273 16.9394C16.0273 16.9391 16.0273 16.9388 16.0273 16.9384C16.0273 16.9381 16.0273 16.9378 16.0273 16.9375C16.0273 16.9371 16.0273 16.9368 16.0273 16.9365C16.0273 16.9361 16.0273 16.9358 16.0273 16.9355C16.0273 16.9352 16.0273 16.9348 16.0273 16.9345C16.0273 16.9342 16.0273 16.9338 16.0273 16.9335C16.0273 16.9332 16.0273 16.9329 16.0273 16.9325C16.0273 16.9322 16.0273 16.9319 16.0273 16.9316C16.0273 16.9312 16.0273 16.9309 16.0273 16.9306C16.0273 16.9303 16.0273 16.9299 16.0273 16.9296C16.0273 16.9293 16.0273 16.929 16.0273 16.9286C16.0273 16.9283 16.0273 16.928 16.0273 16.9277C16.0273 16.9273 16.0273 16.927 16.0273 16.9267C16.0273 16.9264 16.0273 16.926 16.0273 16.9257C16.0273 16.9254 16.0273 16.9251 16.0273 16.9247C16.0273 16.9244 16.0273 16.9241 16.0273 16.9238C16.0273 16.9234 16.0273 16.9231 16.0273 16.9228C16.0273 16.9225 16.0273 16.9222 16.0273 16.9218C16.0273 16.9215 16.0273 16.9212 16.0273 16.9209C16.0273 16.9205 16.0273 16.9202 16.0273 16.9199C16.0273 16.9196 16.0273 16.9193 16.0273 16.9189C16.0273 16.9186 16.0273 16.9183 16.0273 16.918C16.0273 16.9177 16.0273 16.9173 16.0273 16.917C16.0273 16.9167 16.0273 16.9164 16.0273 16.9161C16.0273 16.9157 16.0273 16.9154 16.0273 16.9151C16.0273 16.9148 16.0273 16.9145 16.0273 16.9142C16.0273 16.9138 16.0273 16.9135 16.0273 16.9132C16.0273 16.9129 16.0273 16.9126 16.0273 16.9122C16.0273 16.9119 16.0273 16.9116 16.0273 16.9113C16.0273 16.911 16.0273 16.9107 16.0273 16.9103C16.0273 16.91 16.0273 16.9097 16.0273 16.9094C16.0273 16.9091 16.0273 16.9088 16.0273 16.9084C16.0273 16.9081 16.0273 16.9078 16.0273 16.9075C16.0273 16.9072 16.0273 16.9069 16.0273 16.9066C16.0273 16.9062 16.0273 16.9059 16.0273 16.9056C16.0273 16.9053 16.0273 16.905 16.0273 16.9047C16.0273 16.9044 16.0273 16.904 16.0273 16.9037C16.0273 16.9034 16.0273 16.9031 16.0273 16.9028C16.0273 16.9025 16.0273 16.9022 16.0273 16.9019C16.0273 16.9015 16.0273 16.9012 16.0273 16.9009C16.0273 16.9006 16.0273 16.9003 16.0273 16.9C16.0273 16.8997 16.0273 16.8994 16.0273 16.899C16.0273 16.8987 16.0273 16.8984 16.0273 16.8981C16.0273 16.8978 16.0273 16.8975 16.0273 16.8972C16.0273 16.8969 16.0273 16.8966 16.0273 16.8963C16.0273 16.8959 16.0273 16.8956 16.0273 16.8953C16.0273 16.895 16.0273 16.8947 16.0273 16.8944C16.0273 16.8941 16.0273 16.8938 16.0273 16.8935C16.0273 16.8932 16.0273 16.8929 16.0273 16.8925C16.0273 16.8922 16.0273 16.8919 16.0273 16.8916C16.0273 16.8913 16.0273 16.891 16.0273 16.8907C16.0273 16.8904 16.0273 16.8901 16.0273 16.8898C16.0273 16.8895 16.0273 16.8892 16.0273 16.8889C16.0273 16.8886 16.0273 16.8882 16.0273 16.8879C16.0273 16.8876 16.0273 16.8873 16.0273 16.887C16.0273 16.8867 16.0273 16.8864 16.0273 16.8861C16.0273 16.8858 16.0273 16.8855 16.0273 16.8852C16.0273 16.8849 16.0273 16.8846 16.0273 16.8843C16.0273 16.884 16.0273 16.8837 16.0273 16.8834C16.0273 16.8831 16.0273 16.8828 16.0273 16.8825C16.0273 16.8822 16.0273 16.8819 16.0273 16.8816C16.0273 16.8812 16.0273 16.8809 16.0273 16.8806C16.0273 16.8803 16.0273 16.88 16.0273 16.8797C16.0273 16.8794 16.0273 16.8791 16.0273 16.8788C16.0273 16.8785 16.0273 16.8782 16.0273 16.8779C16.0273 16.8776 16.0273 16.8773 16.0273 16.877C16.0273 16.8767 16.0273 16.8764 16.0273 16.8761C16.0273 16.8758 16.0273 16.8755 16.0273 16.8752C16.0273 16.8749 16.0273 16.8746 16.0273 16.8743C16.0273 16.874 16.0273 16.8737 16.0273 16.8734C16.0273 16.8731 16.0273 16.8728 16.0273 16.8725C16.0273 16.8722 16.0273 16.8719 16.0273 16.8716C16.0273 16.8713 16.0273 16.8711 16.0273 16.8708C16.0273 16.8705 16.0273 16.8702 16.0273 16.8699C16.0273 16.8696 16.0273 16.8693 16.0273 16.869C16.0273 16.8687 16.0273 16.8684 16.0273 16.8681C16.0273 16.8678 16.0273 16.8675 16.0273 16.8672C16.0273 16.8669 16.0273 16.8666 16.0273 16.8663C16.0273 16.866 16.0273 16.8657 16.0273 16.8654C16.0273 16.8651 16.0273 16.8648 16.0273 16.8645C16.0273 16.8643 16.0273 16.864 16.0273 16.8637C16.0273 16.8634 16.0273 16.8631 16.0273 16.8628C16.0273 16.8625 16.0273 16.8622 16.0273 16.8619C16.0273 16.8616 16.0273 16.8613 16.0273 16.861C16.0273 16.8607 16.0273 16.8604 16.0273 16.8601C16.0273 16.8599 16.0273 16.8596 16.0273 16.8593C16.0273 16.859 16.0273 16.8587 16.0273 16.8584C16.0273 16.8581 16.0273 16.8578 16.0273 16.8575C16.0273 16.8572 16.0273 16.8569 16.0273 16.8567C16.0273 16.8564 16.0273 16.8561 16.0273 16.8558C16.0273 16.8555 16.0273 16.8552 16.0273 16.8549C16.0273 16.8546 16.0273 16.8543 16.0273 16.854C16.0273 16.8538 16.0273 16.8535 16.0273 16.8532C16.0273 16.8529 16.0273 16.8526 16.0273 16.8523C16.0273 16.852 16.0273 16.8517 16.0273 16.8515C16.0273 16.8512 16.0273 16.8509 16.0273 16.8506C16.0273 16.8503 16.0273 16.85 16.0273 16.8497C16.0273 16.8494 16.0273 16.8492 16.0273 16.8489C16.0273 16.8486 16.0273 16.8483 16.0273 16.848C16.0273 16.8477 16.0273 16.8474 16.0273 16.8472C16.0273 16.8469 16.0273 16.8466 16.0273 16.8463C16.0273 16.846 16.0273 16.8457 16.0273 16.8455C16.0273 16.8452 16.0273 16.8449 16.0273 16.8446C16.0273 16.8443 16.0273 16.844 16.0273 16.8438C16.0273 16.8435 16.0273 16.8432 16.0273 16.8429C16.0273 16.8426 16.0273 16.8423 16.0273 16.8421C16.0273 16.8418 16.0273 16.8415 16.0273 16.8412C16.0273 16.8409 16.0273 16.8406 16.0273 16.8404C16.0273 16.8401 16.0273 16.8398 16.0273 16.8395C16.0273 16.8392 16.0273 16.839 16.0273 16.8387C16.0273 16.8384 16.0273 16.8381 16.0273 16.8378C16.0273 16.8376 16.0273 16.8373 16.0273 16.837C16.0273 16.8367 16.0273 16.8364 16.0273 16.8362C16.0273 16.8359 16.0273 16.8356 16.0273 16.8353C16.0273 16.835 16.0273 16.8348 16.0273 16.8345C16.0273 16.8342 16.0273 16.8339 16.0273 16.8336C16.0273 16.8334 16.0273 16.8331 16.0273 16.8328C16.0273 16.8325 16.0273 16.8323 16.0273 16.832C16.0273 16.8317 16.0273 16.8314 16.0273 16.8312C16.0273 16.8309 16.0273 16.8306 16.0273 16.8303C16.0273 16.83 16.0273 16.8298 16.0273 16.8295C16.0273 16.8292 16.0273 16.8289 16.0273 16.8287C16.0273 16.8284 16.0273 16.8281 16.0273 16.8278C16.0273 16.8276 16.0273 16.8273 16.0273 16.827C16.0273 16.8267 16.0273 16.8265 16.0273 16.8262C16.0273 16.8259 16.0273 16.8256 16.0273 16.8254C16.0273 16.8251 16.0273 16.8248 16.0273 16.8246C16.0273 16.8243 16.0273 16.824 16.0273 16.8237C16.0273 16.8235 16.0273 16.8232 16.0273 16.8229C16.0273 16.8226 16.0273 16.8224 16.0273 16.8221C16.0273 16.8218 16.0273 16.8216 16.0273 16.8213C16.0273 16.821 16.0273 16.8207 16.0273 16.8205C16.0273 16.8202 16.0273 16.8199 16.0273 16.8197C16.0273 16.8194 16.0273 16.8191 16.0273 16.8188C16.0273 16.8186 16.0273 16.8183 16.0273 16.818C16.0273 16.8178 16.0273 16.8175 16.0273 16.8172C16.0273 16.817 16.0273 16.8167 16.0273 16.8164C16.0273 16.8162 16.0273 16.8159 16.0273 16.8156C16.0273 16.8153 16.0273 16.8151 16.0273 16.8148C16.0273 16.8145 16.0273 16.8143 16.0273 16.814C16.0273 16.8137 16.0273 16.8135 16.0273 16.8132C16.0273 16.8129 16.0273 16.8127 16.0273 16.8124C16.0273 16.8121 16.0273 16.8119 16.0273 16.8116C16.0273 16.8113 16.0273 16.8111 16.0273 16.8108C16.0273 16.8105 16.0273 16.8103 16.0273 16.81C16.0273 16.8098 16.0273 16.8095 16.0273 16.8092C16.0273 16.809 16.0273 16.8087 16.0273 16.8084C16.0273 16.8082 16.0273 16.8079 16.0273 16.8076C16.0273 16.8074 16.0273 16.8071 16.0273 16.8068C16.0273 16.8066 16.0273 16.8063 16.0273 16.8061C16.0273 16.8058 16.0273 16.8055 16.0273 16.8053C16.0273 16.805 16.0273 16.8047 16.0273 16.8045C16.0273 16.8042 16.0273 16.804 16.0273 16.8037C16.0273 16.8034 16.0273 16.8032 16.0273 16.8029C16.0273 16.8027 16.0273 16.8024 16.0273 16.8021C16.0273 16.8019 16.0273 16.8016 16.0273 16.8013C16.0273 16.8011 16.0273 16.8008 16.0273 16.8006C16.0273 16.8003 16.0273 16.8001 16.0273 16.7998C16.0273 16.7995 16.0273 16.7993 16.0273 16.799C16.0273 16.7988 16.0273 16.7985 16.0273 16.7982C16.0273 16.798 16.0273 16.7977 16.0273 16.7975C16.0273 16.7972 16.0273 16.797 16.0273 16.7967C16.0273 16.7964 16.0273 16.7962 16.0273 16.7959C16.0273 16.7957 16.0273 16.7954 16.0273 16.7952C16.0273 16.7949 16.0273 16.7946 16.0273 16.7944C16.0273 16.7941 16.0273 16.7939 16.0273 16.7936C16.0273 16.7934 16.0273 16.7931 16.0273 16.7928C16.0273 16.7926 16.0273 16.7923 16.0273 16.7921C16.0273 16.7918 16.0273 16.7916 16.0273 16.7913C16.0273 16.7911 16.0273 16.7908 16.0273 16.7906C16.0273 16.7903 16.0273 16.79 16.0273 16.7898C16.0273 16.7895 16.0273 16.7893 16.0273 16.789C16.0273 16.7888 16.0273 16.7885 16.0273 16.7883C16.0273 16.788 16.0273 16.7878 16.0273 16.7875C16.0273 16.7873 16.0273 16.787 16.0273 16.7868C16.0273 16.7865 16.0273 16.7863 16.0273 16.786C16.0273 16.7858 16.0273 16.7855 16.0273 16.7853C16.0273 16.785 16.0273 16.7848 16.0273 16.7845C16.0273 16.7843 16.0273 16.784 16.0273 16.7838C16.0273 16.7835 16.0273 16.7833 16.0273 16.783C16.0273 16.7828 16.0273 16.7825 16.0273 16.7823C16.0273 16.782 16.0273 16.7818 16.0273 16.7815C16.0273 16.7813 16.0273 16.781 16.0273 16.7808C16.0273 16.7805 16.0273 16.7803 16.0273 16.78C16.0273 16.7798 16.0273 16.7795 16.0273 16.7793C16.0273 16.779 16.0273 16.7788 16.0273 16.7785C16.0273 16.7783 16.0273 16.778 16.0273 16.7778C16.0273 16.7776 16.0273 16.7773 16.0273 16.7771C16.0273 16.7768 16.0273 16.7766 16.0273 16.7763C16.0273 16.7761 16.0273 16.7758 16.0273 16.7756C16.0273 16.7753 16.0273 16.7751 16.0273 16.7749C16.0273 16.7746 16.0273 16.7744 16.0273 16.7741C16.0273 16.7739 16.0273 16.7736 16.0273 16.7734C16.0273 16.7731 16.0273 16.7729 16.0273 16.7727C16.0273 16.7724 16.0273 16.7722 16.0273 16.7719C16.0273 16.7717 16.0273 16.7714 16.0273 16.7712C16.0273 16.771 16.0273 16.7707 16.0273 16.7705C16.0273 16.7702 16.0273 16.77 16.0273 16.7698C16.0273 16.7695 16.0273 16.7693 16.0273 16.769C16.0273 16.7688 16.0273 16.7685 16.0273 16.7683C16.0273 16.7681 16.0273 16.7678 16.0273 16.7676C16.0273 16.7673 16.0273 16.7671 16.0273 16.7669C16.0273 16.7666 16.0273 16.7664 16.0273 16.7661C16.0273 16.7659 16.0273 16.7657 16.0273 16.7654C16.0273 16.7652 16.0273 16.765 16.0273 16.7647C16.0273 16.7645 16.0273 16.7642 16.0273 16.764C16.0273 16.7638 16.0273 16.7635 16.0273 16.7633C16.0273 16.7631 16.0273 16.7628 16.0273 16.7626C16.0273 16.7623 16.0273 16.7621 16.0273 16.7619C16.0273 16.7616 16.0273 16.7614 16.0273 16.7612C16.0273 16.7609 16.0273 16.7607 16.0273 16.7605C16.0273 16.7602 16.0273 16.76 16.0273 16.7597C16.0273 16.7595 16.0273 16.7593 16.0273 16.759C16.0273 16.7588 16.0273 16.7586 16.0273 16.7583C16.0273 16.7581 16.0273 16.7579 16.0273 16.7576C16.0273 16.7574 16.0273 16.7572 16.0273 16.7569C16.0273 16.7567 16.0273 16.7565 16.0273 16.7562C16.0273 16.756 16.0273 16.7558 16.0273 16.7555C16.0273 16.7553 16.0273 16.7551 16.0273 16.7548C16.0273 16.7546 16.0273 16.7544 16.0273 16.7541C16.0273 16.7539 16.0273 16.7537 16.0273 16.7534C16.0273 16.7532 16.0273 16.753 16.0273 16.7528C16.0273 16.7525 16.0273 16.7523 16.0273 16.7521C16.0273 16.7518 16.0273 16.7516 16.0273 16.7514C16.0273 16.7511 16.0273 16.7509 16.0273 16.7507C16.0273 16.7505 16.0273 16.7502 16.0273 16.75H14.0273ZM14.0273 17.2773C14.0273 17.5941 14.0964 17.9513 14.3163 18.2727C14.5424 18.6032 14.8626 18.8003 15.1903 18.9011L15.7785 16.9895C15.8014 16.9966 15.8931 17.0355 15.9669 17.1433C16.0345 17.2421 16.0273 17.3121 16.0273 17.2773H14.0273ZM15.2748 18.9231C15.6924 19.0126 16.3902 19.0733 17.2964 19.1198L17.3989 17.1224C16.477 17.0751 15.9326 17.0187 15.6939 16.9675L15.2748 18.9231ZM17.301 19.12C20.646 19.2761 23.3785 20.2292 25.5558 21.9322L26.788 20.3569C24.2309 18.3567 21.0806 17.2942 17.3943 17.1222L17.301 19.12ZM25.5595 21.9351C27.8209 23.6865 29.5084 25.8392 30.6353 28.4025L32.4662 27.5975C31.2025 24.7233 29.3041 22.3056 26.7842 20.3539L25.5595 21.9351ZM30.6366 28.4054C31.7812 30.9864 32.3438 33.5324 32.3438 36.0508H34.3438C34.3438 33.2254 33.7109 30.4043 32.4649 27.5946L30.6366 28.4054ZM32.3438 36.0508C32.3438 39.2495 31.6182 41.843 30.2305 43.8925L31.8866 45.0138C33.5459 42.5632 34.3438 39.5552 34.3438 36.0508H32.3438ZM30.2333 43.8884C28.8128 45.9645 26.9624 47.5213 24.6663 48.571L25.4978 50.3899C28.1235 49.1896 30.2575 47.3949 31.8839 45.0178L30.2333 43.8884ZM24.6663 48.571C22.3421 49.6335 19.8362 50.168 17.1367 50.168V52.168C20.1091 52.168 22.9001 51.5775 25.4978 50.3899L24.6663 48.571Z" fill="black" mask="url(#path-1-outside-1_2120_736)"/>
</svg>
