<svg width="82" height="35" viewBox="0 0 82 35" fill="none" xmlns="http://www.w3.org/2000/svg">
<path d="M10.4531 34.9922H9.63281C8.02344 34.9922 6.53125 34.8828 5.15625 34.6641C3.79688 34.4453 2.67188 33.8672 1.78125 32.9297C0.890625 31.9922 0.375 30.4922 0.234375 28.4297C0.078125 25.8047 0 23.0391 0 20.1328C0 14.5703 0.25 9.45312 0.75 4.78125C0.953125 3.73437 1.66406 2.94531 2.88281 2.41406C4.11719 1.86719 5.4375 1.5 6.84375 1.3125C8.14062 1.14063 9.14062 1.05469 9.84375 1.05469H10.0078C13.4297 1.05469 16.1406 1.89844 18.1406 3.58594C20.0469 5.21094 21 7.15625 21 9.42188C21 10.5156 20.7422 11.6406 20.2266 12.7969C19.7109 13.9531 18.9062 15.0781 17.8125 16.1719C19.7031 17.0625 21.1172 18.2734 22.0547 19.8047C22.9922 21.3203 23.4609 22.9453 23.4609 24.6797C23.4141 27.1797 22.7734 29.1875 21.5391 30.7031C20.3047 32.2188 18.6875 33.3203 16.6875 34.0078C14.75 34.6641 12.6719 34.9922 10.4531 34.9922ZM10.125 27.0938C10.9844 27.0938 11.8203 26.7734 12.6328 26.1328C13.4609 25.4922 13.875 24.7891 13.875 24.0234C13.875 23.3359 13.5078 22.7578 12.7734 22.2891C12.0547 21.8203 11.2734 21.5859 10.4297 21.5859C9.77344 21.5859 9.17188 21.7734 8.625 22.1484C8.09375 22.5078 7.82812 23.1328 7.82812 24.0234C7.84375 25.1172 8.03906 25.9062 8.41406 26.3906C8.80469 26.8594 9.375 27.0938 10.125 27.0938ZM9.98438 14.8359C10.7188 14.8359 11.4609 14.3906 12.2109 13.5C12.9766 12.5938 13.3828 11.625 13.4297 10.5938C13.4141 9.98438 13.1797 9.5 12.7266 9.14062C12.2734 8.78125 11.7656 8.60156 11.2031 8.60156C10.4844 8.60156 9.86719 8.89062 9.35156 9.46875C8.83594 10.0469 8.57031 10.9766 8.55469 12.2578C8.57031 13.1797 8.71094 13.8438 8.97656 14.25C9.25781 14.6406 9.59375 14.8359 9.98438 14.8359ZM30.0703 7.24219C28.8672 7.24219 27.875 7.07812 27.0938 6.75C26.3125 6.42188 25.7266 6 25.3359 5.48438C24.9609 4.96875 24.7734 4.42188 24.7734 3.84375C24.7734 2.90625 25.2422 2.04687 26.1797 1.26562C27.1328 0.46875 28.4922 0.046875 30.2578 0C32.0391 0.046875 33.4141 0.460938 34.3828 1.24219C35.3672 2.02344 35.8594 2.88281 35.8594 3.82031C35.8594 4.39844 35.6562 4.95312 35.25 5.48438C34.8438 6 34.2109 6.42188 33.3516 6.75C32.4922 7.07812 31.3984 7.24219 30.0703 7.24219ZM29.7422 34.875C28.9766 34.875 28.3203 34.7812 27.7734 34.5938C27.2266 34.3906 26.9141 34.0625 26.8359 33.6094C26.4297 30.6719 26.0938 27.4062 25.8281 23.8125C25.5625 20.2031 25.4297 16.7891 25.4297 13.5703V11.5078C25.4297 10.9609 25.6719 10.5078 26.1562 10.1484C26.6562 9.78906 27.2891 9.52344 28.0547 9.35156C28.8359 9.16406 29.6406 9.07031 30.4688 9.07031C31.2656 9.07031 32.0234 9.15625 32.7422 9.32812C33.4766 9.48438 34.0703 9.72656 34.5234 10.0547C34.9766 10.3828 35.2031 10.7891 35.2031 11.2734C35.2031 12.7266 35.1875 14.5312 35.1562 16.6875C35.1094 19.4062 35.0859 22.1953 35.0859 25.0547C35.0859 26.6797 35.1094 28.1875 35.1562 29.5781C35.1875 30.7188 35.2031 31.7969 35.2031 32.8125C35.2031 33.1875 34.9141 33.5312 34.3359 33.8438C33.7578 34.1562 33.0469 34.4062 32.2031 34.5938C31.3594 34.7812 30.5391 34.875 29.7422 34.875ZM43.7578 33.7266C42.3828 33.7266 41.5625 33.4141 41.2969 32.7891C40.3125 30.1016 39.5469 26.4375 39 21.7969C38.4688 17.1562 38.2031 12.9531 38.2031 9.1875C38.2031 7.54688 38.2578 6.10938 38.3672 4.875C38.5078 3.90625 39.0859 3.1875 40.1016 2.71875C41.1328 2.23437 42.2344 1.99219 43.4062 1.99219C44.2812 1.99219 45.0781 2.125 45.7969 2.39062C46.5312 2.64063 47.0312 3.03125 47.2969 3.5625L47.3906 3.77344C47.4844 3.99219 47.5547 4.10156 47.6016 4.10156C47.6328 4.10156 47.6797 4.04688 47.7422 3.9375C47.8203 3.82812 47.9688 3.67188 48.1875 3.46875C48.4062 3.25 48.7344 3.00781 49.1719 2.74219C50.3125 2.10156 51.4766 1.78125 52.6641 1.78125C55.2266 1.78125 57.9062 3.125 60.7031 5.8125C61.5625 6.64062 61.9922 7.63281 61.9922 8.78906C61.9922 9.77344 61.7031 10.7266 61.125 11.6484C60.5469 12.5703 59.8125 13.3281 58.9219 13.9219C58.0312 14.5156 57.1094 14.8125 56.1562 14.8125C55.1406 14.8125 54.2422 14.4297 53.4609 13.6641C52.1953 12.3516 51.1641 11.6953 50.3672 11.6953C49.6953 11.6953 49.2266 12.1797 48.9609 13.1484C48.6953 14.1172 48.5625 15.6406 48.5625 17.7188C48.5625 19.9688 48.6797 21.8906 48.9141 23.4844C49.1484 25.0781 49.3906 26.4531 49.6406 27.6094C49.7812 28.3281 49.8984 28.9922 49.9922 29.6016C50.1016 30.1953 50.1562 30.7578 50.1562 31.2891C50.1562 31.6797 49.8047 32.0625 49.1016 32.4375C48.3984 32.8125 47.5469 33.125 46.5469 33.375C45.5625 33.6094 44.6328 33.7266 43.7578 33.7266ZM73.5234 34.6875C72.4141 34.6875 71.375 34.6484 70.4062 34.5703C69.4375 34.4766 68.7344 34.3828 68.2969 34.2891C64.8906 33.4297 62.2969 31.8516 60.5156 29.5547C58.75 27.2422 57.8672 24.7266 57.8672 22.0078C57.8672 20.0547 58.3516 18.1406 59.3203 16.2656C60.3047 14.3906 61.8047 12.7656 63.8203 11.3906C65.8359 10 68.3906 9.02344 71.4844 8.46094C71.5312 6.53906 71.5938 4.88281 71.6719 3.49219C71.7656 2.75781 72.2422 2.20312 73.1016 1.82812C73.9609 1.4375 74.9297 1.24219 76.0078 1.24219C77.1172 1.24219 78.1406 1.46094 79.0781 1.89844C80.0312 2.32031 80.5938 2.98437 80.7656 3.89062C81.0938 6.4375 81.2578 9.59375 81.2578 13.3594C81.2578 17.0312 81.0938 20.75 80.7656 24.5156C80.4375 28.2656 79.9297 31.2188 79.2422 33.375C79.0234 33.875 78.3516 34.2188 77.2266 34.4062C76.1016 34.5938 74.8672 34.6875 73.5234 34.6875ZM69.8906 25.8516C70.3281 25.8516 70.6562 25.375 70.875 24.4219C71.1094 23.4688 71.2266 22.4531 71.2266 21.375C71.2266 20.4219 71.1406 19.6016 70.9688 18.9141C70.7969 18.2266 70.5312 17.8672 70.1719 17.8359C69.6562 17.8359 69.2188 18.0469 68.8594 18.4688C68.5 18.8906 68.2188 19.4375 68.0156 20.1094C67.8281 20.7656 67.7344 21.4453 67.7344 22.1484C67.7344 23.0078 67.8984 23.7969 68.2266 24.5156C68.5547 25.2344 69.0781 25.6797 69.7969 25.8516H69.8906Z" fill="black"/>
</svg>
