<svg width="74" height="35" viewBox="0 0 74 35" fill="none" xmlns="http://www.w3.org/2000/svg">
<path d="M12.0938 34.1016C10.0938 34.1016 8.33594 33.6172 6.82031 32.6484C5.30469 31.6641 4.03906 30.3594 3.02344 28.7344C2.02344 27.0938 1.26562 25.2578 0.75 23.2266C0.25 21.1797 0 19.1016 0 16.9922C0 14.9609 0.234375 12.9844 0.703125 11.0625C1.17188 9.14062 1.875 7.42188 2.8125 5.90625C3.76562 4.375 4.95312 3.16406 6.375 2.27344C7.79688 1.36719 9.45312 0.914062 11.3438 0.914062C13.4531 0.914062 15.25 1.4375 16.7344 2.48438C18.2344 3.53125 19.3828 4.89844 20.1797 6.58594C20.9766 8.25781 21.3828 10.0703 21.3984 12.0234C21.3984 12.6328 20.8984 13.1328 19.8984 13.5234C18.9141 13.8984 17.8672 14.0859 16.7578 14.0859C15.8203 14.0859 14.9766 13.9219 14.2266 13.5938C13.4766 13.25 13.0469 12.6875 12.9375 11.9062C12.9062 11.5156 12.8359 11.125 12.7266 10.7344C12.6172 10.3281 12.4531 9.99219 12.2344 9.72656C12.0156 9.44531 11.7188 9.30469 11.3438 9.30469C10.7344 9.30469 10.2188 9.67188 9.79688 10.4062C9.39062 11.1406 9.07812 12.0938 8.85938 13.2656C8.65625 14.4219 8.55469 15.6562 8.55469 16.9688C8.55469 18.3906 8.67969 19.7734 8.92969 21.1172C9.19531 22.4453 9.58594 23.5469 10.1016 24.4219C10.6328 25.2812 11.2969 25.7109 12.0938 25.7109C12.5312 25.7109 12.9219 25.4453 13.2656 24.9141C13.6094 24.3828 13.8906 23.7656 14.1094 23.0625C14.3438 22.3594 14.4922 21.7188 14.5547 21.1406C14.6172 20.75 14.9141 20.4609 15.4453 20.2734C15.9922 20.0859 16.6406 19.9922 17.3906 19.9922C18.1562 19.9922 18.9531 20.0938 19.7812 20.2969C20.625 20.5 21.3359 20.8047 21.9141 21.2109C22.4922 21.6172 22.7812 22.1172 22.7812 22.7109C22.7188 24.1484 22.4141 25.6094 21.8672 27.0938C21.3828 28.4375 20.6953 29.6328 19.8047 30.6797C17.8984 32.9609 15.3281 34.1016 12.0938 34.1016ZM42.8203 33.8438C41.9609 33.8438 41.1016 33.7266 40.2422 33.4922C39.3984 33.2422 38.7422 32.8516 38.2734 32.3203C36.3516 32.9297 34.625 33.2344 33.0938 33.2344C31.1094 33.2344 29.4688 32.8125 28.1719 31.9688C26.8906 31.1094 25.9297 30.0078 25.2891 28.6641C24.6641 27.3203 24.3516 25.9141 24.3516 24.4453C24.3516 22.9141 24.6719 21.4453 25.3125 20.0391C25.9688 18.6172 26.9219 17.4609 28.1719 16.5703C29.4375 15.6641 30.9844 15.2109 32.8125 15.2109C33.7812 15.2109 34.8125 15.3594 35.9062 15.6562C36.7344 15.9062 37.3594 16.1328 37.7812 16.3359C38.2188 16.5234 38.5312 16.6172 38.7188 16.6172C38.9375 16.6172 39.0469 16.4062 39.0469 15.9844C39.0469 15.5938 39.0312 15 39 14.2031L38.9531 13.1016C38.875 11.3828 38.6953 10.1641 38.4141 9.44531C38.1484 8.72656 37.8438 8.36719 37.5 8.36719C37.0938 8.36719 36.7031 8.74219 36.3281 9.49219C35.9688 10.2266 35.7422 11.1172 35.6484 12.1641C35.5703 12.7266 35.2031 13.1641 34.5469 13.4766C33.8906 13.7734 33.125 13.9219 32.25 13.9219C31.4688 13.9219 30.6875 13.7891 29.9062 13.5234C29.125 13.2578 28.4688 12.8438 27.9375 12.2812C27.4219 11.7031 27.1641 10.9609 27.1641 10.0547C27.2109 8.17969 27.6953 6.60156 28.6172 5.32031C29.5391 4.02344 30.75 3.04688 32.25 2.39062C33.7656 1.71875 35.3984 1.38281 37.1484 1.38281C38.4766 1.38281 39.7812 1.60156 41.0625 2.03906C42.3438 2.46094 43.5 3.10938 44.5312 3.98438C45.5625 4.85938 46.3828 5.96875 46.9922 7.3125C47.6172 8.64062 47.9297 10.2188 47.9297 12.0469C47.9297 15.9062 47.75 19.7109 47.3906 23.4609C47.0469 27.1953 46.5391 30.3047 45.8672 32.7891C45.7578 33.1328 45.4141 33.3984 44.8359 33.5859C44.2578 33.7578 43.5859 33.8438 42.8203 33.8438ZM33.2812 26.3203C33.9688 26.3203 34.7422 26.1484 35.6016 25.8047C36.4766 25.4609 37.2344 25.0234 37.875 24.4922C38.5156 23.9453 38.8359 23.375 38.8359 22.7812C38.8359 22.4375 38.6875 22.1562 38.3906 21.9375C38.1094 21.7031 37.6797 21.5859 37.1016 21.5859C36.2109 21.5859 34.9688 21.9453 33.375 22.6641C32.8281 22.9453 32.4062 23.2969 32.1094 23.7188C31.8281 24.125 31.6875 24.5234 31.6875 24.9141C31.6875 25.2734 31.8203 25.6016 32.0859 25.8984C32.3516 26.1797 32.75 26.3203 33.2812 26.3203ZM64.0547 34.3828C62.9453 34.3828 61.7969 34.1406 60.6094 33.6562C59.4375 33.1562 58.3516 32.4062 57.3516 31.4062C56.3516 30.4062 55.5391 29.1641 54.9141 27.6797C54.2891 26.1797 53.9766 24.4297 53.9766 22.4297V17.3203C53.9766 16.8984 53.9297 16.6094 53.8359 16.4531C53.7578 16.2969 53.5859 16.2188 53.3203 16.2188C53.1172 16.2188 52.875 16.2656 52.5938 16.3594C52.3906 16.4062 52.1562 16.4609 51.8906 16.5234C51.625 16.5703 51.3203 16.5938 50.9766 16.5938C50.6484 16.5938 50.3359 16.2422 50.0391 15.5391C49.7578 14.8203 49.6172 14.1016 49.6172 13.3828C49.6172 12.3359 49.9219 11.7188 50.5312 11.5312C51.0156 11.375 51.6797 11.2422 52.5234 11.1328L52.8047 11.0859C53.3672 11.0234 53.7734 10.9453 54.0234 10.8516C54.2891 10.7578 54.4688 10.5703 54.5625 10.2891C54.6562 10.0078 54.7422 9.4375 54.8203 8.57812C55.1953 5.5625 55.6719 3.07031 56.25 1.10156C56.375 0.742188 56.75 0.46875 57.375 0.28125C58 0.09375 58.7188 0 59.5312 0C60.3594 0 61.1953 0.109375 62.0391 0.328125C62.8828 0.53125 63.5859 0.851562 64.1484 1.28906C64.7109 1.72656 64.9922 2.29688 64.9922 3L64.9688 3.39844C64.75 4.80469 64.5234 6.52344 64.2891 8.55469C64.2422 8.96094 64.2188 9.29688 64.2188 9.5625C64.2188 10.1094 64.3203 10.4297 64.5234 10.5234C64.7422 10.6172 65.0703 10.6641 65.5078 10.6641H66C66.5625 10.6641 67.2812 10.7266 68.1562 10.8516C68.6719 10.9766 69.0469 11.3203 69.2812 11.8828C69.5312 12.4297 69.6562 13.0312 69.6562 13.6875C69.6562 14.375 69.5312 15.0078 69.2812 15.5859C69.0469 16.1641 68.7031 16.4531 68.25 16.4531H65.0391C64.2422 16.4531 63.75 16.6016 63.5625 16.8984C63.3906 17.1953 63.3047 17.7969 63.3047 18.7031C63.3047 21.3438 63.3438 23.3906 63.4219 24.8438C63.5156 26.2969 63.8281 27.0234 64.3594 27.0234C64.6719 27.0234 64.9531 26.7266 65.2031 26.1328C65.4688 25.5391 65.6016 24.7656 65.6016 23.8125C65.6016 23.1719 65.9531 22.6953 66.6562 22.3828C67.375 22.0547 68.1797 21.8906 69.0703 21.8906C69.7578 21.8906 70.4219 21.9844 71.0625 22.1719C71.7031 22.3438 72.2344 22.6094 72.6562 22.9688C73.0781 23.3281 73.2891 23.7734 73.2891 24.3047C73.2891 25.3984 73.0938 26.5391 72.7031 27.7266C72.3125 28.8984 71.7266 29.9922 70.9453 31.0078C70.1797 32.0078 69.2188 32.8203 68.0625 33.4453C66.9219 34.0703 65.5859 34.3828 64.0547 34.3828Z" fill="black"/>
</svg>
