<svg width="209" height="183" viewBox="0 0 209 183" fill="none" xmlns="http://www.w3.org/2000/svg">
<g clip-path="url(#clip0_2085_697)">
<path fill-rule="evenodd" clip-rule="evenodd" d="M57.6543 187.214L193.959 177.683L194.937 191.663L58.6319 201.194L57.6543 187.214Z" fill="#5EA7FF"/>
<path fill-rule="evenodd" clip-rule="evenodd" d="M183.719 181.911C212.673 179.887 234.503 154.774 232.479 125.82C230.454 96.8669 205.341 75.0367 176.388 77.0613C168.801 77.5918 161.704 79.7074 155.396 83.0619C150.603 57.129 126.993 38.3702 100.06 40.2535C71.1062 42.2782 49.276 67.3909 51.3006 96.3445C51.5521 99.9398 52.1595 103.425 53.086 106.769C52.736 106.785 52.3853 106.805 52.0338 106.83C28.871 108.449 11.4068 128.539 13.0265 151.702C14.6462 174.865 34.7365 192.329 57.8993 190.71L183.719 181.911Z" fill="#F0F2FF"/>
<path d="M177.365 91.0411C198.597 89.5564 217.013 105.565 218.498 126.798" stroke="white" stroke-width="2" stroke-linecap="round"/>
</g>
<defs>
<clipPath id="clip0_2085_697">
<rect width="224.226" height="224.226" fill="white" transform="translate(0 15.6414) rotate(-4)"/>
</clipPath>
</defs>
</svg>
