<svg width="209" height="183" viewBox="0 0 209 183" fill="none" xmlns="http://www.w3.org/2000/svg">
<g clip-path="url(#clip0_2085_735)">
<path fill-rule="evenodd" clip-rule="evenodd" d="M57.6543 187.214L193.959 177.683L194.937 191.663L58.6319 201.194L57.6543 187.214Z" fill="#5EA7FF"/>
<path fill-rule="evenodd" clip-rule="evenodd" d="M183.719 181.911C212.672 179.887 234.503 154.774 232.478 125.82C230.453 96.8669 205.341 75.0367 176.387 77.0613C168.801 77.5918 161.703 79.7074 155.396 83.0619C150.603 57.129 126.993 38.3702 100.059 40.2535C71.1057 42.2782 49.2755 67.3909 51.3002 96.3445C51.5516 99.9398 52.159 103.425 53.0856 106.769C52.7356 106.785 52.3848 106.805 52.0333 106.83C28.8705 108.449 11.4063 128.539 13.026 151.702C14.6457 174.865 34.736 192.329 57.8988 190.71L183.719 181.911Z" fill="#F0F2FF"/>
<path d="M100.606 82.0776L70.2939 82.0776C68.6198 82.0776 67.2627 83.4348 67.2627 85.1089L67.2627 115.421C67.2627 117.096 68.6198 118.453 70.2939 118.453L100.606 118.453C102.281 118.453 103.638 117.096 103.638 115.421L103.638 85.1089C103.638 83.4348 102.281 82.0776 100.606 82.0776Z" fill="#ECECEC"/>
<path d="M100.606 124.515L70.2939 124.515C68.6198 124.515 67.2627 125.872 67.2627 127.546L67.2627 157.859C67.2627 159.533 68.6198 160.89 70.2939 160.89L100.606 160.89C102.281 160.89 103.638 159.533 103.638 157.859L103.638 127.546C103.638 125.872 102.281 124.515 100.606 124.515Z" fill="#ECECEC"/>
<path d="M143.044 82.0776L112.731 82.0776C111.057 82.0776 109.7 83.4348 109.7 85.1089L109.7 115.421C109.7 117.096 111.057 118.453 112.731 118.453L143.044 118.453C144.718 118.453 146.075 117.096 146.075 115.421L146.075 85.1089C146.075 83.4348 144.718 82.0776 143.044 82.0776Z" fill="#ECECEC"/>
<path d="M143.044 124.515L112.731 124.515C111.057 124.515 109.7 125.872 109.7 127.546L109.7 157.859C109.7 159.533 111.057 160.89 112.731 160.89L143.044 160.89C144.718 160.89 146.075 159.533 146.075 157.859L146.075 127.546C146.075 125.872 144.718 124.515 143.044 124.515Z" fill="#ECECEC"/>
<path d="M85.4502 109.359C90.4725 109.359 94.5439 105.287 94.5439 100.265C94.5439 95.2428 90.4725 91.1714 85.4502 91.1714C80.4279 91.1714 76.3564 95.2428 76.3564 100.265C76.3564 105.287 80.4279 109.359 85.4502 109.359Z" fill="#ED9111"/>
<path fill-rule="evenodd" clip-rule="evenodd" d="M127.888 89.5481L138.605 100.265L127.888 110.982L117.171 100.265L127.888 89.5481Z" fill="#22BA8E"/>
<path fill-rule="evenodd" clip-rule="evenodd" d="M85.4498 148.765L78.3234 152.512L79.6844 144.576L73.9189 138.956L81.8866 137.798L85.4498 130.578L89.0131 137.798L96.9807 138.956L91.2153 144.576L92.5763 152.512L85.4498 148.765Z" fill="#E43535"/>
<path fill-rule="evenodd" clip-rule="evenodd" d="M127.888 133.609L138.497 151.796L117.278 151.796L127.888 133.609Z" fill="#5B68C0"/>
<path d="M177.365 91.0411C198.598 89.5564 217.014 105.565 218.498 126.798" stroke="white" stroke-width="2" stroke-linecap="round"/>
</g>
<defs>
<clipPath id="clip0_2085_735">
<rect width="224.226" height="224.226" fill="white" transform="translate(0 15.6414) rotate(-4)"/>
</clipPath>
</defs>
</svg>
