<svg width="74" height="34" viewBox="0 0 74 34" fill="none" xmlns="http://www.w3.org/2000/svg">
<path d="M7.99219 33.6562C6.44531 33.6562 4.96875 33.4141 3.5625 32.9297C2.65625 32.6016 1.98438 32.0312 1.54688 31.2188C1.125 30.3906 0.84375 29.1953 0.703125 27.6328C0.234375 22.5078 0 17.3906 0 12.2812C0 9.20312 0.0859375 6.44531 0.257812 4.00781C0.398438 3.00781 0.960938 2.24219 1.94531 1.71094C2.94531 1.17969 4.04688 0.820312 5.25 0.632812C6.375 0.445312 7.28906 0.351562 7.99219 0.351562H8.15625C11.1094 0.414063 13.6406 1.32813 15.75 3.09375C17.875 4.84375 19.5 7.10156 20.625 9.86719C21.7656 12.6172 22.3359 15.4531 22.3359 18.375C22.3359 20.4062 22.0391 22.3672 21.4453 24.2578C20.8516 26.1328 19.9375 27.7969 18.7031 29.25C17.4688 30.6875 15.8828 31.7969 13.9453 32.5781C12.0703 33.2969 10.0859 33.6562 7.99219 33.6562ZM10.3828 24.75C11.3047 24.6562 11.9844 23.8984 12.4219 22.4766C12.8594 21.0391 13.0781 19.4141 13.0781 17.6016C13.0781 16.2422 12.9531 14.8984 12.7031 13.5703C12.4688 12.2422 12.1172 11.1484 11.6484 10.2891C11.1797 9.41406 10.6016 8.96094 9.91406 8.92969C9.39844 8.99219 9.01562 9.71094 8.76562 11.0859C8.53125 12.4453 8.41406 14.0156 8.41406 15.7969C8.41406 17.2188 8.48438 18.6172 8.625 19.9922C8.78125 21.3672 9 22.5078 9.28125 23.4141C9.57812 24.3047 9.9375 24.75 10.3594 24.75H10.3828ZM36.2344 33.9141C34.1875 33.9141 32.4062 33.4531 30.8906 32.5312C29.375 31.6094 28.1172 30.3672 27.1172 28.8047C26.1172 27.2422 25.3672 25.4844 24.8672 23.5312C24.3828 21.5781 24.1406 19.5625 24.1406 17.4844C24.1406 15.3281 24.3906 13.2344 24.8906 11.2031C25.4062 9.15625 26.1641 7.32031 27.1641 5.69531C28.1641 4.07031 29.4062 2.78125 30.8906 1.82812C32.375 0.859375 34.0859 0.375 36.0234 0.375C38.0078 0.375 39.7656 0.890625 41.2969 1.92188C42.8438 2.9375 44.1406 4.29688 45.1875 6C46.25 7.70312 47.0547 9.60938 47.6016 11.7188C48.1484 13.8281 48.4219 15.9688 48.4219 18.1406C48.4219 20.1562 48.1797 22.1094 47.6953 24C47.2109 25.875 46.4688 27.5547 45.4688 29.0391C44.4688 30.5234 43.2031 31.7109 41.6719 32.6016C40.1406 33.4766 38.3281 33.9141 36.2344 33.9141ZM36.2109 22.8984C36.8828 22.8984 37.4297 22.5859 37.8516 21.9609C38.2734 21.3203 38.5859 20.5 38.7891 19.5C38.9922 18.4844 39.0938 17.4219 39.0938 16.3125C39.0938 15.0156 38.9766 13.7969 38.7422 12.6562C38.5078 11.5156 38.1562 10.5938 37.6875 9.89062C37.2344 9.1875 36.6719 8.83594 36 8.83594C35.375 8.83594 34.8516 9.17969 34.4297 9.86719C34.0234 10.5391 33.7109 11.4062 33.4922 12.4688C33.2734 13.5312 33.1641 14.6484 33.1641 15.8203C33.1641 16.9922 33.2734 18.125 33.4922 19.2188C33.7266 20.2969 34.0625 21.1797 34.5 21.8672C34.9531 22.5547 35.5234 22.8984 36.2109 22.8984ZM60.6797 33.9141C58.8984 33.9141 57.2266 33.6797 55.6641 33.2109C54.1172 32.7266 52.8594 31.9766 51.8906 30.9609C50.9375 29.9453 50.4609 28.6406 50.4609 27.0469C50.4609 26.0312 50.6484 25.0859 51.0234 24.2109C51.3984 23.3359 51.9531 22.3984 52.6875 21.3984C51.2969 20.8984 50.6016 20.1328 50.6016 19.1016C50.6016 18.3359 50.9375 17.5391 51.6094 16.7109C52.2969 15.8828 53.1172 15.1172 54.0703 14.4141C53.2109 13.6016 52.5625 12.6953 52.125 11.6953C51.7031 10.6797 51.4922 9.64844 51.4922 8.60156C51.4922 7.32031 51.8047 6.08594 52.4297 4.89844C53.0703 3.71094 54 2.73438 55.2188 1.96875C56.4531 1.20312 57.9766 0.820312 59.7891 0.820312C61.0703 0.851562 62.1641 1.00781 63.0703 1.28906C63.9922 1.55469 64.7422 1.82812 65.3203 2.10938C65.9141 2.39062 66.3672 2.53125 66.6797 2.53125C66.9609 2.53125 67.1875 2.39844 67.3594 2.13281C67.5469 1.86719 67.6797 1.41406 67.7578 0.773438C67.8047 0.507813 67.9922 0.3125 68.3203 0.1875C68.6484 0.0625 69.0234 0 69.4453 0C69.9453 0 70.4219 0.09375 70.875 0.28125C71.3438 0.453125 71.6094 0.734375 71.6719 1.125L71.6953 1.26562C71.7109 1.40625 71.7188 1.58594 71.7188 1.80469C71.7188 2.46094 71.5 3.125 71.0625 3.79688C70.6406 4.46875 70.1406 5.11719 69.5625 5.74219C70.3594 7.11719 70.7578 8.52344 70.7578 9.96094C70.7578 11.1641 70.4609 12.3125 69.8672 13.4062C69.2734 14.4844 68.3594 15.3672 67.125 16.0547C65.9062 16.7422 64.3516 17.0859 62.4609 17.0859C61.9609 17.0859 61.5859 17.0781 61.3359 17.0625C61.1016 17.0469 60.75 17.0391 60.2812 17.0391C59.7188 17.0391 59.3047 17.0938 59.0391 17.2031C58.7891 17.3125 58.6641 17.4375 58.6641 17.5781C58.6641 17.8125 58.9844 18.0547 59.625 18.3047C60.2812 18.5391 61.1641 18.6562 62.2734 18.6562C62.7422 18.6562 63.1328 18.6484 63.4453 18.6328C63.7734 18.6172 64.2266 18.6094 64.8047 18.6094C67.0859 18.6094 68.9844 19.0156 70.5 19.8281C72.4531 20.8594 73.4297 22.5859 73.4297 25.0078C73.4297 26.4297 73.0547 27.6953 72.3047 28.8047C71.5703 29.9141 70.5859 30.8516 69.3516 31.6172C68.1328 32.3672 66.7656 32.9375 65.25 33.3281C63.7344 33.7188 62.2109 33.9141 60.6797 33.9141ZM63.4688 11.7891C63.9375 11.7891 64.2734 11.6406 64.4766 11.3438C64.6953 11.0469 64.8047 10.6719 64.8047 10.2188C64.8047 9.17188 64.4062 8.05469 63.6094 6.86719C62.8281 5.66406 61.8828 5.01562 60.7734 4.92188C60.3359 4.9375 60.0156 5.10938 59.8125 5.4375C59.6094 5.75 59.5078 6.14844 59.5078 6.63281C59.5078 7.63281 59.8672 8.71875 60.5859 9.89062C61.3047 11.0625 62.2188 11.6953 63.3281 11.7891H63.4688ZM61.0078 25.5234C63.2422 25.4766 64.9141 25.2656 66.0234 24.8906C67.1484 24.5 67.7109 24.0859 67.7109 23.6484C67.7109 23.3516 67.3984 23.0703 66.7734 22.8047C66.1641 22.5391 65.2109 22.4062 63.9141 22.4062L62.25 22.4297C60.7656 22.4766 59.6484 22.6797 58.8984 23.0391C58.1484 23.3984 57.7734 23.7812 57.7734 24.1875C57.7734 24.5156 58.0391 24.8203 58.5703 25.1016C59.1172 25.3828 59.9297 25.5234 61.0078 25.5234Z" fill="black"/>
</svg>
