<svg width="80" height="84" viewBox="0 0 80 84" fill="none" xmlns="http://www.w3.org/2000/svg">
<g filter="url(#filter0_d_2085_1458)">
<rect width="80" height="80" rx="10" fill="white"/>
<rect x="2" y="2" width="76" height="76" rx="8" stroke="#DFDFDF" stroke-width="4"/>
<g clip-path="url(#clip0_2085_1458)">
<path d="M40 44C39.2089 44 38.4355 43.7654 37.7777 43.3259C37.1199 42.8864 36.6072 42.2616 36.3045 41.5307C36.0017 40.7998 35.9225 39.9956 36.0769 39.2196C36.2312 38.4437 36.6122 37.731 37.1716 37.1716C37.731 36.6122 38.4437 36.2312 39.2196 36.0769C39.9956 35.9225 40.7998 36.0017 41.5307 36.3045C42.2616 36.6072 42.8864 37.1199 43.3259 37.7777C43.7654 38.4355 44 39.2089 44 40C44 41.0609 43.5786 42.0783 42.8284 42.8284C42.0783 43.5786 41.0609 44 40 44ZM33.683 44H29C28.7348 44 28.4804 43.8946 28.2929 43.7071C28.1054 43.5196 28 43.2652 28 43C28.0095 41.5641 28.5317 40.1789 29.4726 39.0941C30.4134 38.0093 31.7109 37.2964 33.131 37.084C33.296 37.0609 33.4642 37.0794 33.6203 37.1378C33.7763 37.1962 33.9153 37.2927 34.0246 37.4184C34.1339 37.5442 34.21 37.6953 34.2461 37.858C34.2821 38.0207 34.2769 38.1898 34.231 38.35C34.0778 38.8866 34 39.4419 34 40C34.0003 40.8898 34.2006 41.7681 34.586 42.57C34.6585 42.7222 34.6913 42.8903 34.6815 43.0586C34.6716 43.2269 34.6193 43.39 34.5295 43.5327C34.4397 43.6754 34.3153 43.793 34.1678 43.8747C34.0203 43.9564 33.8546 43.9995 33.686 44H33.683ZM45 52H35C34.7348 52 34.4804 51.8946 34.2929 51.7071C34.1054 51.5196 34 51.2652 34 51C34 49.4087 34.6321 47.8826 35.7574 46.7574C36.8826 45.6321 38.4087 45 40 45C41.5913 45 43.1174 45.6321 44.2426 46.7574C45.3679 47.8826 46 49.4087 46 51C46 51.2652 45.8946 51.5196 45.7071 51.7071C45.5196 51.8946 45.2652 52 45 52ZM46 36C45.2089 36 44.4355 35.7654 43.7777 35.3259C43.1199 34.8864 42.6072 34.2616 42.3045 33.5307C42.0017 32.7998 41.9225 31.9956 42.0769 31.2196C42.2312 30.4437 42.6122 29.731 43.1716 29.1716C43.731 28.6122 44.4437 28.2312 45.2196 28.0769C45.9956 27.9225 46.7998 28.0017 47.5307 28.3045C48.2616 28.6072 48.8864 29.1199 49.3259 29.7777C49.7654 30.4355 50 31.2089 50 32C50 33.0609 49.5786 34.0783 48.8284 34.8284C48.0783 35.5786 47.0609 36 46 36ZM34 36C33.2089 36 32.4355 35.7654 31.7777 35.3259C31.1199 34.8864 30.6072 34.2616 30.3045 33.5307C30.0017 32.7998 29.9225 31.9956 30.0769 31.2196C30.2312 30.4437 30.6122 29.731 31.1716 29.1716C31.731 28.6122 32.4437 28.2312 33.2196 28.0769C33.9956 27.9225 34.7998 28.0017 35.5307 28.3045C36.2616 28.6072 36.8864 29.1199 37.3259 29.7777C37.7654 30.4355 38 31.2089 38 32C38 33.0609 37.5786 34.0783 36.8284 34.8284C36.0783 35.5786 35.0609 36 34 36ZM51 44H46.317C46.1484 43.9995 45.9827 43.9564 45.8352 43.8747C45.6877 43.793 45.5633 43.6754 45.4735 43.5327C45.3837 43.39 45.3314 43.2269 45.3215 43.0586C45.3117 42.8903 45.3445 42.7222 45.417 42.57C45.8014 41.7678 46.0006 40.8895 46 40C45.9984 39.4417 45.9189 38.8864 45.764 38.35C45.7178 38.1894 45.7126 38.0197 45.7489 37.8566C45.7851 37.6934 45.8617 37.5419 45.9717 37.416C46.0816 37.2901 46.2213 37.1937 46.378 37.1357C46.5348 37.0777 46.7036 37.0599 46.869 37.084C48.2891 37.2964 49.5866 38.0093 50.5274 39.0941C51.4683 40.1789 51.9905 41.5641 52 43C52 43.2652 51.8946 43.5196 51.7071 43.7071C51.5196 43.8946 51.2652 44 51 44Z" fill="#707070"/>
</g>
</g>
<defs>
<filter id="filter0_d_2085_1458" x="0" y="0" width="80" height="84" filterUnits="userSpaceOnUse" color-interpolation-filters="sRGB">
<feFlood flood-opacity="0" result="BackgroundImageFix"/>
<feColorMatrix in="SourceAlpha" type="matrix" values="0 0 0 0 0 0 0 0 0 0 0 0 0 0 0 0 0 0 127 0" result="hardAlpha"/>
<feOffset dy="4"/>
<feComposite in2="hardAlpha" operator="out"/>
<feColorMatrix type="matrix" values="0 0 0 0 0.87451 0 0 0 0 0.87451 0 0 0 0 0.87451 0 0 0 1 0"/>
<feBlend mode="normal" in2="BackgroundImageFix" result="effect1_dropShadow_2085_1458"/>
<feBlend mode="normal" in="SourceGraphic" in2="effect1_dropShadow_2085_1458" result="shape"/>
</filter>
<clipPath id="clip0_2085_1458">
<rect width="24" height="24" fill="white" transform="translate(28 28)"/>
</clipPath>
</defs>
</svg>
