<svg width="40" height="40" viewBox="0 0 40 40" fill="none" xmlns="http://www.w3.org/2000/svg">
<rect width="40" height="40" rx="4" fill="#FFFADD"/>
<g clip-path="url(#clip0_2069_234)">
<path d="M21.3933 23.1667H22C26.4287 23.1667 28 20.8334 28 18.8334C27.9993 18.2914 27.81 17.7665 27.4645 17.3489C27.1191 16.9312 26.639 16.6469 26.1067 16.5447C26.2133 16.3293 26.3045 16.1065 26.3793 15.878C26.4957 15.488 26.5186 15.076 26.4461 14.6755C26.3736 14.275 26.2077 13.8972 25.962 13.5727C25.7141 13.2383 25.3909 12.967 25.0187 12.7806C24.6465 12.5943 24.2356 12.4982 23.8193 12.5H16.1807C15.7642 12.4984 15.3533 12.5948 14.981 12.7815C14.6088 12.9682 14.2857 13.2399 14.038 13.5747C13.7923 13.8992 13.6264 14.277 13.5539 14.6775C13.4814 15.078 13.5043 15.49 13.6207 15.88C13.6955 16.1085 13.7867 16.3313 13.8933 16.5467C13.3614 16.6488 12.8815 16.9329 12.5361 17.3501C12.1906 17.7673 12.0011 18.2917 12 18.8334C12 20.8334 13.5713 23.1667 18 23.1667H18.6067C18.6455 23.3691 18.6656 23.5746 18.6667 23.7807V25.8334C18.6781 26.0114 18.6515 26.1899 18.5885 26.3568C18.5256 26.5238 18.4278 26.6754 18.3016 26.8016C18.1754 26.9278 18.0238 27.0256 17.8568 27.0886C17.6899 27.1515 17.5114 27.1781 17.3333 27.1667H16C15.8232 27.1667 15.6536 27.2369 15.5286 27.362C15.4036 27.487 15.3333 27.6565 15.3333 27.8334C15.3333 28.0102 15.4036 28.1797 15.5286 28.3048C15.6536 28.4298 15.8232 28.5 16 28.5H24C24.1768 28.5 24.3464 28.4298 24.4714 28.3048C24.5964 28.1797 24.6667 28.0102 24.6667 27.8334C24.6667 27.6565 24.5964 27.487 24.4714 27.362C24.3464 27.2369 24.1768 27.1667 24 27.1667H22.6707C22.4923 27.1785 22.3135 27.1522 22.1462 27.0894C21.9788 27.0266 21.8268 26.9289 21.7002 26.8027C21.5737 26.6765 21.4755 26.5248 21.4122 26.3576C21.3489 26.1905 21.322 26.0117 21.3333 25.8334V23.78C21.3344 23.5742 21.3545 23.3689 21.3933 23.1667ZM22.484 21.266C23.6263 20.2541 24.6145 19.0806 25.4173 17.7827C25.4964 17.8154 25.5811 17.8326 25.6667 17.8334C25.9319 17.8334 26.1862 17.9387 26.3738 18.1263C26.5613 18.3138 26.6667 18.5681 26.6667 18.8334C26.6667 20.284 25.4407 21.8334 22 21.8334H21.9627C22.113 21.624 22.288 21.4335 22.484 21.266ZM18 21.8334C14.5593 21.8334 13.3333 20.284 13.3333 18.8334C13.3333 18.5681 13.4387 18.3138 13.6262 18.1263C13.8138 17.9387 14.0681 17.8334 14.3333 17.8334C14.4192 17.8327 14.504 17.8155 14.5833 17.7827C15.3861 19.0806 16.3744 20.2541 17.5167 21.266C17.7124 21.4335 17.8872 21.624 18.0373 21.8334H18Z" fill="#FFC443"/>
</g>
<defs>
<clipPath id="clip0_2069_234">
<rect width="16" height="16" fill="white" transform="translate(12 12.5)"/>
</clipPath>
</defs>
</svg>
