<svg width="80" height="84" viewBox="0 0 80 84" fill="none" xmlns="http://www.w3.org/2000/svg">
<g filter="url(#filter0_d_2085_1474)">
<rect width="80" height="80" rx="10" fill="white"/>
<rect x="2" y="2" width="76" height="76" rx="8" stroke="#DFDFDF" stroke-width="4"/>
<g clip-path="url(#clip0_2085_1474)">
<path d="M28.5538 41.5899C28.0103 40.7902 27.9016 39.7721 28.2642 38.8757C29.0745 37.2226 30.432 35.901 32.1061 35.1353C33.3182 34.5325 34.6311 34.1587 35.9789 34.0325C35.3916 34.7551 34.8037 35.5261 34.2152 36.3456C33.0173 38.1595 31.992 40.0815 31.1526 42.0866L30.7913 42.8968C29.8862 42.8219 29.0637 42.3415 28.5538 41.5899ZM29.9304 45.7941C29.0656 46.9882 28.445 48.3411 28.104 49.7754C27.8914 50.7074 28.4746 51.6353 29.4066 51.8479C29.6602 51.9057 29.9236 51.9057 30.1773 51.8477C31.6094 51.5061 32.9602 50.8859 34.1526 50.0223C35.3202 48.8553 35.3206 46.9627 34.1536 45.7951C32.9866 44.6276 31.094 44.6271 29.9264 45.7941H29.9304ZM37.8302 48.7602L37.0141 49.1225V49.4151C37.016 50.1162 37.2968 50.7876 37.7944 51.2814C38.2677 51.7417 38.9018 51.9995 39.5621 52C41.9081 51.9662 43.8102 49.8302 44.8085 47.8416C45.42 46.6108 45.7951 45.2763 45.9142 43.9071C45.1843 44.5043 44.4017 45.1015 43.5663 45.6987C41.7531 46.8968 39.8313 47.9218 37.8262 48.7603L37.8302 48.7602ZM51.9439 30.945C51.8115 35.2776 48.6921 39.5744 42.4067 44.0832C40.6962 45.192 38.8918 46.1485 37.0141 46.9418V46.3814C37.0048 44.4613 35.4506 42.9071 33.5305 42.8978H32.9701C33.7652 41.0201 34.7234 39.2156 35.8337 37.5052C40.3315 31.2346 44.6213 28.1113 48.947 27.97C51.1028 27.97 51.9439 28.8478 51.9439 30.945ZM45.9719 36.4282C45.9719 35.054 44.8579 33.9399 43.4836 33.9399C42.1093 33.9399 40.9953 35.0539 40.9953 36.4282C40.9953 37.8024 42.1093 38.9165 43.4836 38.9165C44.8579 38.9165 45.9719 37.8024 45.9719 36.4282Z" fill="#707070"/>
</g>
</g>
<defs>
<filter id="filter0_d_2085_1474" x="0" y="0" width="80" height="84" filterUnits="userSpaceOnUse" color-interpolation-filters="sRGB">
<feFlood flood-opacity="0" result="BackgroundImageFix"/>
<feColorMatrix in="SourceAlpha" type="matrix" values="0 0 0 0 0 0 0 0 0 0 0 0 0 0 0 0 0 0 127 0" result="hardAlpha"/>
<feOffset dy="4"/>
<feComposite in2="hardAlpha" operator="out"/>
<feColorMatrix type="matrix" values="0 0 0 0 0.87451 0 0 0 0 0.87451 0 0 0 0 0.87451 0 0 0 1 0"/>
<feBlend mode="normal" in2="BackgroundImageFix" result="effect1_dropShadow_2085_1474"/>
<feBlend mode="normal" in="SourceGraphic" in2="effect1_dropShadow_2085_1474" result="shape"/>
</filter>
<clipPath id="clip0_2085_1474">
<rect width="24" height="24" fill="white" transform="translate(28 28)"/>
</clipPath>
</defs>
</svg>
