<svg width="40" height="40" viewBox="0 0 40 40" fill="none" xmlns="http://www.w3.org/2000/svg">
<rect width="40" height="40" rx="4" fill="#E8FFE8"/>
<g clip-path="url(#clip0_2069_238)">
<path d="M28.0004 20.4999C28.0004 19.3693 27.427 18.3726 26.555 17.7846C26.7557 16.7526 26.4564 15.6426 25.657 14.8426C24.8577 14.0433 23.7477 13.7439 22.715 13.9446C22.127 13.0726 21.1304 12.4993 19.9997 12.4993C18.869 12.4993 17.8724 13.0726 17.2844 13.9446C16.2524 13.7439 15.1417 14.0433 14.3424 14.8426C13.543 15.6419 13.2437 16.7519 13.4444 17.7846C12.5724 18.3726 11.999 19.3693 11.999 20.4999C11.999 21.6306 12.5724 22.6273 13.4444 23.2153C13.2437 24.2473 13.543 25.3579 14.3424 26.1573C15.1417 26.9566 16.2517 27.2559 17.2844 27.0553C17.8724 27.9273 18.869 28.5006 19.9997 28.5006C21.1304 28.5006 22.127 27.9273 22.715 27.0553C23.747 27.2559 24.8577 26.9566 25.657 26.1573C26.4564 25.3579 26.7557 24.2479 26.555 23.2153C27.427 22.6273 28.0004 21.6306 28.0004 20.4999ZM19.9397 22.7793C19.6817 23.0373 19.3424 23.1659 19.0017 23.1659C18.661 23.1659 18.3184 23.0359 18.0577 22.7759L16.203 20.9786L17.1317 20.0206L18.9937 21.8253L22.8664 18.0246L23.8024 18.9746L19.9397 22.7793Z" fill="#11C711"/>
</g>
<defs>
<clipPath id="clip0_2069_238">
<rect width="16" height="16" fill="white" transform="translate(12 12.5)"/>
</clipPath>
</defs>
</svg>
