<svg width="40" height="40" viewBox="0 0 40 40" fill="none" xmlns="http://www.w3.org/2000/svg">
<rect width="40" height="40" rx="4" fill="#FFDDD7"/>
<g clip-path="url(#clip0_2069_254)">
<path d="M12.3691 21.5599C12.0068 21.0268 11.9343 20.348 12.1761 19.7504C12.7163 18.6484 13.6212 17.7674 14.7373 17.2569C15.5454 16.855 16.4207 16.6058 17.3192 16.5216C16.9277 17.0034 16.5357 17.5174 16.1434 18.0637C15.3448 19.273 14.6612 20.5544 14.1016 21.8911L13.8608 22.4312C13.2574 22.3813 12.709 22.061 12.3691 21.5599ZM13.2868 24.3628C12.7103 25.1588 12.2966 26.0607 12.0692 27.0169C11.9275 27.6383 12.3163 28.2569 12.9376 28.3986C13.1067 28.4371 13.2823 28.4371 13.4514 28.3984C14.4062 28.1708 15.3067 27.7573 16.1016 27.1815C16.88 26.4035 16.8803 25.1418 16.1023 24.3634C15.3243 23.585 14.0626 23.5847 13.2842 24.3628H13.2868ZM18.5534 26.3401L18.0093 26.5817V26.7768C18.0106 27.2441 18.1978 27.6917 18.5295 28.0209C18.8451 28.3278 19.2678 28.4997 19.708 28.5C21.272 28.4774 22.54 27.0535 23.2056 25.7277C23.6133 24.9072 23.8633 24.0175 23.9427 23.1047C23.4561 23.5029 22.9344 23.901 22.3774 24.2991C21.1686 25.0979 19.8875 25.7812 18.5507 26.3402L18.5534 26.3401ZM27.9625 14.4633C27.8742 17.3517 25.7947 20.2163 21.6044 23.2221C20.4641 23.9613 19.2611 24.599 18.0093 25.1279V24.7543C18.0031 23.4742 16.967 22.438 15.6869 22.4319H15.3133C15.8434 21.18 16.4822 19.9771 17.2224 18.8368C20.2209 14.6564 23.0808 12.5742 25.9646 12.48C27.4018 12.48 27.9625 13.0652 27.9625 14.4633ZM23.9812 18.1188C23.9812 17.2026 23.2385 16.4599 22.3223 16.4599C21.4061 16.4599 20.6635 17.2026 20.6635 18.1188C20.6635 19.0349 21.4061 19.7777 22.3223 19.7777C23.2385 19.7777 23.9812 19.0349 23.9812 18.1188Z" fill="#F15D41"/>
</g>
<defs>
<clipPath id="clip0_2069_254">
<rect width="16" height="16" fill="white" transform="translate(12 12.5)"/>
</clipPath>
</defs>
</svg>
