<svg width="100" height="100" viewBox="0 0 100 100" fill="none" xmlns="http://www.w3.org/2000/svg">
<rect x="2" y="2" width="96" height="96" rx="8" fill="url(#paint0_linear_2085_1482)"/>
<rect x="2" y="2" width="96" height="96" rx="8" stroke="url(#paint1_linear_2085_1482)" stroke-width="4"/>
<g clip-path="url(#clip0_2085_1482)">
<path d="M66 46C65.8273 46.9681 65.4426 47.8861 64.8733 48.688L53.1627 64.448C52.7914 64.9277 52.3159 65.3166 51.7721 65.5854C51.2284 65.8542 50.6306 65.9958 50.0241 65.9996C49.4175 66.0033 48.8181 65.869 48.2711 65.6069C47.724 65.3448 47.2438 64.9617 46.8667 64.4867L35.0987 48.4C34.5988 47.6757 34.2459 46.8602 34.06 46H42.4173L48.7547 62.4787C48.8511 62.7308 49.0218 62.9477 49.2441 63.1007C49.4665 63.2537 49.7301 63.3356 50 63.3356C50.2699 63.3356 50.5335 63.2537 50.7559 63.1007C50.9782 62.9477 51.1489 62.7308 51.2453 62.4787L57.5827 46H66ZM57.6 43.3333H65.9427C65.7398 42.4312 65.3506 41.5815 64.8 40.8387L61.3893 36.2333C60.8954 35.543 60.2441 34.9803 59.4894 34.5919C58.7346 34.2036 57.8982 34.0006 57.0493 34H54.116L57.6 43.3333ZM48.8107 34L45.2653 43.3333H54.748L51.2733 34H48.8107ZM42.4133 43.3333L45.9573 34H42.8613C42.0197 33.9992 41.1899 34.198 40.4401 34.5803C39.6902 34.9625 39.0418 35.5171 38.548 36.1987L35.2507 40.5213C34.6197 41.348 34.1914 42.3111 34 43.3333H42.4133ZM54.7253 46H45.2747L50 58.2853L54.7253 46Z" fill="white"/>
</g>
<defs>
<linearGradient id="paint0_linear_2085_1482" x1="95.6419" y1="15.73" x2="-6.32124" y2="84.4194" gradientUnits="userSpaceOnUse">
<stop stop-color="#E35CFF"/>
<stop offset="0.475086" stop-color="#3387FF"/>
<stop offset="1" stop-color="#25EC77"/>
</linearGradient>
<linearGradient id="paint1_linear_2085_1482" x1="95.6419" y1="15.73" x2="-6.32124" y2="84.4194" gradientUnits="userSpaceOnUse">
<stop stop-color="#E35CFF"/>
<stop offset="0.475086" stop-color="#3387FF"/>
<stop offset="1" stop-color="#25EC77"/>
</linearGradient>
<clipPath id="clip0_2085_1482">
<rect width="32" height="32" fill="white" transform="translate(34 34)"/>
</clipPath>
</defs>
</svg>
