<svg width="40" height="40" viewBox="0 0 40 40" fill="none" xmlns="http://www.w3.org/2000/svg">
<rect width="40" height="40" rx="4" fill="#EAEDFF"/>
<g clip-path="url(#clip0_2069_283)">
<path d="M14.6667 12.5H16.6667C18.1394 12.5 19.3333 13.6939 19.3333 15.1667V17.1667C19.3333 18.6394 18.1394 19.8333 16.6667 19.8333H14.6667C13.1939 19.8333 12 18.6394 12 17.1667V15.1667C12 13.6939 13.1939 12.5 14.6667 12.5Z" fill="#343B6E"/>
<path d="M23.3336 12.5H25.3336C26.8064 12.5 28.0003 13.6939 28.0003 15.1667V17.1667C28.0003 18.6394 26.8064 19.8333 25.3336 19.8333H23.3336C21.8609 19.8333 20.667 18.6394 20.667 17.1667V15.1667C20.667 13.6939 21.8609 12.5 23.3336 12.5Z" fill="#343B6E"/>
<path d="M14.6667 21.1667H16.6667C18.1394 21.1667 19.3333 22.3607 19.3333 23.8334V25.8334C19.3333 27.3062 18.1394 28.5001 16.6667 28.5001H14.6667C13.1939 28.5001 12 27.3062 12 25.8334V23.8334C12 22.3607 13.1939 21.1667 14.6667 21.1667Z" fill="#343B6E"/>
<path d="M23.3336 21.1667H25.3336C26.8064 21.1667 28.0003 22.3607 28.0003 23.8334V25.8334C28.0003 27.3062 26.8064 28.5001 25.3336 28.5001H23.3336C21.8609 28.5001 20.667 27.3062 20.667 25.8334V23.8334C20.667 22.3607 21.8609 21.1667 23.3336 21.1667Z" fill="#343B6E"/>
</g>
<defs>
<clipPath id="clip0_2069_283">
<rect width="16" height="16" fill="white" transform="translate(12 12.5)"/>
</clipPath>
</defs>
</svg>
