<svg width="80" height="84" viewBox="0 0 80 84" fill="none" xmlns="http://www.w3.org/2000/svg">
<g filter="url(#filter0_d_2085_1526)">
<rect width="80" height="80" rx="10" fill="white"/>
<rect x="2" y="2" width="76" height="76" rx="8" stroke="#DFDFDF" stroke-width="4"/>
<g clip-path="url(#clip0_2085_1526)">
<path d="M32 28H35C37.2091 28 39 29.7909 39 32V35C39 37.2091 37.2091 39 35 39H32C29.7909 39 28 37.2092 28 35V32C28 29.7909 29.7909 28 32 28Z" fill="#707070"/>
<path d="M45 28H48C50.2091 28 52 29.7909 52 32V35C52 37.2091 50.2091 39 48 39H45C42.7909 39 41 37.2091 41 35V32C41 29.7909 42.7908 28 45 28Z" fill="#707070"/>
<path d="M32 41H35C37.2091 41 39 42.7909 39 45V48C39 50.2091 37.2091 52 35 52H32C29.7909 52 28 50.2092 28 48V45C28 42.7909 29.7909 41 32 41Z" fill="#707070"/>
<path d="M45 41H48C50.2091 41 52 42.7909 52 45V48C52 50.2092 50.2091 52 48 52H45C42.7909 52 41 50.2092 41 48V45C41 42.7909 42.7908 41 45 41Z" fill="#707070"/>
</g>
</g>
<defs>
<filter id="filter0_d_2085_1526" x="0" y="0" width="80" height="84" filterUnits="userSpaceOnUse" color-interpolation-filters="sRGB">
<feFlood flood-opacity="0" result="BackgroundImageFix"/>
<feColorMatrix in="SourceAlpha" type="matrix" values="0 0 0 0 0 0 0 0 0 0 0 0 0 0 0 0 0 0 127 0" result="hardAlpha"/>
<feOffset dy="4"/>
<feComposite in2="hardAlpha" operator="out"/>
<feColorMatrix type="matrix" values="0 0 0 0 0.87451 0 0 0 0 0.87451 0 0 0 0 0.87451 0 0 0 1 0"/>
<feBlend mode="normal" in2="BackgroundImageFix" result="effect1_dropShadow_2085_1526"/>
<feBlend mode="normal" in="SourceGraphic" in2="effect1_dropShadow_2085_1526" result="shape"/>
</filter>
<clipPath id="clip0_2085_1526">
<rect width="24" height="24" fill="white" transform="translate(28 28)"/>
</clipPath>
</defs>
</svg>
