<svg width="134" height="36" viewBox="0 0 134 36" fill="none" xmlns="http://www.w3.org/2000/svg">
<path d="M4.89844 35.0156C4.21094 35.0156 3.60156 34.9375 3.07031 34.7812C2.55469 34.6094 2.22656 34.3281 2.08594 33.9375C1.38281 31.7344 0.859375 28.6719 0.515625 24.75C0.171875 20.8281 0 16.9844 0 13.2188C0 9.60938 0.15625 6.58594 0.46875 4.14844C0.765625 2.50781 2.39062 1.59375 5.34375 1.40625C6.35938 1.32813 7.26562 1.28906 8.0625 1.28906H8.46094C11.3203 1.28906 13.7578 1.8125 15.7734 2.85938C17.7891 3.89062 19.3203 5.24219 20.3672 6.91406C21.4297 8.58594 21.9609 10.3672 21.9609 12.2578C21.9609 15.6797 20.75 18.5078 18.3281 20.7422C18.1094 20.9609 17.9375 21.1484 17.8125 21.3047C17.7031 21.4453 17.6484 21.5938 17.6484 21.75C17.6484 21.9688 17.8125 22.3047 18.1406 22.7578C18.4844 23.1953 18.9062 23.7188 19.4062 24.3281C19.9219 24.9219 20.4375 25.5547 20.9531 26.2266C21.4688 26.8984 21.9062 27.5703 22.2656 28.2422C22.625 28.8984 22.8047 29.4922 22.8047 30.0234C22.8047 30.7578 22.4766 31.5 21.8203 32.25C21.1797 32.9844 20.3906 33.6016 19.4531 34.1016C18.5312 34.5859 17.6484 34.8281 16.8047 34.8281C15.8359 34.8281 15.125 34.4531 14.6719 33.7031C12.7812 30.2812 11.5312 28.5703 10.9219 28.5703C10.6875 28.5703 10.5625 28.875 10.5469 29.4844C10.5469 29.7344 10.6016 30.0391 10.7109 30.3984C10.7734 30.6953 10.8359 31.0391 10.8984 31.4297C10.9766 31.8203 11.0156 32.2734 11.0156 32.7891C11.0156 33.1641 10.6797 33.5234 10.0078 33.8672C9.35156 34.2109 8.54688 34.4922 7.59375 34.7109C6.65625 34.9141 5.75781 35.0156 4.89844 35.0156ZM11.0625 16.0312C11.8594 16 12.4453 15.6719 12.8203 15.0469C13.2109 14.4219 13.4062 13.7422 13.4062 13.0078C13.4062 12.2266 13.1875 11.5 12.75 10.8281C12.3281 10.1562 11.7031 9.79688 10.875 9.75C10.5156 9.78125 10.2344 10.1094 10.0312 10.7344C9.84375 11.3438 9.75 12.0234 9.75 12.7734C9.75 13.5703 9.85156 14.3047 10.0547 14.9766C10.2734 15.6484 10.5859 16 10.9922 16.0312H11.0625ZM41.9766 34.2891C41.1172 34.2891 40.2578 34.1719 39.3984 33.9375C38.5547 33.6875 37.8984 33.2969 37.4297 32.7656C35.5078 33.375 33.7812 33.6797 32.25 33.6797C30.2656 33.6797 28.625 33.2578 27.3281 32.4141C26.0469 31.5547 25.0859 30.4531 24.4453 29.1094C23.8203 27.7656 23.5078 26.3594 23.5078 24.8906C23.5078 23.3594 23.8281 21.8906 24.4688 20.4844C25.125 19.0625 26.0781 17.9062 27.3281 17.0156C28.5938 16.1094 30.1406 15.6562 31.9688 15.6562C32.9375 15.6562 33.9688 15.8047 35.0625 16.1016C35.8906 16.3516 36.5156 16.5781 36.9375 16.7812C37.375 16.9688 37.6875 17.0625 37.875 17.0625C38.0938 17.0625 38.2031 16.8516 38.2031 16.4297C38.2031 16.0391 38.1875 15.4453 38.1562 14.6484L38.1094 13.5469C38.0312 11.8281 37.8516 10.6094 37.5703 9.89062C37.3047 9.17188 37 8.8125 36.6562 8.8125C36.25 8.8125 35.8594 9.1875 35.4844 9.9375C35.125 10.6719 34.8984 11.5625 34.8047 12.6094C34.7266 13.1719 34.3594 13.6094 33.7031 13.9219C33.0469 14.2188 32.2812 14.3672 31.4062 14.3672C30.625 14.3672 29.8438 14.2344 29.0625 13.9688C28.2812 13.7031 27.625 13.2891 27.0938 12.7266C26.5781 12.1484 26.3203 11.4062 26.3203 10.5C26.3672 8.625 26.8516 7.04688 27.7734 5.76562C28.6953 4.46875 29.9062 3.49219 31.4062 2.83594C32.9219 2.16406 34.5547 1.82812 36.3047 1.82812C37.6328 1.82812 38.9375 2.04687 40.2188 2.48438C41.5 2.90625 42.6562 3.55469 43.6875 4.42969C44.7188 5.30469 45.5391 6.41406 46.1484 7.75781C46.7734 9.08594 47.0859 10.6641 47.0859 12.4922C47.0859 16.3516 46.9062 20.1562 46.5469 23.9062C46.2031 27.6406 45.6953 30.75 45.0234 33.2344C44.9141 33.5781 44.5703 33.8438 43.9922 34.0312C43.4141 34.2031 42.7422 34.2891 41.9766 34.2891ZM32.4375 26.7656C33.125 26.7656 33.8984 26.5938 34.7578 26.25C35.6328 25.9062 36.3906 25.4688 37.0312 24.9375C37.6719 24.3906 37.9922 23.8203 37.9922 23.2266C37.9922 22.8828 37.8438 22.6016 37.5469 22.3828C37.2656 22.1484 36.8359 22.0312 36.2578 22.0312C35.3672 22.0312 34.125 22.3906 32.5312 23.1094C31.9844 23.3906 31.5625 23.7422 31.2656 24.1641C30.9844 24.5703 30.8438 24.9688 30.8438 25.3594C30.8438 25.7188 30.9766 26.0469 31.2422 26.3438C31.5078 26.625 31.9062 26.7656 32.4375 26.7656ZM55.3125 34.9922C54.4688 34.9922 53.7734 34.9062 53.2266 34.7344C52.6797 34.5469 52.3438 34.2812 52.2188 33.9375C51.5156 31.7031 50.9844 28.5781 50.625 24.5625C50.2656 20.5469 50.0859 16.6328 50.0859 12.8203C50.0859 10.8047 50.1797 8.95312 50.3672 7.26562C50.4922 5.96875 50.5547 4.84375 50.5547 3.89062C50.5547 3.28125 50.7969 2.78125 51.2812 2.39062C51.7656 2 52.3672 1.71094 53.0859 1.52344C53.8203 1.33594 54.5547 1.24219 55.2891 1.24219C56.0078 1.24219 56.6953 1.32813 57.3516 1.5C58.0234 1.67187 58.5703 1.92969 58.9922 2.27344C59.4141 2.60156 59.625 3.00781 59.625 3.49219C59.625 4.16406 59.6562 4.92188 59.7188 5.76562L59.8125 8.01562C62.4062 8.23438 64.6172 8.96094 66.4453 10.1953C68.2734 11.4141 69.6719 12.9609 70.6406 14.8359C71.6094 16.6953 72.0938 18.6562 72.0938 20.7188C72.0938 22.75 71.6953 24.5469 70.8984 26.1094C70.1172 27.6719 69.0938 29.0156 67.8281 30.1406C66.5625 31.25 65.1797 32.1641 63.6797 32.8828C62.1797 33.6016 60.6953 34.1328 59.2266 34.4766C57.7578 34.8203 56.4531 34.9922 55.3125 34.9922ZM61.3594 24.9141C61.8438 24.9141 62.25 24.7344 62.5781 24.375C62.9062 24 63.1484 23.5156 63.3047 22.9219C63.4766 22.3281 63.5625 21.7109 63.5625 21.0703C63.5625 20.3828 63.4688 19.7109 63.2812 19.0547C63.1094 18.3828 62.8359 17.8281 62.4609 17.3906C62.1016 16.9531 61.6484 16.7344 61.1016 16.7344C60.7422 16.7344 60.4766 17.1094 60.3047 17.8594C60.1328 18.5938 60.0469 19.4297 60.0469 20.3672C60.0469 21.4609 60.1562 22.4922 60.375 23.4609C60.6094 24.4297 60.9375 24.9141 61.3594 24.9141ZM79.4531 34.9922C78.6094 34.9922 77.9141 34.9062 77.3672 34.7344C76.8203 34.5469 76.4844 34.2812 76.3594 33.9375C75.6562 31.7031 75.125 28.5781 74.7656 24.5625C74.4062 20.5469 74.2266 16.6328 74.2266 12.8203C74.2266 10.8047 74.3203 8.95312 74.5078 7.26562C74.6328 5.96875 74.6953 4.84375 74.6953 3.89062C74.6953 3.28125 74.9375 2.78125 75.4219 2.39062C75.9062 2 76.5078 1.71094 77.2266 1.52344C77.9609 1.33594 78.6953 1.24219 79.4297 1.24219C80.1484 1.24219 80.8359 1.32813 81.4922 1.5C82.1641 1.67187 82.7109 1.92969 83.1328 2.27344C83.5547 2.60156 83.7656 3.00781 83.7656 3.49219C83.7656 4.16406 83.7969 4.92188 83.8594 5.76562L83.9531 8.01562C86.5469 8.23438 88.7578 8.96094 90.5859 10.1953C92.4141 11.4141 93.8125 12.9609 94.7812 14.8359C95.75 16.6953 96.2344 18.6562 96.2344 20.7188C96.2344 22.75 95.8359 24.5469 95.0391 26.1094C94.2578 27.6719 93.2344 29.0156 91.9688 30.1406C90.7031 31.25 89.3203 32.1641 87.8203 32.8828C86.3203 33.6016 84.8359 34.1328 83.3672 34.4766C81.8984 34.8203 80.5938 34.9922 79.4531 34.9922ZM85.5 24.9141C85.9844 24.9141 86.3906 24.7344 86.7188 24.375C87.0469 24 87.2891 23.5156 87.4453 22.9219C87.6172 22.3281 87.7031 21.7109 87.7031 21.0703C87.7031 20.3828 87.6094 19.7109 87.4219 19.0547C87.25 18.3828 86.9766 17.8281 86.6016 17.3906C86.2422 16.9531 85.7891 16.7344 85.2422 16.7344C84.8828 16.7344 84.6172 17.1094 84.4453 17.8594C84.2734 18.5938 84.1875 19.4297 84.1875 20.3672C84.1875 21.4609 84.2969 22.4922 84.5156 23.4609C84.75 24.4297 85.0781 24.9141 85.5 24.9141ZM103.008 7.24219C101.805 7.24219 100.812 7.07812 100.031 6.75C99.25 6.42188 98.6641 6 98.2734 5.48438C97.8984 4.96875 97.7109 4.42188 97.7109 3.84375C97.7109 2.90625 98.1797 2.04687 99.1172 1.26562C100.07 0.46875 101.43 0.046875 103.195 0C104.977 0.046875 106.352 0.460938 107.32 1.24219C108.305 2.02344 108.797 2.88281 108.797 3.82031C108.797 4.39844 108.594 4.95312 108.188 5.48438C107.781 6 107.148 6.42188 106.289 6.75C105.43 7.07812 104.336 7.24219 103.008 7.24219ZM102.68 34.875C101.914 34.875 101.258 34.7812 100.711 34.5938C100.164 34.3906 99.8516 34.0625 99.7734 33.6094C99.3672 30.6719 99.0312 27.4062 98.7656 23.8125C98.5 20.2031 98.3672 16.7891 98.3672 13.5703V11.5078C98.3672 10.9609 98.6094 10.5078 99.0938 10.1484C99.5938 9.78906 100.227 9.52344 100.992 9.35156C101.773 9.16406 102.578 9.07031 103.406 9.07031C104.203 9.07031 104.961 9.15625 105.68 9.32812C106.414 9.48438 107.008 9.72656 107.461 10.0547C107.914 10.3828 108.141 10.7891 108.141 11.2734C108.141 12.7266 108.125 14.5312 108.094 16.6875C108.047 19.4062 108.023 22.1953 108.023 25.0547C108.023 26.6797 108.047 28.1875 108.094 29.5781C108.125 30.7188 108.141 31.7969 108.141 32.8125C108.141 33.1875 107.852 33.5312 107.273 33.8438C106.695 34.1562 105.984 34.4062 105.141 34.5938C104.297 34.7812 103.477 34.875 102.68 34.875ZM124.008 34.8281C122.898 34.8281 121.75 34.5859 120.562 34.1016C119.391 33.6016 118.305 32.8516 117.305 31.8516C116.305 30.8516 115.492 29.6094 114.867 28.125C114.242 26.625 113.93 24.875 113.93 22.875V17.7656C113.93 17.3438 113.883 17.0547 113.789 16.8984C113.711 16.7422 113.539 16.6641 113.273 16.6641C113.07 16.6641 112.828 16.7109 112.547 16.8047C112.344 16.8516 112.109 16.9062 111.844 16.9688C111.578 17.0156 111.273 17.0391 110.93 17.0391C110.602 17.0391 110.289 16.6875 109.992 15.9844C109.711 15.2656 109.57 14.5469 109.57 13.8281C109.57 12.7812 109.875 12.1641 110.484 11.9766C110.969 11.8203 111.633 11.6875 112.477 11.5781L112.758 11.5312C113.32 11.4688 113.727 11.3906 113.977 11.2969C114.242 11.2031 114.422 11.0156 114.516 10.7344C114.609 10.4531 114.695 9.88281 114.773 9.02344C115.148 6.00781 115.625 3.51562 116.203 1.54688C116.328 1.1875 116.703 0.914062 117.328 0.726562C117.953 0.539062 118.672 0.445312 119.484 0.445312C120.312 0.445312 121.148 0.554688 121.992 0.773438C122.836 0.976563 123.539 1.29687 124.102 1.73438C124.664 2.17188 124.945 2.74219 124.945 3.44531L124.922 3.84375C124.703 5.25 124.477 6.96875 124.242 9C124.195 9.40625 124.172 9.74219 124.172 10.0078C124.172 10.5547 124.273 10.875 124.477 10.9688C124.695 11.0625 125.023 11.1094 125.461 11.1094H125.953C126.516 11.1094 127.234 11.1719 128.109 11.2969C128.625 11.4219 129 11.7656 129.234 12.3281C129.484 12.875 129.609 13.4766 129.609 14.1328C129.609 14.8203 129.484 15.4531 129.234 16.0312C129 16.6094 128.656 16.8984 128.203 16.8984H124.992C124.195 16.8984 123.703 17.0469 123.516 17.3438C123.344 17.6406 123.258 18.2422 123.258 19.1484C123.258 21.7891 123.297 23.8359 123.375 25.2891C123.469 26.7422 123.781 27.4688 124.312 27.4688C124.625 27.4688 124.906 27.1719 125.156 26.5781C125.422 25.9844 125.555 25.2109 125.555 24.2578C125.555 23.6172 125.906 23.1406 126.609 22.8281C127.328 22.5 128.133 22.3359 129.023 22.3359C129.711 22.3359 130.375 22.4297 131.016 22.6172C131.656 22.7891 132.188 23.0547 132.609 23.4141C133.031 23.7734 133.242 24.2188 133.242 24.75C133.242 25.8438 133.047 26.9844 132.656 28.1719C132.266 29.3438 131.68 30.4375 130.898 31.4531C130.133 32.4531 129.172 33.2656 128.016 33.8906C126.875 34.5156 125.539 34.8281 124.008 34.8281Z" fill="black"/>
</svg>
